<?xml version="1.0" standalone="no"?>
<!DOCTYPE svg PUBLIC "-//W3C//DTD SVG 1.1//EN" "http://www.w3.org/Graphics/SVG/1.1/DTD/svg11.dtd" >
<svg>
<metadata>
Created by FontForge 20090622 at Thu Oct 15 13:38:29 2015
 By deploy user
Copyright (c) 2014 by Reto Moser, Tobias Rechsteiner, Grilli Type. All rights reserved.
</metadata>
<defs>
<font id="GTHaptikBold" horiz-adv-x="640" >
  <font-face 
    font-family="GT Haptik Bold"
    font-weight="750"
    font-stretch="normal"
    units-per-em="1000"
    panose-1="2 0 5 5 2 0 0 2 0 4"
    ascent="800"
    descent="-200"
    x-height="500"
    cap-height="700"
    bbox="-176 -299 1277 973"
    underline-thickness="0"
    underline-position="0"
    unicode-range="U+0020-U+FB04"
  />
<missing-glyph horiz-adv-x="873" 
d="M285 580h34l-64 -95v-68h-30v68l-65 95h34l46 -64zM606 474q0 11 -2.5 19t-11.5 19.5t-34 17.5t-63 6q-39 0 -101 -12v-171q0 -11 -10 -18.5t-22 -10.5t-22 -9t-10 -14q0 -16 22 -16q23 0 70.5 8.5t73.5 8.5q65 0 110 -25v197zM408 414q0 35 22.5 57.5t56.5 22.5
q36 0 58.5 -22.5t22.5 -57.5t-22.5 -58t-58.5 -23q-34 0 -56.5 23t-22.5 58zM540 414q0 22 -15 36.5t-38 14.5q-22 0 -36.5 -14.5t-14.5 -36.5t14.5 -37t36.5 -15q23 0 38 15t15 37zM365 577q0 28 -22.5 41.5t-52.5 13.5q-65 0 -176 -45v-230q110 42 176 42q44 0 75 -14v192
zM684 373h29v-100h-29v100zM58 676q0 16 10.5 26t26.5 10q15 0 26 -10.5t11 -25.5q0 -24 -18 -34v-24q103 42 176 42q42 0 73 -21.5t31 -61.5v-25q55 12 102 12q138 0 138 -83v-48q48 12 77 12q112 0 112 -79v-240q-52 32 -112 32q-19 0 -58 -10t-60 -10q-48 0 -48 46v86
q-23 5 -49 5q-23 0 -70.5 -9t-73.5 -9q-22 0 -35 12.5t-13 33.5v68h-14q-62 0 -176 -44v-327h-39v643q-17 11 -17 33zM364 352q0 11 -32 16v-32q5 3 13.5 5.5t13.5 4.5t5 6zM606 238q0 15 -34 26v-47q6 4 15 7.5t14 6.5t5 7zM679 231q0 19 20 19q19 0 19 -19q0 -20 -19 -20
q-20 0 -20 20zM796 365q0 29 -21.5 40t-63.5 11q-29 0 -77 -12v-167q0 -19 -31 -31.5t-31 -24.5q0 -16 21 -16q19 0 58.5 10.5t60.5 10.5q42 0 84 -15v194z" />
    <glyph glyph-name="IJ" unicode="IJ" horiz-adv-x="572" 
d="M74 700h140v-700h-140v700zM368 700h140v-459q0 -116 -63.5 -178.5t-162.5 -62.5l2 140q39 0 61.5 26.5t22.5 75.5v458z" />
    <glyph glyph-name="ij" unicode="ij" horiz-adv-x="532" 
d="M315 643q0 36 24 60.5t60 24.5t60.5 -24.5t24.5 -60.5t-24.5 -60t-60.5 -24t-60 24t-24 60zM47 643q0 36 24 60.5t60 24.5t60.5 -24.5t24.5 -60.5t-24.5 -60t-60.5 -24t-60 24t-24 60zM333 500h132v-515q0 -190 -209 -190q-23 0 -37 1v122h14q58 0 79 18.5t21 60.5v503z
M65 500h132v-500h-132v500z" />
    <glyph glyph-name="ff" unicode="ff" horiz-adv-x="799" 
d="M505 0v389h-263v-389h-132v389h-101v111h101v25q0 93 49.5 139.5t131.5 46.5q39 0 98 -9v-122q-50 8 -76 8q-39 0 -55 -18.5t-16 -58.5v-11h263v25q0 93 49.5 139.5t131.5 46.5q39 0 98 -9v-122q-50 8 -76 8q-39 0 -55 -18.5t-16 -58.5v-11h142v-111h-142v-389h-132z" />
    <glyph glyph-name="fi" unicode="fi" horiz-adv-x="666" 
d="M451 643q0 36 24 60.5t60 24.5t60.5 -24.5t24.5 -60.5t-24.5 -60t-60.5 -24t-60 24t-24 60zM469 500h132v-500h-132v500zM384 389h-142v-389h-132v389h-101v111h101v25q0 93 49.5 139.5t131.5 46.5q39 0 98 -9v-122q-50 8 -76 8q-39 0 -55 -18.5t-16 -58.5v-11h142v-111z
" />
    <glyph glyph-name="fl" unicode="fl" horiz-adv-x="652" 
d="M462 700h133v-700h-133v700zM384 389h-142v-389h-132v389h-101v111h101v25q0 93 49.5 139.5t131.5 46.5q39 0 98 -9v-122q-50 8 -76 8q-39 0 -55 -18.5t-16 -58.5v-11h142v-111z" />
    <glyph glyph-name="ffi" unicode="ffi" horiz-adv-x="1052" 
d="M837 643q0 36 24 60.5t60 24.5t60.5 -24.5t24.5 -60.5t-24.5 -60t-60.5 -24t-60 24t-24 60zM855 500h132v-500h-132v500zM505 0v389h-263v-389h-132v389h-101v111h101v25q0 93 49.5 139.5t131.5 46.5q39 0 98 -9v-122q-50 8 -76 8q-39 0 -55 -18.5t-16 -58.5v-11h263v25
q0 93 49.5 139.5t131.5 46.5q39 0 98 -9v-122q-50 8 -76 8q-39 0 -55 -18.5t-16 -58.5v-11h142v-111h-142v-389h-132z" />
    <glyph glyph-name="ffl" unicode="ffl" horiz-adv-x="1044" 
d="M848 700h133v-700h-133v700zM505 0v389h-263v-389h-132v389h-101v111h101v25q0 93 49.5 139.5t131.5 46.5q39 0 98 -9v-122q-50 8 -76 8q-39 0 -55 -18.5t-16 -58.5v-11h263v25q0 93 49.5 139.5t131.5 46.5q39 0 98 -9v-122q-50 8 -76 8q-39 0 -55 -18.5t-16 -58.5v-11
h142v-111h-142v-389h-132z" />
    <glyph glyph-name=".notdef" horiz-adv-x="873" 
d="M285 580h34l-64 -95v-68h-30v68l-65 95h34l46 -64zM606 474q0 11 -2.5 19t-11.5 19.5t-34 17.5t-63 6q-39 0 -101 -12v-171q0 -11 -10 -18.5t-22 -10.5t-22 -9t-10 -14q0 -16 22 -16q23 0 70.5 8.5t73.5 8.5q65 0 110 -25v197zM408 414q0 35 22.5 57.5t56.5 22.5
q36 0 58.5 -22.5t22.5 -57.5t-22.5 -58t-58.5 -23q-34 0 -56.5 23t-22.5 58zM540 414q0 22 -15 36.5t-38 14.5q-22 0 -36.5 -14.5t-14.5 -36.5t14.5 -37t36.5 -15q23 0 38 15t15 37zM365 577q0 28 -22.5 41.5t-52.5 13.5q-65 0 -176 -45v-230q110 42 176 42q44 0 75 -14v192
zM684 373h29v-100h-29v100zM58 676q0 16 10.5 26t26.5 10q15 0 26 -10.5t11 -25.5q0 -24 -18 -34v-24q103 42 176 42q42 0 73 -21.5t31 -61.5v-25q55 12 102 12q138 0 138 -83v-48q48 12 77 12q112 0 112 -79v-240q-52 32 -112 32q-19 0 -58 -10t-60 -10q-48 0 -48 46v86
q-23 5 -49 5q-23 0 -70.5 -9t-73.5 -9q-22 0 -35 12.5t-13 33.5v68h-14q-62 0 -176 -44v-327h-39v643q-17 11 -17 33zM364 352q0 11 -32 16v-32q5 3 13.5 5.5t13.5 4.5t5 6zM606 238q0 15 -34 26v-47q6 4 15 7.5t14 6.5t5 7zM679 231q0 19 20 19q19 0 19 -19q0 -20 -19 -20
q-20 0 -20 20zM796 365q0 29 -21.5 40t-63.5 11q-29 0 -77 -12v-167q0 -19 -31 -31.5t-31 -24.5q0 -16 21 -16q19 0 58.5 10.5t60.5 10.5q42 0 84 -15v194z" />
    <glyph glyph-name=".null" horiz-adv-x="0" 
 />
    <glyph glyph-name="nonmarkingreturn" horiz-adv-x="333" 
 />
    <glyph glyph-name="NULL" horiz-adv-x="0" 
 />
    <glyph glyph-name="NULL" horiz-adv-x="0" 
 />
    <glyph glyph-name="space" unicode=" " horiz-adv-x="284" 
 />
    <glyph glyph-name="exclam" unicode="!" horiz-adv-x="362" 
d="M111 700h140v-458h-140v458zM181 190q41 0 68.5 -27.5t27.5 -67.5t-27.5 -67.5t-68.5 -27.5q-40 0 -67 27t-27 68t27 68t67 27z" />
    <glyph glyph-name="quotedbl" unicode="&#x22;" horiz-adv-x="431" 
d="M70 700h116v-282h-116v282zM245 700h116v-282h-116v282z" />
    <glyph glyph-name="numbersign" unicode="#" horiz-adv-x="609" 
d="M354 289l19 133h-108l-20 -133h109zM311 0l29 196h-109l-29 -196h-94l29 196h-107l14 93h107l19 133h-107l14 93h107l27 185h95l-27 -185h108l27 185h95l-27 -185h97l-14 -93h-97l-20 -133h98l-14 -93h-98l-29 -196h-94z" />
    <glyph glyph-name="dollar" unicode="$" horiz-adv-x="561" 
d="M195 498q0 -40 53 -62v121q-53 -14 -53 -59zM367 203q0 41 -54 64v-124q54 12 54 60zM313 -80h-65v82q-76 7 -130 51t-71 124l125 54q17 -74 76 -87v144l-5 2q-39 12 -67.5 26t-58.5 38t-46 60.5t-16 84.5q0 85 53.5 138t139.5 61v82h65v-82q78 -8 131 -53t70 -122
l-127 -51q-16 71 -74 84v-143q1 -1 5 -2t5 -1q86 -28 135 -73.5t49 -133.5q0 -87 -53.5 -139.5t-140.5 -61.5v-82z" />
    <glyph glyph-name="percent" unicode="%" horiz-adv-x="824" 
d="M95 29l562 696l65 -54l-562 -696zM197 700q69 0 115.5 -46.5t46.5 -115.5t-46.5 -115.5t-115.5 -46.5t-115.5 46.5t-46.5 115.5t46.5 115.5t115.5 46.5zM268 538q0 31 -20 51t-51 20t-51 -20t-20 -51t20 -51t51 -20t51 20t20 51zM465 162q0 69 46.5 115.5t115.5 46.5
t115.5 -46.5t46.5 -115.5t-46.5 -115.5t-115.5 -46.5t-115.5 46.5t-46.5 115.5zM627 233q-31 0 -51 -20t-20 -51t20 -51t51 -20t51 20t20 51t-20 51t-51 20z" />
    <glyph glyph-name="ampersand" unicode="&#x26;" horiz-adv-x="753" 
d="M291 479l20 -22q56 37 56 80q0 26 -14.5 40.5t-37.5 14.5t-38 -14.5t-15 -37.5q0 -30 29 -61zM307 119q55 0 106 37l-133 143q-36 -21 -53.5 -42t-17.5 -52q0 -39 25.5 -62.5t72.5 -23.5zM562 -5l-60 65q-88 -72 -198 -72q-105 0 -167 57.5t-62 152.5q0 67 31.5 111.5
t88.5 81.5q-34 36 -52 70.5t-18 79.5q0 73 51.5 122.5t138.5 49.5q83 0 133.5 -47.5t50.5 -126.5q0 -104 -102 -173l102 -108q24 36 51 96l111 -65q-35 -77 -70 -128l68 -73z" />
    <glyph glyph-name="quotesingle" unicode="'" horiz-adv-x="256" 
d="M70 700h116v-282h-116v282z" />
    <glyph glyph-name="parenleft" unicode="(" horiz-adv-x="356" 
d="M53 321q0 138 49.5 259.5t141.5 215.5l92 -81q-76 -90 -115 -183t-39 -211q0 -228 154 -410l-93 -81q-90 93 -140 224.5t-50 266.5z" />
    <glyph glyph-name="parenright" unicode=")" horiz-adv-x="354" 
d="M112 796q92 -94 141.5 -215.5t49.5 -259.5q0 -135 -50 -266.5t-140 -224.5l-93 81q154 182 154 410q0 118 -39 211t-115 183z" />
    <glyph glyph-name="asterisk" unicode="*" horiz-adv-x="459" 
d="M178 720h103v-114l108 35l32 -97l-109 -35l67 -92l-82 -61l-68 92l-67 -92l-83 61l67 92l-108 35l32 97l108 -35v114z" />
    <glyph glyph-name="plus" unicode="+" 
d="M250 589h140v-200h200v-140h-200v-199h-140v199h-200v140h200v200z" />
    <glyph glyph-name="comma" unicode="," horiz-adv-x="330" 
d="M13 -145l184 332l103 -57l-184 -330z" />
    <glyph glyph-name="hyphen" unicode="-" horiz-adv-x="626" 
d="M80 370h466v-140h-466v140z" />
    <glyph glyph-name="period" unicode="." horiz-adv-x="325" 
d="M162 190q41 0 68.5 -27.5t27.5 -67.5t-27.5 -67.5t-68.5 -27.5q-40 0 -67 27t-27 68t27 68t67 27z" />
    <glyph glyph-name="slash" unicode="/" horiz-adv-x="902" 
d="M45 -1l705 792l102 -91l-704 -791z" />
    <glyph glyph-name="zero" unicode="0" horiz-adv-x="776" 
d="M54 350q0 154 96 252t238 98t238 -98t96 -252t-96 -252t-238 -98t-238 98t-96 252zM582 350q0 95 -54.5 152.5t-139.5 57.5q-86 0 -140 -57t-54 -153t54 -153t140 -57q85 0 139.5 57.5t54.5 152.5zM307 350q0 34 23.5 57.5t57.5 23.5t58 -23.5t24 -57.5t-24 -57.5
t-58 -23.5t-57.5 23.5t-23.5 57.5z" />
    <glyph glyph-name="one" unicode="1" horiz-adv-x="489" 
d="M273 700h118v-700h-140v483l-133 -131l-97 101z" />
    <glyph glyph-name="two" unicode="2" horiz-adv-x="567" 
d="M32 549q83 151 247 151q104 0 169 -62t65 -161q0 -109 -83 -188l-153 -149h236v-140h-461v112l268 260q53 51 53 97q0 40 -27.5 65.5t-69.5 25.5q-46 0 -82 -28t-57 -69z" />
    <glyph glyph-name="three" unicode="3" horiz-adv-x="558" 
d="M32 587q30 49 90.5 81t138.5 32q110 0 173.5 -54t63.5 -140q0 -59 -28.5 -99t-69.5 -57q42 -17 70 -57t28 -99q0 -88 -63 -141t-174 -53q-79 0 -140 32.5t-90 83.5l96 104q46 -80 135 -80q45 0 70.5 18.5t25.5 52.5q0 32 -25 51t-68 20h-53v137h53q43 1 68 20t25 51
q0 33 -26 51.5t-70 18.5q-86 0 -135 -79z" />
    <glyph glyph-name="four" unicode="4" horiz-adv-x="680" 
d="M419 700h115v-449h104v-140h-104v-111h-140v111h-364v120zM394 251v202l-166 -202h166z" />
    <glyph glyph-name="five" unicode="5" horiz-adv-x="569" 
d="M80 700h434v-140h-294v-84q16 4 40 4q116 0 185 -62t69 -174q0 -116 -72 -180t-186 -64q-62 0 -121.5 18t-99.5 45l59 126q83 -49 161 -49q51 0 84.5 26t33.5 75q0 100 -141 100q-65 0 -152 -22v381z" />
    <glyph glyph-name="six" unicode="6" horiz-adv-x="578" 
d="M298 0q-140 0 -206 108q-47 78 -47 214q0 60 9 113.5t31 102.5t55 84.5t83.5 56.5t113.5 21q77 0 169 -43l-55 -127q-65 30 -122 30q-58 0 -93.5 -35t-39.5 -83v-2q56 32 110 32q97 0 162.5 -63.5t65.5 -169.5q0 -107 -67 -173t-169 -66zM293 332q-45 0 -73.5 -26.5
t-28.5 -69.5q0 -44 29 -70t73 -26t72.5 27t28.5 70q0 42 -28 68.5t-73 26.5z" />
    <glyph glyph-name="seven" unicode="7" horiz-adv-x="547" 
d="M37 700h477v-117l-305 -583h-158l294 560h-308v140z" />
    <glyph glyph-name="eight" unicode="8" horiz-adv-x="579" 
d="M60 508q0 87 64 139.5t165 52.5q102 0 166 -52.5t64 -138.5q0 -50 -24.5 -92t-70.5 -67q46 -25 70.5 -67t24.5 -91q0 -87 -64 -139.5t-166 -52.5q-101 0 -165 52.5t-64 139.5q0 51 24 93t69 65q-93 49 -93 158zM379 491q0 31 -24.5 50t-64.5 19q-41 0 -65.5 -19
t-24.5 -50q0 -32 25 -51.5t65 -19.5q39 0 64 19.5t25 51.5zM379 209q0 33 -25 52t-64 19q-40 0 -65 -19t-25 -52q0 -31 24.5 -50t65.5 -19q40 0 64.5 19t24.5 50z" />
    <glyph glyph-name="nine" unicode="9" horiz-adv-x="579" 
d="M393 465q0 43 -29 69t-73 26t-72.5 -27t-28.5 -70t28 -69t73 -26t73.5 27t28.5 70zM50 459q0 108 68.5 174.5t175.5 66.5q122 0 187 -89q58 -81 58 -238q0 -80 -15.5 -145.5t-48 -117.5t-89.5 -81t-135 -29q-87 0 -177 42l50 127q64 -29 128 -29q61 0 95.5 35t38.5 83v1
q-55 -31 -110 -31q-96 0 -161 62.5t-65 168.5z" />
    <glyph glyph-name="colon" unicode=":" horiz-adv-x="325" 
d="M162 512q41 0 68.5 -27.5t27.5 -67.5t-27.5 -67.5t-68.5 -27.5q-40 0 -67 27t-27 68t27 68t67 27zM162 190q41 0 68.5 -27.5t27.5 -67.5t-27.5 -67.5t-68.5 -27.5q-40 0 -67 27t-27 68t27 68t67 27z" />
    <glyph glyph-name="semicolon" unicode=";" horiz-adv-x="414" 
d="M150 417q0 41 27 68t68 27t68 -27t27 -68t-27 -68t-68 -27t-68 27t-27 68zM11 -145l184 332l104 -57l-184 -330z" />
    <glyph glyph-name="less" unicode="&#x3c;" 
d="M66 397l450 190l57 -136l-333 -132l333 -133l-57 -136l-450 190v157z" />
    <glyph glyph-name="equal" unicode="=" 
d="M48 487h544v-140h-544v140zM48 253h544v-140h-544v140z" />
    <glyph glyph-name="greater" unicode="&#x3e;" 
d="M123 587l450 -190v-157l-450 -190l-57 136l333 133l-333 132z" />
    <glyph glyph-name="question" unicode="?" horiz-adv-x="557" 
d="M50 474q0 108 58.5 167t160.5 59q96 0 152 -54.5t56 -141.5q0 -54 -20.5 -88t-58.5 -68q-2 -2 -18 -15t-19 -16l-14 -14.5t-13.5 -18t-6 -18t-3.5 -23.5v-12h-140v39q0 34 17 65t33.5 46.5t46.5 39.5q56 42 56 75q0 28 -18 46t-53 18q-38 0 -59 -22t-21 -64h-136z
M258 190q41 0 68.5 -27.5t27.5 -67.5t-27.5 -67.5t-68.5 -27.5q-40 0 -67 27t-27 68t27 68t67 27z" />
    <glyph glyph-name="at" unicode="@" horiz-adv-x="965" 
d="M895 351q0 -118 -53.5 -189t-142.5 -71q-87 0 -111 77q-48 -77 -137 -77q-63 0 -102.5 38.5t-39.5 94.5q0 54 37 86.5t91 38.5l116 12q0 32 -16 46.5t-51 14.5q-69 0 -91 -54l-83 52q44 101 177 101q87 0 130 -44t43 -119v-120q0 -45 36 -45t56 40.5t20 109.5
q0 108 -73.5 181t-208.5 73q-141 0 -221 -83.5t-80 -211.5q0 -131 81 -214t221 -83q96 0 192 30l14 -112q-98 -32 -206 -32q-191 0 -307 117.5t-116 293.5q0 174 115.5 292t307.5 118q182 0 292 -101.5t110 -259.5zM467 188q35 0 61 21t26 56v13l-95 -13q-18 -2 -29 -13
t-11 -27q0 -37 48 -37z" />
    <glyph glyph-name="A" unicode="A" horiz-adv-x="792" 
d="M396 508l-119 -258h238zM631 0l-51 110h-368l-51 -110h-154l324 700h130l324 -700h-154z" />
    <glyph glyph-name="B" unicode="B" horiz-adv-x="627" 
d="M74 700h298q97 0 153 -55t56 -142q0 -110 -87 -153q87 -44 87 -153q0 -87 -56 -142t-153 -55h-298v700zM441 492q0 30 -19.5 49t-52.5 19h-155v-140h155q32 0 52 20t20 52zM441 208q0 33 -20 52.5t-52 19.5h-155v-140h155q33 0 52.5 18.5t19.5 49.5z" />
    <glyph glyph-name="C" unicode="C" horiz-adv-x="650" 
d="M38 351q0 149 100 249t249 100q150 0 254 -96l-67 -129q-80 85 -187 85q-91 0 -150 -58.5t-59 -151.5q0 -92 59 -151t149 -59q71 0 136 33l30 -137q-86 -36 -166 -36q-147 0 -247.5 100.5t-100.5 250.5z" />
    <glyph glyph-name="D" unicode="D" horiz-adv-x="708" 
d="M74 700h254q148 0 245.5 -99t97.5 -251t-97.5 -251t-245.5 -99h-254v700zM531 350q0 91 -57 150.5t-146 59.5h-114v-420h114q89 0 146 59.5t57 150.5z" />
    <glyph glyph-name="E" unicode="E" horiz-adv-x="581" 
d="M74 700h452v-140h-312v-140h312v-140h-312v-140h312v-140h-452v700z" />
    <glyph glyph-name="F" unicode="F" horiz-adv-x="559" 
d="M74 700h452v-140h-312v-140h312v-140h-312v-280h-140v700z" />
    <glyph glyph-name="G" unicode="G" horiz-adv-x="653" 
d="M38 349q0 152 99 251.5t254 99.5q146 0 250 -96l-67 -129q-80 85 -186 85q-93 0 -151.5 -58.5t-58.5 -151.5t58.5 -151.5t152.5 -58.5q15 0 28 3v114h-131v140h271v-369q-91 -28 -168 -28q-153 0 -252 98.5t-99 250.5z" />
    <glyph glyph-name="H" unicode="H" horiz-adv-x="734" 
d="M521 700h140v-700h-140v280h-307v-280h-140v700h140v-280h307v280z" />
    <glyph glyph-name="I" unicode="I" horiz-adv-x="288" 
d="M74 700h140v-700h-140v700z" />
    <glyph glyph-name="J" unicode="J" horiz-adv-x="521" 
d="M318 700h140v-459q0 -116 -63 -178.5t-163 -62.5q-104 0 -163.5 63.5t-59.5 153.5l127 57q0 -134 97 -134q85 0 85 102v458z" />
    <glyph glyph-name="K" unicode="K" horiz-adv-x="705" 
d="M528 0l-226 294l-88 -88v-206h-140v700h140v-295l294 295h197l-304 -306l305 -394h-178z" />
    <glyph glyph-name="L" unicode="L" horiz-adv-x="541" 
d="M74 700h140v-560h318v-140h-458v700z" />
    <glyph glyph-name="M" unicode="M" horiz-adv-x="1007" 
d="M214 407v-407h-140v700h135l295 -517l294 517h135v-700h-140v407l-232 -407h-115z" />
    <glyph glyph-name="N" unicode="N" horiz-adv-x="780" 
d="M570 700h140v-700h-122l-378 460v-460h-140v700h122l378 -460v460z" />
    <glyph glyph-name="O" unicode="O" horiz-adv-x="775" 
d="M38 350q0 150 100 250t250 100t250 -100t100 -250t-100 -250t-250 -100t-250 100t-100 250zM598 350q0 92 -59 151t-151 59t-151 -59t-59 -151t59 -151t151 -59t151 59t59 151z" />
    <glyph glyph-name="P" unicode="P" horiz-adv-x="618" 
d="M74 700h274q107 0 176.5 -69.5t69.5 -175.5t-69.5 -175t-176.5 -69h-134v-211h-140v700zM454 455q0 47 -28.5 76t-77.5 29h-134v-209h134q49 0 77.5 29t28.5 75z" />
    <glyph glyph-name="Q" unicode="Q" horiz-adv-x="813" 
d="M749 -112l-167 167q-86 -55 -194 -55q-150 0 -250 100t-100 250t100 250t250 100t250 -100t100 -250q0 -110 -57 -197l164 -165zM388 140q50 0 90 18l-155 155l96 102l159 -159q20 43 20 94q0 92 -59 151t-151 59t-151 -59t-59 -151t59 -151t151 -59z" />
    <glyph glyph-name="R" unicode="R" horiz-adv-x="687" 
d="M507 -1l-132 212h-161v-211h-140v700h306q108 0 177.5 -69.5t69.5 -174.5q0 -67 -29.5 -121.5t-81.5 -86.5l156 -248zM214 351h73l-21 34l120 70l55 -88q46 28 46 89q0 46 -29 75t-78 29h-166v-209z" />
    <glyph glyph-name="S" unicode="S" horiz-adv-x="553" 
d="M51 499q0 93 63.5 147t162.5 54q90 0 152.5 -46t80.5 -131l-127 -51q-20 88 -107 88q-41 0 -63 -17.5t-22 -44.5q0 -32 27 -48.5t87 -35.5q9 -2 14 -4q86 -28 135 -73.5t49 -133.5q0 -95 -63.5 -149t-162.5 -54q-87 0 -151 44t-83 133l125 54q21 -91 110 -91
q40 0 62.5 17t22.5 46q0 14 -6.5 26t-15 19.5t-25.5 15t-30 12t-37 11.5q-7 2 -10 3q-39 12 -67.5 26t-58.5 38t-46 60.5t-16 84.5z" />
    <glyph glyph-name="T" unicode="T" horiz-adv-x="656" 
d="M651 560h-253v-560h-140v560h-253v140h646v-140z" />
    <glyph glyph-name="U" unicode="U" horiz-adv-x="767" 
d="M569 700h140v-376q0 -143 -92 -233.5t-233 -90.5t-233.5 90.5t-92.5 233.5v376h140v-376q0 -84 52.5 -134t133.5 -50t133 50t52 134v376z" />
    <glyph glyph-name="V" unicode="V" horiz-adv-x="783" 
d="M453 0h-123l-331 700h155l238 -503l237 503h155z" />
    <glyph glyph-name="W" unicode="W" horiz-adv-x="1240" 
d="M412 0h-131l-271 700h150l189 -488l202 488h138l202 -488l189 488h150l-271 -700h-131l-208 499z" />
    <glyph glyph-name="X" unicode="X" horiz-adv-x="765" 
d="M190 0h-181l283 350l-283 350h180l193 -238l193 238h181l-283 -350l283 -350h-181l-192 238z" />
    <glyph glyph-name="Y" unicode="Y" horiz-adv-x="710" 
d="M425 0h-140v271l-286 429h169l187 -280l187 280h169l-286 -429v-271z" />
    <glyph glyph-name="Z" unicode="Z" horiz-adv-x="665" 
d="M47 700h571v-101l-362 -459h362v-140h-571v101l362 459h-362v140z" />
    <glyph glyph-name="bracketleft" unicode="[" horiz-adv-x="346" 
d="M91 761h241v-115h-119v-665h119v-115h-241v895z" />
    <glyph glyph-name="backslash" unicode="\" horiz-adv-x="902" 
d="M45 700l101 91l706 -792l-103 -90z" />
    <glyph glyph-name="bracketright" unicode="]" horiz-adv-x="346" 
d="M14 761h241v-895h-241v115h119v665h-119v115z" />
    <glyph glyph-name="asciicircum" unicode="^" horiz-adv-x="477" 
d="M167 714h143l147 -270l-115 -59l-104 193l-104 -193l-114 59z" />
    <glyph glyph-name="underscore" unicode="_" horiz-adv-x="598" 
d="M30 16h538v-122h-538v122z" />
    <glyph glyph-name="grave" unicode="`" horiz-adv-x="383" 
d="M50 675l59 93l224 -136l-58 -93z" />
    <glyph glyph-name="a" unicode="a" horiz-adv-x="538" 
d="M352 202v20l-124 -15q-62 -9 -62 -55q0 -24 18.5 -38.5t52.5 -14.5q51 0 83 30t32 73zM42 398q50 113 223 113q110 0 164.5 -49.5t54.5 -153.5v-309h-132v68q-51 -78 -154 -78q-74 0 -121.5 43.5t-47.5 112.5q0 67 44.5 108.5t115.5 48.5l137 12q26 3 26 20v8
q0 23 -22 36.5t-65 13.5q-100 0 -125 -64z" />
    <glyph glyph-name="b" unicode="b" horiz-adv-x="611" 
d="M58 700h132v-272q60 85 168 85q96 0 161 -70.5t65 -192.5t-65.5 -192.5t-162.5 -70.5q-107 0 -166 83v-70h-132v700zM448 250q0 60 -37 97t-94 37t-94 -36.5t-37 -97.5q0 -60 37 -97t94 -37t94 37t37 97z" />
    <glyph glyph-name="c" unicode="c" horiz-adv-x="502" 
d="M27 250q0 117 75 189.5t192 72.5t190 -73l-75 -106q-50 50 -115 50q-57 0 -94 -37t-37 -96t37.5 -96t93.5 -37q67 0 118 51l73 -106q-74 -74 -193 -74q-116 0 -190.5 72t-74.5 190z" />
    <glyph glyph-name="d" unicode="d" horiz-adv-x="611" 
d="M294 384q-57 0 -94 -37t-37 -97t37 -97t94 -37t94 37t37 97q0 61 -37 97.5t-94 36.5zM421 700h132v-700h-132v70q-59 -83 -166 -83q-97 0 -162.5 70.5t-65.5 192.5t65 192.5t161 70.5q108 0 168 -85v272z" />
    <glyph glyph-name="e" unicode="e" horiz-adv-x="555" 
d="M27 250q0 113 70 187.5t186 74.5q114 0 180.5 -72.5t66.5 -193.5v-36h-368l1 -2q11 -47 49 -71.5t85 -24.5q83 0 142 51l55 -109q-80 -66 -199 -66q-124 0 -196 73.5t-72 188.5zM386 306q-5 42 -32.5 68t-74.5 26t-77.5 -24.5t-40.5 -69.5h225z" />
    <glyph glyph-name="f" unicode="f" horiz-adv-x="404" 
d="M384 389h-142v-389h-132v389h-101v111h101v25q0 93 49.5 139.5t131.5 46.5q39 0 98 -9v-122q-50 8 -76 8q-39 0 -55 -18.5t-16 -58.5v-11h142v-111z" />
    <glyph glyph-name="g" unicode="g" horiz-adv-x="617" 
d="M428 250q0 61 -36.5 97.5t-93.5 36.5t-94 -37t-37 -97t37 -97t94 -37t93.5 36.5t36.5 97.5zM31 252q0 121 67 190.5t164 69.5q55 0 98 -23t65 -59v70h132v-467q0 -109 -63 -177.5t-209 -68.5q-137 0 -221 78l65 109q65 -63 151 -63q147 0 147 129v32q-54 -77 -161 -77
q-103 0 -169 68t-66 189z" />
    <glyph glyph-name="h" unicode="h" horiz-adv-x="581" 
d="M58 700h132v-272q54 84 158 84q87 0 132 -53t45 -149v-310h-135v277q0 108 -91 108q-109 0 -109 -146v-239h-132v700z" />
    <glyph glyph-name="i" unicode="i" horiz-adv-x="262" 
d="M47 643q0 36 24 60.5t60 24.5t60.5 -24.5t24.5 -60.5t-24.5 -60t-60.5 -24t-60 24t-24 60zM65 500h132v-500h-132v500z" />
    <glyph glyph-name="j" unicode="j" horiz-adv-x="277" 
d="M60 643q0 36 24 60.5t60 24.5t60.5 -24.5t24.5 -60.5t-24.5 -60t-60.5 -24t-60 24t-24 60zM78 500h132v-515q0 -190 -209 -190q-23 0 -37 1v122h14q58 0 79 18.5t21 60.5v503z" />
    <glyph glyph-name="k" unicode="k" horiz-adv-x="553" 
d="M376 0l-134 196l-52 -51v-145h-132v700h132v-392l181 192h175l-215 -215l215 -285h-170z" />
    <glyph glyph-name="l" unicode="l" horiz-adv-x="248" 
d="M58 700h133v-700h-133v700z" />
    <glyph glyph-name="m" unicode="m" horiz-adv-x="914" 
d="M497 419q52 93 168 93q88 0 138.5 -55.5t50.5 -152.5v-304h-133v277q0 108 -90 108q-110 0 -110 -146v-239h-132v277q0 108 -91 108q-108 0 -108 -146v-239h-132v500h128v-73q53 85 156 85q112 0 155 -93z" />
    <glyph glyph-name="n" unicode="n" horiz-adv-x="585" 
d="M186 428q60 84 162 84q87 0 132 -53t45 -149v-310h-135v277q0 108 -91 108q-109 0 -109 -146v-239h-132v500h128v-72z" />
    <glyph glyph-name="o" unicode="o" horiz-adv-x="592" 
d="M27 250q0 116 76 189t193 73t193 -73t76 -189t-76 -189t-193 -73t-193 73t-76 189zM429 250q0 59 -38 96t-95 37t-95 -37t-38 -96t38 -96t95 -37t95 37t38 96z" />
    <glyph glyph-name="p" unicode="p" horiz-adv-x="611" 
d="M317 116q57 0 94 37t37 97t-37 97t-94 37t-94 -37t-37 -97q0 -61 37 -97.5t94 -36.5zM190 -200h-132v700h132v-70q59 83 166 83q97 0 162.5 -70.5t65.5 -192.5t-65 -192.5t-161 -70.5q-108 0 -168 85v-272z" />
    <glyph glyph-name="q" unicode="q" horiz-adv-x="611" 
d="M553 -200h-132v272q-60 -85 -168 -85q-96 0 -161 70.5t-65 192.5t65.5 192.5t162.5 70.5q107 0 166 -83v70h132v-700zM163 250q0 -60 37 -97t94 -37t94 36.5t37 97.5q0 60 -37 97t-94 37t-94 -37t-37 -97z" />
    <glyph glyph-name="r" unicode="r" horiz-adv-x="386" 
d="M185 418q44 94 142 94q21 0 49 -7v-142q-24 8 -60 8q-126 0 -126 -145v-226h-132v500h127v-82z" />
    <glyph glyph-name="s" unicode="s" horiz-adv-x="478" 
d="M46 353q0 75 56 117t155 42q127 0 199 -74l-74 -96q-21 23 -58 37t-77 14q-64 0 -64 -35q0 -18 21.5 -26t94.5 -24q76 -17 118 -51t42 -106q0 -163 -216 -163q-157 0 -222 83l77 100q54 -65 158 -65q67 0 67 38q0 19 -21 27.5t-90 23.5q-166 34 -166 158z" />
    <glyph glyph-name="t" unicode="t" horiz-adv-x="394" 
d="M358 10q-62 -15 -108 -15q-72 0 -109.5 37.5t-37.5 120.5v236h-91v111h91v134h132v-134h127v-111h-127v-217q0 -45 50 -45q25 0 73 8v-125z" />
    <glyph glyph-name="u" unicode="u" horiz-adv-x="578" 
d="M385 500h133v-500h-128v76q-59 -88 -159 -88q-85 0 -129 53.5t-44 147.5v311h135v-278q0 -107 84 -107q54 0 81 39.5t27 106.5v239z" />
    <glyph glyph-name="v" unicode="v" horiz-adv-x="544" 
d="M322 0h-100l-225 500h148l127 -310l128 310h147z" />
    <glyph glyph-name="w" unicode="w" horiz-adv-x="851" 
d="M300 0h-100l-203 500h144l112 -298l119 298h107l120 -298l111 298h144l-203 -500h-100l-125 297z" />
    <glyph glyph-name="x" unicode="x" horiz-adv-x="563" 
d="M397 0l-115 151l-116 -151h-159l195 256l-187 244h159l107 -140l107 140h160l-187 -245l195 -255h-159z" />
    <glyph glyph-name="y" unicode="y" horiz-adv-x="538" 
d="M227 -200h-140l122 272l-212 428h154l128 -274l123 274h140z" />
    <glyph glyph-name="z" unicode="z" horiz-adv-x="488" 
d="M42 500h414v-103l-253 -275h261v-122h-440v103l252 275h-234v122z" />
    <glyph glyph-name="braceleft" unicode="{" horiz-adv-x="382" 
d="M325 761h47v-116h-46q-26 0 -42 -14t-16 -40v-160q0 -94 -80 -115q80 -21 80 -111v-169q0 -26 16 -40t42 -14h46v-116h-47q-178 0 -178 159v159q0 34 -25 50.5t-81 17.5v121q106 3 106 76v154q0 158 178 158z" />
    <glyph glyph-name="bar" unicode="|" horiz-adv-x="322" 
d="M100 761h122v-895h-122v895z" />
    <glyph glyph-name="braceright" unicode="}" horiz-adv-x="382" 
d="M10 761h47q178 0 178 -158v-154q0 -73 106 -76v-121q-56 -1 -81 -17.5t-25 -50.5v-159q0 -159 -178 -159h-47v116h46q26 0 42 14t16 40v169q0 90 80 111q-80 21 -80 115v160q0 26 -16 40t-42 14h-46v116z" />
    <glyph glyph-name="asciitilde" unicode="~" horiz-adv-x="755" 
d="M70 328q107 95 190 95q42 0 87.5 -20.5t83 -41t61.5 -20.5q41 0 113 63l80 -91q-111 -109 -192 -109q-51 0 -128 41t-103 41q-38 0 -112 -63z" />
    <glyph glyph-name="exclamdown" unicode="&#xa1;" horiz-adv-x="362" 
d="M277 405q0 -40 -27.5 -67.5t-68.5 -27.5q-40 0 -67 27t-27 68t27 68t67 27q41 0 68.5 -27.5t27.5 -67.5zM251 -200h-140v458h140v-458z" />
    <glyph glyph-name="cent" unicode="&#xa2;" horiz-adv-x="502" 
d="M485 62q-66 -66 -168 -73v-66h-65v67q-101 13 -163 83t-62 177q0 106 62.5 176t162.5 83v70h65v-68q102 -7 167 -72l-75 -106q-42 42 -92 48v-262q53 7 95 49zM163 250q0 -47 24.5 -81t64.5 -46v254q-40 -12 -64.5 -46t-24.5 -81z" />
    <glyph glyph-name="sterling" unicode="&#xa3;" horiz-adv-x="633" 
d="M607 92q-38 -44 -84 -68t-124 -24h-334v126q79 11 79 85v120h-84v72h84v93q0 91 54 147.5t155 56.5q119 0 198 -103l-92 -99q-43 64 -98 64q-77 0 -77 -81v-78h172v-72h-172v-111q0 -57 -37 -82h152q49 0 81 18t63 54z" />
    <glyph glyph-name="currency" unicode="&#xa4;" horiz-adv-x="533" 
d="M266 433q-36 0 -62 -26t-26 -63t26 -63t62 -26q37 0 63.5 26t26.5 63t-26.5 63t-63.5 26zM266 131q-72 0 -126 42l-70 -70l-46 46l71 70q-40 56 -40 125q0 71 41 126l-73 74l45 46l73 -74q55 41 125 41q68 0 124 -40l74 74l46 -46l-74 -73q42 -58 42 -128q0 -68 -38 -123
l70 -71l-46 -46l-69 71q-57 -44 -129 -44z" />
    <glyph glyph-name="yen" unicode="&#xa5;" horiz-adv-x="710" 
d="M590 129h-165v-129h-140v129h-165v75h165v62h-165v75h118l-239 359h169l187 -280l187 280h169l-239 -359h118v-75h-165v-62h165v-75z" />
    <glyph glyph-name="brokenbar" unicode="&#xa6;" horiz-adv-x="322" 
d="M100 761h122v-388h-122v388zM100 284h122v-418h-122v418z" />
    <glyph glyph-name="section" unicode="&#xa7;" horiz-adv-x="552" 
d="M252 343q-62 -21 -62 -62q0 -7 1.5 -12.5t5.5 -11t8 -9.5t12 -9l13 -8t16 -8t17 -7.5t19 -7.5t19 -8q27 9 44 25t17 37q0 7 -1.5 12.5t-5.5 11t-7.5 9.5t-11.5 9l-13 8t-16 8l-16.5 7.5t-19 8t-19.5 7.5zM284 712q125 0 211 -93l-86 -99q-20 25 -55.5 43.5t-72.5 18.5
q-31 0 -48.5 -13.5t-17.5 -33.5q0 -23 29.5 -41t71.5 -33.5t84 -36t71.5 -60t29.5 -94.5q0 -91 -75 -138q50 -48 50 -120q0 -79 -55.5 -130t-151.5 -51q-125 0 -212 93l87 98q19 -25 54 -43t73 -18q32 0 49 13.5t17 34.5q0 24 -29.5 42t-71.5 33t-84 35.5t-71.5 59.5
t-29.5 94q0 92 76 138q-51 48 -51 121q0 80 56.5 130t151.5 50z" />
    <glyph glyph-name="dieresis" unicode="&#xa8;" horiz-adv-x="462" 
d="M50 644q0 33 22.5 55.5t55.5 22.5t55.5 -22.5t22.5 -55.5t-22.5 -55.5t-55.5 -22.5t-55.5 22.5t-22.5 55.5zM256 644q0 33 22.5 55.5t55.5 22.5t55.5 -22.5t22.5 -55.5t-22.5 -55.5t-55.5 -22.5t-55.5 22.5t-22.5 55.5z" />
    <glyph glyph-name="copyright" unicode="&#xa9;" horiz-adv-x="824" 
d="M50 350q0 155 103 258.5t259 103.5t259 -103.5t103 -258.5t-103 -258.5t-259 -103.5t-259 103.5t-103 258.5zM687 350q0 121 -77 198t-198 77t-197.5 -77t-76.5 -198t76.5 -197.5t197.5 -76.5t198 76.5t77 197.5zM223 352q0 84 56.5 140.5t140.5 56.5q87 0 146 -65
l-39 -67q-50 52 -108 52q-49 0 -82.5 -32.5t-33.5 -84.5q0 -53 33.5 -85.5t83.5 -32.5q55 0 107 50l39 -67q-58 -63 -145 -63q-85 0 -141.5 56.5t-56.5 141.5z" />
    <glyph glyph-name="ordfeminine" unicode="&#xaa;" horiz-adv-x="458" 
d="M166 453q0 -36 49 -36q37 0 63 22t26 54v8l-99 -13q-39 -6 -39 -35zM408 569v-239h-104v55q-43 -63 -121 -63q-60 0 -96.5 34t-36.5 90q0 57 37.5 86.5t95.5 35.5l121 13q0 54 -74 54q-77 0 -102 -48l-73 68q54 74 176 74q177 0 177 -160z" />
    <glyph glyph-name="guillemotleft" unicode="&#xab;" horiz-adv-x="686" 
d="M264 23l-224 237l224 238l88 -80l-150 -158l150 -158zM525 23l-225 237l225 238l87 -80l-150 -158l150 -158z" />
    <glyph glyph-name="logicalnot" unicode="&#xac;" 
d="M56 457h527v-319h-140v179h-387v140z" />
    <glyph glyph-name="softhyphen" unicode="&#xad;" horiz-adv-x="530" 
d="M80 370h370v-140h-370v140z" />
    <glyph glyph-name="registered" unicode="&#xae;" horiz-adv-x="824" 
d="M50 350q0 155 103 258.5t259 103.5t259 -103.5t103 -258.5t-103 -258.5t-259 -103.5t-259 103.5t-103 258.5zM687 350q0 121 -77 198t-198 77t-197.5 -77t-76.5 -198t76.5 -197.5t197.5 -76.5t198 76.5t77 197.5zM492 420q0 20 -15.5 35t-38.5 15h-83v-100h83q24 0 39 14
t15 36zM355 171h-70v368h155q56 0 91 -34t35 -85q0 -42 -22 -72t-60 -41l83 -136h-84l-76 129l3 1h-55v-130z" />
    <glyph glyph-name="macron" unicode="&#xaf;" horiz-adv-x="400" 
d="M50 695h300v-99h-300v99z" />
    <glyph glyph-name="degree" unicode="&#xb0;" horiz-adv-x="395" 
d="M50 590q0 62 42 102.5t106 40.5q63 0 105 -41t42 -102t-42 -101.5t-105 -40.5q-64 0 -106 40.5t-42 101.5zM260 590q0 27 -17 44.5t-45 17.5q-29 0 -45.5 -17.5t-16.5 -44.5t16.5 -44.5t45.5 -17.5q28 0 45 17.5t17 44.5z" />
    <glyph glyph-name="plusminus" unicode="&#xb1;" 
d="M251 606h138v-111h201v-139h-201v-110h-138v110h-201v139h201v111zM50 187h540v-139h-540v139z" />
    <glyph glyph-name="twosuperior" unicode="&#xb2;" horiz-adv-x="367" 
d="M29 731q51 89 153 89q66 0 105 -37t39 -98q0 -67 -53 -118l-76 -70h129v-97h-286v76l155 146q34 32 34 57q0 20 -13.5 32t-36.5 12q-47 0 -79 -50z" />
    <glyph glyph-name="threesuperior" unicode="&#xb3;" horiz-adv-x="363" 
d="M24 763q46 57 143 57q72 0 111 -32t39 -84q0 -38 -19 -62t-45 -32q26 -8 45 -32t19 -62q0 -52 -39 -84t-111 -32q-96 0 -143 58l62 73q29 -34 81 -34q54 0 54 33t-53 33h-34v94h34q53 2 53 33q0 33 -54 33q-51 0 -81 -34z" />
    <glyph glyph-name="acute" unicode="&#xb4;" horiz-adv-x="383" 
d="M50 631l225 136l58 -92l-225 -136z" />
    <glyph glyph-name="uni00B5" unicode="&#xb5;" 
d="M264 -12q-17 0 -45 4v-192h-128v700h135v-278q0 -107 84 -107q54 0 81 39.5t27 106.5v239h133v-500h-128v76q-59 -88 -159 -88z" />
    <glyph glyph-name="paragraph" unicode="&#xb6;" horiz-adv-x="573" 
d="M232 700h311v-834h-117v722h-104v-722h-117v452q-77 7 -126 62.5t-49 133.5q0 80 57.5 133t144.5 53z" />
    <glyph glyph-name="periodcentered" unicode="&#xb7;" horiz-adv-x="390" 
d="M195 446q41 0 68.5 -27.5t27.5 -67.5t-27.5 -67.5t-68.5 -27.5q-40 0 -67 27t-27 68t27 68t67 27z" />
    <glyph glyph-name="cedilla" unicode="&#xb8;" horiz-adv-x="299" 
d="M61 46h103q85 -86 85 -153q0 -48 -31.5 -77t-84.5 -29q-34 0 -83 17v103q47 -14 66 -14q23 0 23 22q0 41 -78 131z" />
    <glyph glyph-name="onesuperior" unicode="&#xb9;" horiz-adv-x="319" 
d="M173 820h80v-420h-96v268l-72 -69l-67 70z" />
    <glyph glyph-name="ordmasculine" unicode="&#xba;" horiz-adv-x="518" 
d="M50 525q0 89 59 146.5t150 57.5t150 -57.5t59 -146.5t-59 -146.5t-150 -57.5t-150 57.5t-59 146.5zM358 525q0 43 -28 71.5t-71 28.5t-71 -28.5t-28 -71.5t28 -71.5t71 -28.5t71 28.5t28 71.5z" />
    <glyph glyph-name="guillemotright" unicode="&#xbb;" horiz-adv-x="686" 
d="M646 260l-224 -237l-88 79l150 158l-150 158l88 80zM386 260l-225 -237l-87 79l150 158l-150 158l87 80z" />
    <glyph glyph-name="onequarter" unicode="&#xbc;" horiz-adv-x="895" 
d="M152 29l562 696l65 -54l-562 -696zM205 700h80v-420h-96v268l-72 -69l-67 70zM712 420h80v-265h53v-96h-53v-59h-97v59h-213v82zM695 155v95l-76 -95h76z" />
    <glyph glyph-name="onehalf" unicode="&#xbd;" horiz-adv-x="912" 
d="M142 29l562 696l65 -54l-562 -696zM205 700h80v-420h-96v268l-72 -69l-67 70zM564 331q51 89 153 89q66 0 105 -37t39 -98q0 -67 -53 -118l-76 -70h129v-97h-286v76l155 146q34 32 34 57q0 20 -13.5 32t-36.5 12q-47 0 -79 -50z" />
    <glyph glyph-name="threequarters" unicode="&#xbe;" horiz-adv-x="901" 
d="M168 29l561 696l65 -54l-561 -696zM718 420h80v-265h53v-96h-53v-59h-97v59h-213v82zM193 700q72 0 111 -32t39 -84q0 -38 -19 -62t-45 -32q26 -8 45 -32t19 -62q0 -52 -39 -84t-111 -32q-96 0 -143 58l62 73q29 -34 81 -34q54 0 54 33t-53 33h-34v94h34q53 2 53 33
q0 33 -54 33q-51 0 -81 -34l-62 74q46 57 143 57zM701 155v95l-76 -95h76z" />
    <glyph glyph-name="questiondown" unicode="&#xbf;" horiz-adv-x="557" 
d="M299 310q-41 0 -68.5 27.5t-27.5 67.5t27.5 67.5t68.5 27.5q40 0 67 -27t27 -68t-27 -68t-67 -27zM507 26q0 -108 -58.5 -167t-160.5 -59q-96 0 -152 54.5t-56 141.5q0 54 20.5 88t58.5 68q2 2 18 15t19 16l14 14.5t13.5 18t6 18t3.5 23.5v12h140v-39q0 -34 -17 -65
t-33.5 -46.5t-46.5 -39.5q-56 -42 -56 -75q0 -28 18 -46t53 -18q38 0 59 22t21 64h136z" />
    <glyph glyph-name="Agrave" unicode="&#xc0;" horiz-adv-x="792" 
d="M246 846l59 93l224 -136l-58 -93zM396 508l-119 -258h238zM631 0l-51 110h-368l-51 -110h-154l324 700h130l324 -700h-154z" />
    <glyph glyph-name="Aacute" unicode="&#xc1;" horiz-adv-x="792" 
d="M254 802l225 136l58 -92l-225 -136zM396 508l-119 -258h238zM631 0l-51 110h-368l-51 -110h-154l324 700h130l324 -700h-154z" />
    <glyph glyph-name="Acircumflex" unicode="&#xc2;" horiz-adv-x="792" 
d="M205 786l185 157l185 -157l-69 -73l-116 100l-117 -100zM396 508l-119 -258h238zM631 0l-51 110h-368l-51 -110h-154l324 700h130l324 -700h-154z" />
    <glyph glyph-name="Atilde" unicode="&#xc3;" horiz-adv-x="792" 
d="M462 731q-29 0 -71.5 22t-57.5 22q-22 0 -66 -42l-65 68q69 78 129 78q29 0 71.5 -22t57.5 -22q22 0 66 42l65 -68q-69 -78 -129 -78zM396 508l-119 -258h238zM631 0l-51 110h-368l-51 -110h-154l324 700h130l324 -700h-154z" />
    <glyph glyph-name="Adieresis" unicode="&#xc4;" horiz-adv-x="792" 
d="M215 810q0 33 22.5 55.5t55.5 22.5t55.5 -22.5t22.5 -55.5t-22.5 -55.5t-55.5 -22.5t-55.5 22.5t-22.5 55.5zM421 810q0 33 22.5 55.5t55.5 22.5t55.5 -22.5t22.5 -55.5t-22.5 -55.5t-55.5 -22.5t-55.5 22.5t-22.5 55.5zM396 508l-119 -258h238zM631 0l-51 110h-368
l-51 -110h-154l324 700h130l324 -700h-154z" />
    <glyph glyph-name="Aring" unicode="&#xc5;" horiz-adv-x="792" 
d="M447 751q0 22 -14.5 36.5t-36.5 14.5t-36.5 -14t-14.5 -37q0 -22 14.5 -36.5t36.5 -14.5t36.5 14.5t14.5 36.5zM396 508l-119 -258h238zM631 0l-51 110h-368l-51 -110h-154l301 651q-44 37 -44 100q0 57 38 94.5t94 37.5t94 -37.5t38 -94.5q0 -63 -44 -100l301 -651h-154
z" />
    <glyph glyph-name="AE" unicode="&#xc6;" horiz-adv-x="1048" 
d="M541 0v110h-296l-72 -110h-168l462 700h74v-139l-204 -311h204v450h452v-140h-312v-140h312v-140h-312v-140h312v-140h-452z" />
    <glyph glyph-name="Ccedilla" unicode="&#xc7;" horiz-adv-x="650" 
d="M377 -213q-34 0 -83 17v103q47 -14 66 -14q23 0 23 22q0 30 -43 88q-131 16 -216.5 113.5t-85.5 234.5q0 149 100 249t249 100q150 0 254 -96l-67 -129q-80 85 -187 85q-91 0 -150 -58.5t-59 -151.5q0 -92 59 -151t149 -59q71 0 136 33l30 -137q-58 -24 -107 -31
q48 -63 48 -112q0 -48 -31.5 -77t-84.5 -29z" />
    <glyph glyph-name="Egrave" unicode="&#xc8;" horiz-adv-x="581" 
d="M157 846l59 93l224 -136l-58 -93zM74 700h452v-140h-312v-140h312v-140h-312v-140h312v-140h-452v700z" />
    <glyph glyph-name="Eacute" unicode="&#xc9;" horiz-adv-x="581" 
d="M165 802l225 136l58 -92l-225 -136zM74 700h452v-140h-312v-140h312v-140h-312v-140h312v-140h-452v700z" />
    <glyph glyph-name="Ecircumflex" unicode="&#xca;" horiz-adv-x="581" 
d="M116 786l185 157l185 -157l-69 -73l-116 100l-117 -100zM74 700h452v-140h-312v-140h312v-140h-312v-140h312v-140h-452v700z" />
    <glyph glyph-name="Edieresis" unicode="&#xcb;" horiz-adv-x="581" 
d="M126 810q0 33 22.5 55.5t55.5 22.5t55.5 -22.5t22.5 -55.5t-22.5 -55.5t-55.5 -22.5t-55.5 22.5t-22.5 55.5zM332 810q0 33 22.5 55.5t55.5 22.5t55.5 -22.5t22.5 -55.5t-22.5 -55.5t-55.5 -22.5t-55.5 22.5t-22.5 55.5zM74 700h452v-140h-312v-140h312v-140h-312v-140
h312v-140h-452v700z" />
    <glyph glyph-name="Igrave" unicode="&#xcc;" horiz-adv-x="288" 
d="M-7 846l59 93l224 -136l-58 -93zM74 700h140v-700h-140v700z" />
    <glyph glyph-name="Iacute" unicode="&#xcd;" horiz-adv-x="288" 
d="M2 802l225 136l58 -92l-225 -136zM74 700h140v-700h-140v700z" />
    <glyph glyph-name="Icircumflex" unicode="&#xce;" horiz-adv-x="288" 
d="M-47 786l185 157l185 -157l-69 -73l-116 100l-117 -100zM74 700h140v-700h-140v700z" />
    <glyph glyph-name="Idieresis" unicode="&#xcf;" horiz-adv-x="288" 
d="M-37 810q0 33 22.5 55.5t55.5 22.5t55.5 -22.5t22.5 -55.5t-22.5 -55.5t-55.5 -22.5t-55.5 22.5t-22.5 55.5zM169 810q0 33 22.5 55.5t55.5 22.5t55.5 -22.5t22.5 -55.5t-22.5 -55.5t-55.5 -22.5t-55.5 22.5t-22.5 55.5zM74 700h140v-700h-140v700z" />
    <glyph glyph-name="Eth" unicode="&#xd0;" horiz-adv-x="712" 
d="M325 0h-254v285h-74v140h74v275h254q148 0 245.5 -99t97.5 -251t-97.5 -251t-245.5 -99zM211 140h114q89 0 146 59.5t57 150.5t-57 150.5t-146 59.5h-114v-135h142v-140h-142v-145z" />
    <glyph glyph-name="Ntilde" unicode="&#xd1;" horiz-adv-x="780" 
d="M458 731q-29 0 -71.5 22t-57.5 22q-22 0 -66 -42l-65 68q69 78 129 78q29 0 71.5 -22t57.5 -22q22 0 66 42l65 -68q-69 -78 -129 -78zM570 700h140v-700h-122l-378 460v-460h-140v700h122l378 -460v460z" />
    <glyph glyph-name="Ograve" unicode="&#xd2;" horiz-adv-x="775" 
d="M236 846l59 93l224 -136l-58 -93zM38 350q0 150 100 250t250 100t250 -100t100 -250t-100 -250t-250 -100t-250 100t-100 250zM598 350q0 92 -59 151t-151 59t-151 -59t-59 -151t59 -151t151 -59t151 59t59 151z" />
    <glyph glyph-name="Oacute" unicode="&#xd3;" horiz-adv-x="775" 
d="M245 802l225 136l58 -92l-225 -136zM38 350q0 150 100 250t250 100t250 -100t100 -250t-100 -250t-250 -100t-250 100t-100 250zM598 350q0 92 -59 151t-151 59t-151 -59t-59 -151t59 -151t151 -59t151 59t59 151z" />
    <glyph glyph-name="Ocircumflex" unicode="&#xd4;" horiz-adv-x="775" 
d="M196 786l185 157l185 -157l-69 -73l-116 100l-117 -100zM38 350q0 150 100 250t250 100t250 -100t100 -250t-100 -250t-250 -100t-250 100t-100 250zM598 350q0 92 -59 151t-151 59t-151 -59t-59 -151t59 -151t151 -59t151 59t59 151z" />
    <glyph glyph-name="Otilde" unicode="&#xd5;" horiz-adv-x="775" 
d="M453 731q-29 0 -71.5 22t-57.5 22q-22 0 -66 -42l-65 68q69 78 129 78q29 0 71.5 -22t57.5 -22q22 0 66 42l65 -68q-69 -78 -129 -78zM38 350q0 150 100 250t250 100t250 -100t100 -250t-100 -250t-250 -100t-250 100t-100 250zM598 350q0 92 -59 151t-151 59t-151 -59
t-59 -151t59 -151t151 -59t151 59t59 151z" />
    <glyph glyph-name="Odieresis" unicode="&#xd6;" horiz-adv-x="775" 
d="M206 810q0 33 22.5 55.5t55.5 22.5t55.5 -22.5t22.5 -55.5t-22.5 -55.5t-55.5 -22.5t-55.5 22.5t-22.5 55.5zM412 810q0 33 22.5 55.5t55.5 22.5t55.5 -22.5t22.5 -55.5t-22.5 -55.5t-55.5 -22.5t-55.5 22.5t-22.5 55.5zM38 350q0 150 100 250t250 100t250 -100t100 -250
t-100 -250t-250 -100t-250 100t-100 250zM598 350q0 92 -59 151t-151 59t-151 -59t-59 -151t59 -151t151 -59t151 59t59 151z" />
    <glyph glyph-name="multiply" unicode="&#xd7;" 
d="M320 417l160 161l99 -98l-161 -161l161 -160l-99 -99l-160 161l-161 -161l-98 99l161 160l-161 161l98 98z" />
    <glyph glyph-name="Oslash" unicode="&#xd8;" horiz-adv-x="788" 
d="M178 350q0 -85 52 -143l270 324q-47 29 -112 29q-92 0 -151 -59t-59 -151zM388 140q92 0 151 59t59 151q0 79 -45 135l-268 -321q48 -24 103 -24zM388 0q-108 0 -194 55l-51 -61l-54 45l50 60q-101 99 -101 251q0 150 100 250t250 100q115 0 203 -61l56 67l53 -46
l-56 -67q94 -99 94 -243q0 -150 -100 -250t-250 -100z" />
    <glyph glyph-name="Ugrave" unicode="&#xd9;" horiz-adv-x="767" 
d="M233 846l59 93l224 -136l-58 -93zM569 700h140v-376q0 -143 -92 -233.5t-233 -90.5t-233.5 90.5t-92.5 233.5v376h140v-376q0 -84 52.5 -134t133.5 -50t133 50t52 134v376z" />
    <glyph glyph-name="Uacute" unicode="&#xda;" horiz-adv-x="767" 
d="M242 802l225 136l58 -92l-225 -136zM569 700h140v-376q0 -143 -92 -233.5t-233 -90.5t-233.5 90.5t-92.5 233.5v376h140v-376q0 -84 52.5 -134t133.5 -50t133 50t52 134v376z" />
    <glyph glyph-name="Ucircumflex" unicode="&#xdb;" horiz-adv-x="767" 
d="M193 786l185 157l185 -157l-69 -73l-116 100l-117 -100zM569 700h140v-376q0 -143 -92 -233.5t-233 -90.5t-233.5 90.5t-92.5 233.5v376h140v-376q0 -84 52.5 -134t133.5 -50t133 50t52 134v376z" />
    <glyph glyph-name="Udieresis" unicode="&#xdc;" horiz-adv-x="767" 
d="M203 810q0 33 22.5 55.5t55.5 22.5t55.5 -22.5t22.5 -55.5t-22.5 -55.5t-55.5 -22.5t-55.5 22.5t-22.5 55.5zM409 810q0 33 22.5 55.5t55.5 22.5t55.5 -22.5t22.5 -55.5t-22.5 -55.5t-55.5 -22.5t-55.5 22.5t-22.5 55.5zM569 700h140v-376q0 -143 -92 -233.5t-233 -90.5
t-233.5 90.5t-92.5 233.5v376h140v-376q0 -84 52.5 -134t133.5 -50t133 50t52 134v376z" />
    <glyph glyph-name="Yacute" unicode="&#xdd;" horiz-adv-x="710" 
d="M212 802l225 136l58 -92l-225 -136zM425 0h-140v271l-286 429h169l187 -280l187 280h169l-286 -429v-271z" />
    <glyph glyph-name="Thorn" unicode="&#xde;" horiz-adv-x="623" 
d="M327 455h-113v-210h113q48 0 78 29.5t30 75.5t-30 75.5t-78 29.5zM327 105h-113v-105h-140v700h140v-105h113q110 0 179.5 -69.5t69.5 -175.5t-69.5 -175.5t-179.5 -69.5z" />
    <glyph glyph-name="germandbls" unicode="&#xdf;" horiz-adv-x="575" 
d="M58 471q0 108 58.5 174.5t169.5 66.5q99 0 153.5 -51t54.5 -126q0 -50 -26 -92t-68 -54q68 -10 108 -59t40 -125q0 -100 -65 -156t-173 -56q-26 0 -69 5v126q48 -3 56 -3q55 0 86.5 25.5t31.5 73.5q0 47 -32 74t-94 26h-38v112h23q43 0 66.5 22t23.5 60q0 32 -22.5 52
t-62.5 20q-43 0 -67.5 -29.5t-24.5 -85.5v-545h-129v545z" />
    <glyph glyph-name="agrave" unicode="&#xe0;" horiz-adv-x="538" 
d="M126 675l59 93l224 -136l-58 -93zM352 202v20l-124 -15q-62 -9 -62 -55q0 -24 18.5 -38.5t52.5 -14.5q51 0 83 30t32 73zM42 398q50 113 223 113q110 0 164.5 -49.5t54.5 -153.5v-309h-132v68q-51 -78 -154 -78q-74 0 -121.5 43.5t-47.5 112.5q0 67 44.5 108.5
t115.5 48.5l137 12q26 3 26 20v8q0 23 -22 36.5t-65 13.5q-100 0 -125 -64z" />
    <glyph glyph-name="aacute" unicode="&#xe1;" horiz-adv-x="538" 
d="M124 631l225 136l58 -92l-225 -136zM352 202v20l-124 -15q-62 -9 -62 -55q0 -24 18.5 -38.5t52.5 -14.5q51 0 83 30t32 73zM42 398q50 113 223 113q110 0 164.5 -49.5t54.5 -153.5v-309h-132v68q-51 -78 -154 -78q-74 0 -121.5 43.5t-47.5 112.5q0 67 44.5 108.5
t115.5 48.5l137 12q26 3 26 20v8q0 23 -22 36.5t-65 13.5q-100 0 -125 -64z" />
    <glyph glyph-name="acircumflex" unicode="&#xe2;" horiz-adv-x="538" 
d="M83 611l185 157l185 -157l-69 -73l-116 100l-117 -100zM352 202v20l-124 -15q-62 -9 -62 -55q0 -24 18.5 -38.5t52.5 -14.5q51 0 83 30t32 73zM42 398q50 113 223 113q110 0 164.5 -49.5t54.5 -153.5v-309h-132v68q-51 -78 -154 -78q-74 0 -121.5 43.5t-47.5 112.5
q0 67 44.5 108.5t115.5 48.5l137 12q26 3 26 20v8q0 23 -22 36.5t-65 13.5q-100 0 -125 -64z" />
    <glyph glyph-name="atilde" unicode="&#xe3;" horiz-adv-x="538" 
d="M333 552q-29 0 -71.5 22t-57.5 22q-22 0 -66 -42l-65 68q69 78 129 78q29 0 71.5 -22t57.5 -22q22 0 66 42l65 -68q-69 -78 -129 -78zM352 202v20l-124 -15q-62 -9 -62 -55q0 -24 18.5 -38.5t52.5 -14.5q51 0 83 30t32 73zM42 398q50 113 223 113q110 0 164.5 -49.5
t54.5 -153.5v-309h-132v68q-51 -78 -154 -78q-74 0 -121.5 43.5t-47.5 112.5q0 67 44.5 108.5t115.5 48.5l137 12q26 3 26 20v8q0 23 -22 36.5t-65 13.5q-100 0 -125 -64z" />
    <glyph glyph-name="adieresis" unicode="&#xe4;" horiz-adv-x="538" 
d="M87 644q0 33 22.5 55.5t55.5 22.5t55.5 -22.5t22.5 -55.5t-22.5 -55.5t-55.5 -22.5t-55.5 22.5t-22.5 55.5zM293 644q0 33 22.5 55.5t55.5 22.5t55.5 -22.5t22.5 -55.5t-22.5 -55.5t-55.5 -22.5t-55.5 22.5t-22.5 55.5zM352 202v20l-124 -15q-62 -9 -62 -55
q0 -24 18.5 -38.5t52.5 -14.5q51 0 83 30t32 73zM42 398q50 113 223 113q110 0 164.5 -49.5t54.5 -153.5v-309h-132v68q-51 -78 -154 -78q-74 0 -121.5 43.5t-47.5 112.5q0 67 44.5 108.5t115.5 48.5l137 12q26 3 26 20v8q0 23 -22 36.5t-65 13.5q-100 0 -125 -64z" />
    <glyph glyph-name="aring" unicode="&#xe5;" horiz-adv-x="538" 
d="M136 683q0 57 38 94.5t94 37.5t94 -37.5t38 -94.5t-38 -94.5t-94 -37.5t-94 37.5t-38 94.5zM319 683q0 22 -14.5 36.5t-36.5 14.5t-36.5 -14t-14.5 -37q0 -22 14.5 -36.5t36.5 -14.5t36.5 14.5t14.5 36.5zM352 202v20l-124 -15q-62 -9 -62 -55q0 -24 18.5 -38.5
t52.5 -14.5q51 0 83 30t32 73zM42 398q50 113 223 113q110 0 164.5 -49.5t54.5 -153.5v-309h-132v68q-51 -78 -154 -78q-74 0 -121.5 43.5t-47.5 112.5q0 67 44.5 108.5t115.5 48.5l137 12q26 3 26 20v8q0 23 -22 36.5t-65 13.5q-100 0 -125 -64z" />
    <glyph glyph-name="ae" unicode="&#xe6;" horiz-adv-x="877" 
d="M623 -12q-139 0 -207 96q-77 -95 -205 -95q-81 0 -131.5 43.5t-50.5 113.5q0 66 44.5 107.5t115.5 48.5l137 12q26 3 26 20v8q0 23 -22 36.5t-65 13.5q-100 0 -125 -64l-98 70q22 54 80.5 83.5t134.5 29.5q118 0 174 -75q66 76 179 76q110 0 176 -72.5t66 -193.5v-36
h-368v-2q12 -48 50 -72t87 -24q77 0 139 51l56 -109q-79 -66 -193 -66zM708 306q-5 42 -33 68t-76 26q-46 0 -76 -24t-40 -70h225zM352 202v20l-124 -15q-62 -9 -62 -55q0 -24 18.5 -38.5t52.5 -14.5q50 0 82.5 30.5t32.5 72.5z" />
    <glyph glyph-name="ccedilla" unicode="&#xe7;" horiz-adv-x="502" 
d="M282 -213q-34 0 -83 17v103q47 -14 66 -14q23 0 23 22q0 27 -34 75q-101 12 -164 82t-63 178q0 117 75 189.5t192 72.5t190 -73l-75 -106q-50 50 -115 50q-57 0 -94 -37t-37 -96t37.5 -96t93.5 -37q67 0 118 51l73 -106q-51 -51 -127 -67q40 -54 40 -102t-31.5 -77
t-84.5 -29z" />
    <glyph glyph-name="egrave" unicode="&#xe8;" horiz-adv-x="555" 
d="M148 675l59 93l224 -136l-58 -93zM27 250q0 113 70 187.5t186 74.5q114 0 180.5 -72.5t66.5 -193.5v-36h-368l1 -2q11 -47 49 -71.5t85 -24.5q83 0 142 51l55 -109q-80 -66 -199 -66q-124 0 -196 73.5t-72 188.5zM386 306q-5 42 -32.5 68t-74.5 26t-77.5 -24.5
t-40.5 -69.5h225z" />
    <glyph glyph-name="eacute" unicode="&#xe9;" horiz-adv-x="555" 
d="M146 631l225 136l58 -92l-225 -136zM27 250q0 113 70 187.5t186 74.5q114 0 180.5 -72.5t66.5 -193.5v-36h-368l1 -2q11 -47 49 -71.5t85 -24.5q83 0 142 51l55 -109q-80 -66 -199 -66q-124 0 -196 73.5t-72 188.5zM386 306q-5 42 -32.5 68t-74.5 26t-77.5 -24.5
t-40.5 -69.5h225z" />
    <glyph glyph-name="ecircumflex" unicode="&#xea;" horiz-adv-x="555" 
d="M106 611l185 157l185 -157l-69 -73l-116 100l-117 -100zM27 250q0 113 70 187.5t186 74.5q114 0 180.5 -72.5t66.5 -193.5v-36h-368l1 -2q11 -47 49 -71.5t85 -24.5q83 0 142 51l55 -109q-80 -66 -199 -66q-124 0 -196 73.5t-72 188.5zM386 306q-5 42 -32.5 68t-74.5 26
t-77.5 -24.5t-40.5 -69.5h225z" />
    <glyph glyph-name="edieresis" unicode="&#xeb;" horiz-adv-x="555" 
d="M110 644q0 33 22.5 55.5t55.5 22.5t55.5 -22.5t22.5 -55.5t-22.5 -55.5t-55.5 -22.5t-55.5 22.5t-22.5 55.5zM316 644q0 33 22.5 55.5t55.5 22.5t55.5 -22.5t22.5 -55.5t-22.5 -55.5t-55.5 -22.5t-55.5 22.5t-22.5 55.5zM27 250q0 113 70 187.5t186 74.5
q114 0 180.5 -72.5t66.5 -193.5v-36h-368l1 -2q11 -47 49 -71.5t85 -24.5q83 0 142 51l55 -109q-80 -66 -199 -66q-124 0 -196 73.5t-72 188.5zM386 306q-5 42 -32.5 68t-74.5 26t-77.5 -24.5t-40.5 -69.5h225z" />
    <glyph glyph-name="igrave" unicode="&#xec;" horiz-adv-x="262" 
d="M-11 675l59 93l224 -136l-58 -93zM65 500h132v-500h-132v500z" />
    <glyph glyph-name="iacute" unicode="&#xed;" horiz-adv-x="262" 
d="M-13 631l225 136l58 -92l-225 -136zM65 500h132v-500h-132v500z" />
    <glyph glyph-name="icircumflex" unicode="&#xee;" horiz-adv-x="262" 
d="M-54 611l185 157l185 -157l-69 -73l-116 100l-117 -100zM65 500h132v-500h-132v500z" />
    <glyph glyph-name="idieresis" unicode="&#xef;" horiz-adv-x="262" 
d="M-50 644q0 33 22.5 55.5t55.5 22.5t55.5 -22.5t22.5 -55.5t-22.5 -55.5t-55.5 -22.5t-55.5 22.5t-22.5 55.5zM156 644q0 33 22.5 55.5t55.5 22.5t55.5 -22.5t22.5 -55.5t-22.5 -55.5t-55.5 -22.5t-55.5 22.5t-22.5 55.5zM65 500h132v-500h-132v500z" />
    <glyph glyph-name="eth" unicode="&#xf0;" horiz-adv-x="609" 
d="M293 -12q-118 0 -192 73.5t-74 190.5q0 116 72 188t180 72q112 0 167 -88v7q-14 113 -118 185l-65 -65l-69 59l49 49q-47 17 -95 23l30 115q86 -13 159 -46l55 55l67 -60l-43 -42q66 -50 105 -123q56 -104 56 -251q0 -176 -87 -265q-76 -77 -197 -77zM429 248
q0 59 -36.5 97t-96.5 38q-59 0 -96 -36t-37 -95q0 -60 37.5 -97.5t95.5 -37.5q57 0 95 35.5t38 95.5z" />
    <glyph glyph-name="ntilde" unicode="&#xf1;" horiz-adv-x="585" 
d="M354 552q-29 0 -71.5 22t-57.5 22q-22 0 -66 -42l-65 68q69 78 129 78q29 0 71.5 -22t57.5 -22q22 0 66 42l65 -68q-69 -78 -129 -78zM186 428q60 84 162 84q87 0 132 -53t45 -149v-310h-135v277q0 108 -91 108q-109 0 -109 -146v-239h-132v500h128v-72z" />
    <glyph glyph-name="ograve" unicode="&#xf2;" horiz-adv-x="592" 
d="M154 675l59 93l224 -136l-58 -93zM27 250q0 116 76 189t193 73t193 -73t76 -189t-76 -189t-193 -73t-193 73t-76 189zM429 250q0 59 -38 96t-95 37t-95 -37t-38 -96t38 -96t95 -37t95 37t38 96z" />
    <glyph glyph-name="oacute" unicode="&#xf3;" horiz-adv-x="592" 
d="M152 631l225 136l58 -92l-225 -136zM27 250q0 116 76 189t193 73t193 -73t76 -189t-76 -189t-193 -73t-193 73t-76 189zM429 250q0 59 -38 96t-95 37t-95 -37t-38 -96t38 -96t95 -37t95 37t38 96z" />
    <glyph glyph-name="ocircumflex" unicode="&#xf4;" horiz-adv-x="592" 
d="M111 611l185 157l185 -157l-69 -73l-116 100l-117 -100zM27 250q0 116 76 189t193 73t193 -73t76 -189t-76 -189t-193 -73t-193 73t-76 189zM429 250q0 59 -38 96t-95 37t-95 -37t-38 -96t38 -96t95 -37t95 37t38 96z" />
    <glyph glyph-name="otilde" unicode="&#xf5;" horiz-adv-x="592" 
d="M361 552q-29 0 -71.5 22t-57.5 22q-22 0 -66 -42l-65 68q69 78 129 78q29 0 71.5 -22t57.5 -22q22 0 66 42l65 -68q-69 -78 -129 -78zM27 250q0 116 76 189t193 73t193 -73t76 -189t-76 -189t-193 -73t-193 73t-76 189zM429 250q0 59 -38 96t-95 37t-95 -37t-38 -96
t38 -96t95 -37t95 37t38 96z" />
    <glyph glyph-name="odieresis" unicode="&#xf6;" horiz-adv-x="592" 
d="M115 644q0 33 22.5 55.5t55.5 22.5t55.5 -22.5t22.5 -55.5t-22.5 -55.5t-55.5 -22.5t-55.5 22.5t-22.5 55.5zM321 644q0 33 22.5 55.5t55.5 22.5t55.5 -22.5t22.5 -55.5t-22.5 -55.5t-55.5 -22.5t-55.5 22.5t-22.5 55.5zM27 250q0 116 76 189t193 73t193 -73t76 -189
t-76 -189t-193 -73t-193 73t-76 189zM429 250q0 59 -38 96t-95 37t-95 -37t-38 -96t38 -96t95 -37t95 37t38 96z" />
    <glyph glyph-name="divide" unicode="&#xf7;" 
d="M316 623q41 0 68 -26.5t27 -68.5q0 -40 -27 -67t-68 -27q-40 0 -67 27t-27 67q0 41 27 68t67 27zM36 389h568v-140h-568v140zM316 209q40 0 67.5 -27.5t27.5 -67.5t-27 -67t-68 -27q-40 0 -67 27t-27 67q0 41 27 68t67 27z" />
    <glyph glyph-name="oslash" unicode="&#xf8;" horiz-adv-x="592" 
d="M163 250q0 -43 23 -79l170 199q-26 13 -60 13q-57 0 -95 -37t-38 -96zM296 117q57 0 95 37t38 96q0 43 -22 76l-168 -198q27 -11 57 -11zM296 -12q-82 0 -145 37l-33 -39l-52 44l31 37q-70 72 -70 183q0 116 76 189t193 73q83 0 147 -39l35 41l51 -45l-32 -38
q68 -71 68 -181q0 -116 -76 -189t-193 -73z" />
    <glyph glyph-name="ugrave" unicode="&#xf9;" horiz-adv-x="578" 
d="M145 675l59 93l224 -136l-58 -93zM385 500h133v-500h-128v76q-59 -88 -159 -88q-85 0 -129 53.5t-44 147.5v311h135v-278q0 -107 84 -107q54 0 81 39.5t27 106.5v239z" />
    <glyph glyph-name="uacute" unicode="&#xfa;" horiz-adv-x="578" 
d="M143 631l225 136l58 -92l-225 -136zM385 500h133v-500h-128v76q-59 -88 -159 -88q-85 0 -129 53.5t-44 147.5v311h135v-278q0 -107 84 -107q54 0 81 39.5t27 106.5v239z" />
    <glyph glyph-name="ucircumflex" unicode="&#xfb;" horiz-adv-x="578" 
d="M102 611l185 157l185 -157l-69 -73l-116 100l-117 -100zM385 500h133v-500h-128v76q-59 -88 -159 -88q-85 0 -129 53.5t-44 147.5v311h135v-278q0 -107 84 -107q54 0 81 39.5t27 106.5v239z" />
    <glyph glyph-name="udieresis" unicode="&#xfc;" horiz-adv-x="578" 
d="M106 644q0 33 22.5 55.5t55.5 22.5t55.5 -22.5t22.5 -55.5t-22.5 -55.5t-55.5 -22.5t-55.5 22.5t-22.5 55.5zM312 644q0 33 22.5 55.5t55.5 22.5t55.5 -22.5t22.5 -55.5t-22.5 -55.5t-55.5 -22.5t-55.5 22.5t-22.5 55.5zM385 500h133v-500h-128v76q-59 -88 -159 -88
q-85 0 -129 53.5t-44 147.5v311h135v-278q0 -107 84 -107q54 0 81 39.5t27 106.5v239z" />
    <glyph glyph-name="yacute" unicode="&#xfd;" horiz-adv-x="538" 
d="M128 631l225 136l58 -92l-225 -136zM227 -200h-140l122 272l-212 428h154l128 -274l123 274h140z" />
    <glyph glyph-name="thorn" unicode="&#xfe;" horiz-adv-x="611" 
d="M317 116q57 0 94 37t37 97t-37 97t-94 37t-94 -37t-37 -97q0 -61 37 -97.5t94 -36.5zM190 -200h-132v900h132v-270q59 83 166 83q97 0 162.5 -70.5t65.5 -192.5t-65 -192.5t-161 -70.5q-108 0 -168 85v-272z" />
    <glyph glyph-name="ydieresis" unicode="&#xff;" horiz-adv-x="538" 
d="M91 644q0 33 22.5 55.5t55.5 22.5t55.5 -22.5t22.5 -55.5t-22.5 -55.5t-55.5 -22.5t-55.5 22.5t-22.5 55.5zM297 644q0 33 22.5 55.5t55.5 22.5t55.5 -22.5t22.5 -55.5t-22.5 -55.5t-55.5 -22.5t-55.5 22.5t-22.5 55.5zM227 -200h-140l122 272l-212 428h154l128 -274
l123 274h140z" />
    <glyph glyph-name="Amacron" unicode="&#x100;" horiz-adv-x="792" 
d="M246 854h300v-99h-300v99zM396 508l-119 -258h238zM631 0l-51 110h-368l-51 -110h-154l324 700h130l324 -700h-154z" />
    <glyph glyph-name="amacron" unicode="&#x101;" horiz-adv-x="538" 
d="M118 695h300v-99h-300v99zM352 202v20l-124 -15q-62 -9 -62 -55q0 -24 18.5 -38.5t52.5 -14.5q51 0 83 30t32 73zM42 398q50 113 223 113q110 0 164.5 -49.5t54.5 -153.5v-309h-132v68q-51 -78 -154 -78q-74 0 -121.5 43.5t-47.5 112.5q0 67 44.5 108.5t115.5 48.5
l137 12q26 3 26 20v8q0 23 -22 36.5t-65 13.5q-100 0 -125 -64z" />
    <glyph glyph-name="Abreve" unicode="&#x102;" horiz-adv-x="792" 
d="M450 894h102q0 -72 -42.5 -117t-114.5 -45t-114 45t-42 117h102q0 -28 14 -45t40 -17t40.5 17t14.5 45zM396 508l-119 -258h238zM631 0l-51 110h-368l-51 -110h-154l324 700h130l324 -700h-154z" />
    <glyph glyph-name="abreve" unicode="&#x103;" horiz-adv-x="538" 
d="M323 731h102q0 -72 -42.5 -117t-114.5 -45t-114 45t-42 117h102q0 -28 14 -45t40 -17t40.5 17t14.5 45zM352 202v20l-124 -15q-62 -9 -62 -55q0 -24 18.5 -38.5t52.5 -14.5q51 0 83 30t32 73zM42 398q50 113 223 113q110 0 164.5 -49.5t54.5 -153.5v-309h-132v68
q-51 -78 -154 -78q-74 0 -121.5 43.5t-47.5 112.5q0 67 44.5 108.5t115.5 48.5l137 12q26 3 26 20v8q0 23 -22 36.5t-65 13.5q-100 0 -125 -64z" />
    <glyph glyph-name="Aogonek" unicode="&#x104;" horiz-adv-x="792" 
d="M396 508l-119 -258h238zM711 -202q-40 -11 -73 -11q-53 0 -83 26t-30 69q0 66 91 150l-36 78h-368l-51 -110h-154l324 700h130l324 -700h-107q-48 -51 -48 -83q0 -24 28 -24q17 0 53 8v-103z" />
    <glyph glyph-name="aogonek" unicode="&#x105;" horiz-adv-x="538" 
d="M352 202v20l-124 -15q-62 -9 -62 -55q0 -24 18.5 -38.5t52.5 -14.5q51 0 83 30t32 73zM455 -202q-40 -11 -73 -11q-53 0 -83 26t-30 69q0 63 83 142v43q-51 -78 -154 -78q-74 0 -121.5 43.5t-47.5 112.5q0 67 44.5 108.5t115.5 48.5l137 12q26 3 26 20v8q0 23 -22 36.5
t-65 13.5q-100 0 -125 -64l-98 70q50 113 223 113q110 0 164.5 -49.5t54.5 -153.5v-309h-63q-47 -48 -47 -82q0 -24 28 -24q17 0 53 8v-103z" />
    <glyph glyph-name="Cacute" unicode="&#x106;" horiz-adv-x="650" 
d="M236 802l225 136l58 -92l-225 -136zM38 351q0 149 100 249t249 100q150 0 254 -96l-67 -129q-80 85 -187 85q-91 0 -150 -58.5t-59 -151.5q0 -92 59 -151t149 -59q71 0 136 33l30 -137q-86 -36 -166 -36q-147 0 -247.5 100.5t-100.5 250.5z" />
    <glyph glyph-name="cacute" unicode="&#x107;" horiz-adv-x="502" 
d="M140 631l225 136l58 -92l-225 -136zM27 250q0 117 75 189.5t192 72.5t190 -73l-75 -106q-50 50 -115 50q-57 0 -94 -37t-37 -96t37.5 -96t93.5 -37q67 0 118 51l73 -106q-74 -74 -193 -74q-116 0 -190.5 72t-74.5 190z" />
    <glyph glyph-name="Ccircumflex" unicode="&#x108;" horiz-adv-x="650" 
d="M187 786l185 157l185 -157l-69 -73l-116 100l-117 -100zM38 351q0 149 100 249t249 100q150 0 254 -96l-67 -129q-80 85 -187 85q-91 0 -150 -58.5t-59 -151.5q0 -92 59 -151t149 -59q71 0 136 33l30 -137q-86 -36 -166 -36q-147 0 -247.5 100.5t-100.5 250.5z" />
    <glyph glyph-name="ccircumflex" unicode="&#x109;" horiz-adv-x="502" 
d="M100 611l185 157l185 -157l-69 -73l-116 100l-117 -100zM27 250q0 117 75 189.5t192 72.5t190 -73l-75 -106q-50 50 -115 50q-57 0 -94 -37t-37 -96t37.5 -96t93.5 -37q67 0 118 51l73 -106q-74 -74 -193 -74q-116 0 -190.5 72t-74.5 190z" />
    <glyph glyph-name="Cdotaccent" unicode="&#x10a;" horiz-adv-x="650" 
d="M294 806q0 36 24 60.5t60 24.5t60.5 -24.5t24.5 -60.5t-24.5 -60t-60.5 -24t-60 24t-24 60zM38 351q0 149 100 249t249 100q150 0 254 -96l-67 -129q-80 85 -187 85q-91 0 -150 -58.5t-59 -151.5q0 -92 59 -151t149 -59q71 0 136 33l30 -137q-86 -36 -166 -36
q-147 0 -247.5 100.5t-100.5 250.5z" />
    <glyph glyph-name="cdotaccent" unicode="&#x10b;" horiz-adv-x="502" 
d="M200 643q0 36 24 60.5t60 24.5t60.5 -24.5t24.5 -60.5t-24.5 -60t-60.5 -24t-60 24t-24 60zM27 250q0 117 75 189.5t192 72.5t190 -73l-75 -106q-50 50 -115 50q-57 0 -94 -37t-37 -96t37.5 -96t93.5 -37q67 0 118 51l73 -106q-74 -74 -193 -74q-116 0 -190.5 72
t-74.5 190z" />
    <glyph glyph-name="Ccaron" unicode="&#x10c;" horiz-adv-x="650" 
d="M372 855l116 100l69 -73l-185 -157l-185 157l68 73zM38 351q0 149 100 249t249 100q150 0 254 -96l-67 -129q-80 85 -187 85q-91 0 -150 -58.5t-59 -151.5q0 -92 59 -151t149 -59q71 0 136 33l30 -137q-86 -36 -166 -36q-147 0 -247.5 100.5t-100.5 250.5z" />
    <glyph glyph-name="ccaron" unicode="&#x10d;" horiz-adv-x="502" 
d="M278 685l116 100l69 -73l-185 -157l-185 157l68 73zM27 250q0 117 75 189.5t192 72.5t190 -73l-75 -106q-50 50 -115 50q-57 0 -94 -37t-37 -96t37.5 -96t93.5 -37q67 0 118 51l73 -106q-74 -74 -193 -74q-116 0 -190.5 72t-74.5 190z" />
    <glyph glyph-name="Dcaron" unicode="&#x10e;" horiz-adv-x="708" 
d="M322 855l116 100l69 -73l-185 -157l-185 157l68 73zM74 700h254q148 0 245.5 -99t97.5 -251t-97.5 -251t-245.5 -99h-254v700zM531 350q0 91 -57 150.5t-146 59.5h-114v-420h114q89 0 146 59.5t57 150.5z" />
    <glyph glyph-name="dcaron" unicode="&#x10f;" horiz-adv-x="796" 
d="M654 376l-68 39l72 118q-25 11 -40.5 34.5t-15.5 51.5q0 38 27 65.5t66 27.5t66 -27.5t27 -65.5q0 -30 -17 -53zM294 384q-57 0 -94 -37t-37 -97t37 -97t94 -37t94 37t37 97q0 61 -37 97.5t-94 36.5zM421 700h132v-700h-132v70q-59 -83 -166 -83q-97 0 -162.5 70.5
t-65.5 192.5t65 192.5t161 70.5q108 0 168 -85v272z" />
    <glyph glyph-name="Dcroat" unicode="&#x110;" horiz-adv-x="712" 
d="M325 0h-254v285h-74v140h74v275h254q148 0 245.5 -99t97.5 -251t-97.5 -251t-245.5 -99zM211 140h114q89 0 146 59.5t57 150.5t-57 150.5t-146 59.5h-114v-135h142v-140h-142v-145z" />
    <glyph glyph-name="dcroat" unicode="&#x111;" horiz-adv-x="614" 
d="M294 384q-57 0 -94 -37t-37 -97t37 -97t94 -37t94 37t37 97q0 61 -37 97.5t-94 36.5zM421 70q-59 -83 -166 -83q-97 0 -162.5 70.5t-65.5 192.5t65 192.5t161 70.5q108 0 168 -85v131h-99v97h99v44h132v-44h59v-97h-59v-559h-132v70z" />
    <glyph glyph-name="Emacron" unicode="&#x112;" horiz-adv-x="581" 
d="M157 854h300v-99h-300v99zM74 700h452v-140h-312v-140h312v-140h-312v-140h312v-140h-452v700z" />
    <glyph glyph-name="emacron" unicode="&#x113;" horiz-adv-x="555" 
d="M140 695h300v-99h-300v99zM27 250q0 113 70 187.5t186 74.5q114 0 180.5 -72.5t66.5 -193.5v-36h-368l1 -2q11 -47 49 -71.5t85 -24.5q83 0 142 51l55 -109q-80 -66 -199 -66q-124 0 -196 73.5t-72 188.5zM386 306q-5 42 -32.5 68t-74.5 26t-77.5 -24.5t-40.5 -69.5h225z
" />
    <glyph glyph-name="Ebreve" unicode="&#x114;" horiz-adv-x="581" 
d="M361 894h102q0 -72 -42.5 -117t-114.5 -45t-114 45t-42 117h102q0 -28 14 -45t40 -17t40.5 17t14.5 45zM74 700h452v-140h-312v-140h312v-140h-312v-140h312v-140h-452v700z" />
    <glyph glyph-name="ebreve" unicode="&#x115;" horiz-adv-x="555" 
d="M345 731h102q0 -72 -42.5 -117t-114.5 -45t-114 45t-42 117h102q0 -28 14 -45t40 -17t40.5 17t14.5 45zM27 250q0 113 70 187.5t186 74.5q114 0 180.5 -72.5t66.5 -193.5v-36h-368l1 -2q11 -47 49 -71.5t85 -24.5q83 0 142 51l55 -109q-80 -66 -199 -66q-124 0 -196 73.5
t-72 188.5zM386 306q-5 42 -32.5 68t-74.5 26t-77.5 -24.5t-40.5 -69.5h225z" />
    <glyph glyph-name="Edotaccent" unicode="&#x116;" horiz-adv-x="581" 
d="M223 806q0 36 24 60.5t60 24.5t60.5 -24.5t24.5 -60.5t-24.5 -60t-60.5 -24t-60 24t-24 60zM74 700h452v-140h-312v-140h312v-140h-312v-140h312v-140h-452v700z" />
    <glyph glyph-name="edotaccent" unicode="&#x117;" horiz-adv-x="555" 
d="M206 643q0 36 24 60.5t60 24.5t60.5 -24.5t24.5 -60.5t-24.5 -60t-60.5 -24t-60 24t-24 60zM27 250q0 113 70 187.5t186 74.5q114 0 180.5 -72.5t66.5 -193.5v-36h-368l1 -2q11 -47 49 -71.5t85 -24.5q83 0 142 51l55 -109q-80 -66 -199 -66q-124 0 -196 73.5t-72 188.5z
M386 306q-5 42 -32.5 68t-74.5 26t-77.5 -24.5t-40.5 -69.5h225z" />
    <glyph glyph-name="Eogonek" unicode="&#x118;" horiz-adv-x="581" 
d="M506 -202q-40 -11 -73 -11q-53 0 -83 26t-30 69q0 55 59 118h-305v700h452v-140h-312v-140h312v-140h-312v-140h312v-140h-53q-48 -51 -48 -83q0 -24 28 -24q17 0 53 8v-103z" />
    <glyph glyph-name="eogonek" unicode="&#x119;" horiz-adv-x="555" 
d="M383 -213q-53 0 -83 26t-30 69q0 51 49 107q-8 -1 -24 -1q-124 0 -196 73.5t-72 188.5q0 113 70 187.5t186 74.5q114 0 180.5 -72.5t66.5 -193.5v-36h-368l1 -2q11 -47 49 -71.5t85 -24.5q83 0 142 51l55 -109q-28 -22 -49 -33q-70 -65 -70 -104q0 -24 28 -24q17 0 53 8
v-103q-40 -11 -73 -11zM386 306q-5 42 -32.5 68t-74.5 26t-77.5 -24.5t-40.5 -69.5h225z" />
    <glyph glyph-name="Ecaron" unicode="&#x11a;" horiz-adv-x="581" 
d="M301 855l116 100l69 -73l-185 -157l-185 157l68 73zM74 700h452v-140h-312v-140h312v-140h-312v-140h312v-140h-452v700z" />
    <glyph glyph-name="ecaron" unicode="&#x11b;" horiz-adv-x="555" 
d="M284 685l116 100l69 -73l-185 -157l-185 157l68 73zM27 250q0 113 70 187.5t186 74.5q114 0 180.5 -72.5t66.5 -193.5v-36h-368l1 -2q11 -47 49 -71.5t85 -24.5q83 0 142 51l55 -109q-80 -66 -199 -66q-124 0 -196 73.5t-72 188.5zM386 306q-5 42 -32.5 68t-74.5 26
t-77.5 -24.5t-40.5 -69.5h225z" />
    <glyph glyph-name="Gcircumflex" unicode="&#x11c;" horiz-adv-x="653" 
d="M191 786l185 157l185 -157l-69 -73l-116 100l-117 -100zM38 349q0 152 99 251.5t254 99.5q146 0 250 -96l-67 -129q-80 85 -186 85q-93 0 -151.5 -58.5t-58.5 -151.5t58.5 -151.5t152.5 -58.5q15 0 28 3v114h-131v140h271v-369q-91 -28 -168 -28q-153 0 -252 98.5
t-99 250.5z" />
    <glyph glyph-name="gcircumflex" unicode="&#x11d;" horiz-adv-x="617" 
d="M110 611l185 157l185 -157l-69 -73l-116 100l-117 -100zM428 250q0 61 -36.5 97.5t-93.5 36.5t-94 -37t-37 -97t37 -97t94 -37t93.5 36.5t36.5 97.5zM31 252q0 121 67 190.5t164 69.5q55 0 98 -23t65 -59v70h132v-467q0 -109 -63 -177.5t-209 -68.5q-137 0 -221 78
l65 109q65 -63 151 -63q147 0 147 129v32q-54 -77 -161 -77q-103 0 -169 68t-66 189z" />
    <glyph glyph-name="Gbreve" unicode="&#x11e;" horiz-adv-x="653" 
d="M436 894h102q0 -72 -42.5 -117t-114.5 -45t-114 45t-42 117h102q0 -28 14 -45t40 -17t40.5 17t14.5 45zM38 349q0 152 99 251.5t254 99.5q146 0 250 -96l-67 -129q-80 85 -186 85q-93 0 -151.5 -58.5t-58.5 -151.5t58.5 -151.5t152.5 -58.5q15 0 28 3v114h-131v140h271
v-369q-91 -28 -168 -28q-153 0 -252 98.5t-99 250.5z" />
    <glyph glyph-name="gbreve" unicode="&#x11f;" horiz-adv-x="617" 
d="M350 731h102q0 -72 -42.5 -117t-114.5 -45t-114 45t-42 117h102q0 -28 14 -45t40 -17t40.5 17t14.5 45zM428 250q0 61 -36.5 97.5t-93.5 36.5t-94 -37t-37 -97t37 -97t94 -37t93.5 36.5t36.5 97.5zM31 252q0 121 67 190.5t164 69.5q55 0 98 -23t65 -59v70h132v-467
q0 -109 -63 -177.5t-209 -68.5q-137 0 -221 78l65 109q65 -63 151 -63q147 0 147 129v32q-54 -77 -161 -77q-103 0 -169 68t-66 189z" />
    <glyph glyph-name="Gdotaccent" unicode="&#x120;" horiz-adv-x="653" 
d="M298 806q0 36 24 60.5t60 24.5t60.5 -24.5t24.5 -60.5t-24.5 -60t-60.5 -24t-60 24t-24 60zM38 349q0 152 99 251.5t254 99.5q146 0 250 -96l-67 -129q-80 85 -186 85q-93 0 -151.5 -58.5t-58.5 -151.5t58.5 -151.5t152.5 -58.5q15 0 28 3v114h-131v140h271v-369
q-91 -28 -168 -28q-153 0 -252 98.5t-99 250.5z" />
    <glyph glyph-name="gdotaccent" unicode="&#x121;" horiz-adv-x="617" 
d="M211 643q0 36 24 60.5t60 24.5t60.5 -24.5t24.5 -60.5t-24.5 -60t-60.5 -24t-60 24t-24 60zM428 250q0 61 -36.5 97.5t-93.5 36.5t-94 -37t-37 -97t37 -97t94 -37t93.5 36.5t36.5 97.5zM31 252q0 121 67 190.5t164 69.5q55 0 98 -23t65 -59v70h132v-467
q0 -109 -63 -177.5t-209 -68.5q-137 0 -221 78l65 109q65 -63 151 -63q147 0 147 129v32q-54 -77 -161 -77q-103 0 -169 68t-66 189z" />
    <glyph glyph-name="Gcommaaccent" unicode="&#x122;" horiz-adv-x="653" 
d="M38 349q0 152 99 251.5t254 99.5q146 0 250 -96l-67 -129q-80 85 -186 85q-93 0 -151.5 -58.5t-58.5 -151.5t58.5 -151.5t152.5 -58.5q15 0 28 3v114h-131v140h271v-369q-91 -28 -168 -28q-153 0 -252 98.5t-99 250.5zM349 -299l-65 41l51 77q-41 22 -41 69
q0 33 23.5 56.5t56.5 23.5t56 -23.5t23 -56.5q0 -23 -15 -45z" />
    <glyph glyph-name="gcommaaccent" unicode="&#x123;" horiz-adv-x="617" 
d="M286 543q-33 0 -56.5 23t-23.5 56q0 25 15 45l90 143l67 -43l-50 -77q37 -24 37 -68q0 -33 -23 -56t-56 -23zM428 250q0 61 -36.5 97.5t-93.5 36.5t-94 -37t-37 -97t37 -97t94 -37t93.5 36.5t36.5 97.5zM31 252q0 121 67 190.5t164 69.5q55 0 98 -23t65 -59v70h132v-467
q0 -109 -63 -177.5t-209 -68.5q-137 0 -221 78l65 109q65 -63 151 -63q147 0 147 129v32q-54 -77 -161 -77q-103 0 -169 68t-66 189z" />
    <glyph glyph-name="Hcircumflex" unicode="&#x124;" horiz-adv-x="734" 
d="M177 786l185 157l185 -157l-69 -73l-116 100l-117 -100zM521 700h140v-700h-140v280h-307v-280h-140v700h140v-280h307v280z" />
    <glyph glyph-name="hcircumflex" unicode="&#x125;" horiz-adv-x="581" 
d="M-61 786l185 157l185 -157l-69 -73l-116 100l-117 -100zM58 700h132v-272q54 84 158 84q87 0 132 -53t45 -149v-310h-135v277q0 108 -91 108q-109 0 -109 -146v-239h-132v700z" />
    <glyph glyph-name="Hbar" unicode="&#x126;" horiz-adv-x="741" 
d="M214 420h307v77h-307v-77zM214 280v-280h-140v497h-53v121h53v82h140v-82h307v82h140v-82h59v-121h-59v-497h-140v280h-307z" />
    <glyph glyph-name="hbar" unicode="&#x127;" horiz-adv-x="585" 
d="M190 239v-239h-132v559h-57v97h57v44h132v-44h93v-97h-93v-131q54 84 158 84q87 0 132 -53t45 -149v-310h-135v277q0 108 -91 108q-109 0 -109 -146z" />
    <glyph glyph-name="Itilde" unicode="&#x128;" horiz-adv-x="288" 
d="M210 731q-29 0 -71.5 22t-57.5 22q-22 0 -66 -42l-65 68q69 78 129 78q29 0 71.5 -22t57.5 -22q22 0 66 42l65 -68q-69 -78 -129 -78zM74 700h140v-700h-140v700z" />
    <glyph glyph-name="itilde" unicode="&#x129;" horiz-adv-x="262" 
d="M196 552q-29 0 -71.5 22t-57.5 22q-22 0 -66 -42l-65 68q69 78 129 78q29 0 71.5 -22t57.5 -22q22 0 66 42l65 -68q-69 -78 -129 -78zM65 500h132v-500h-132v500z" />
    <glyph glyph-name="Imacron" unicode="&#x12a;" horiz-adv-x="288" 
d="M-6 854h300v-99h-300v99zM74 700h140v-700h-140v700z" />
    <glyph glyph-name="imacron" unicode="&#x12b;" horiz-adv-x="262" 
d="M-19 695h300v-99h-300v99zM65 500h132v-500h-132v500z" />
    <glyph glyph-name="Ibreve" unicode="&#x12c;" horiz-adv-x="288" 
d="M198 894h102q0 -72 -42.5 -117t-114.5 -45t-114 45t-42 117h102q0 -28 14 -45t40 -17t40.5 17t14.5 45zM74 700h140v-700h-140v700z" />
    <glyph glyph-name="ibreve" unicode="&#x12d;" horiz-adv-x="262" 
d="M186 731h102q0 -72 -42.5 -117t-114.5 -45t-114 45t-42 117h102q0 -28 14 -45t40 -17t40.5 17t14.5 45zM65 500h132v-500h-132v500z" />
    <glyph glyph-name="Iogonek" unicode="&#x12e;" horiz-adv-x="288" 
d="M192 -202q-40 -11 -73 -11q-53 0 -83 26t-30 69q0 58 68 127v691h140v-700h-55q-48 -51 -48 -83q0 -24 28 -24q17 0 53 8v-103z" />
    <glyph glyph-name="iogonek" unicode="&#x12f;" horiz-adv-x="262" 
d="M47 643q0 36 24 60.5t60 24.5t60.5 -24.5t24.5 -60.5t-24.5 -60t-60.5 -24t-60 24t-24 60zM180 -202q-40 -11 -73 -11q-53 0 -83 26t-30 69q0 60 71 131v487h132v-500h-50q-48 -51 -48 -83q0 -24 28 -24q17 0 53 8v-103z" />
    <glyph glyph-name="Idotaccent" unicode="&#x130;" horiz-adv-x="288" 
d="M60 806q0 36 24 60.5t60 24.5t60.5 -24.5t24.5 -60.5t-24.5 -60t-60.5 -24t-60 24t-24 60zM74 700h140v-700h-140v700z" />
    <glyph glyph-name="dotlessi" unicode="&#x131;" horiz-adv-x="262" 
d="M65 500h132v-500h-132v500z" />
    <glyph glyph-name="Jcircumflex" unicode="&#x134;" horiz-adv-x="521" 
d="M197 786l185 157l185 -157l-69 -73l-116 100l-117 -100zM318 700h140v-459q0 -116 -63 -178.5t-163 -62.5q-104 0 -163.5 63.5t-59.5 153.5l127 57q0 -134 97 -134q85 0 85 102v458z" />
    <glyph glyph-name="jcircumflex" unicode="&#x135;" horiz-adv-x="279" 
d="M-46 607l185 157l185 -157l-69 -73l-116 100l-117 -100zM80 500h133v-515q0 -190 -210 -190q-22 0 -37 1v122h15q57 0 78 18.5t21 60.5v503z" />
    <glyph glyph-name="Kcommaaccent" unicode="&#x136;" horiz-adv-x="705" 
d="M528 0l-226 294l-88 -88v-206h-140v700h140v-295l294 295h197l-304 -306l305 -394h-178zM330 -299l-65 41l51 77q-41 22 -41 69q0 33 23.5 56.5t56.5 23.5t56 -23.5t23 -56.5q0 -23 -15 -45z" />
    <glyph glyph-name="kcommaaccent" unicode="&#x137;" horiz-adv-x="553" 
d="M376 0l-134 196l-52 -51v-145h-132v700h132v-392l181 192h175l-215 -215l215 -285h-170zM251 -299l-65 41l51 77q-41 22 -41 69q0 33 23.5 56.5t56.5 23.5t56 -23.5t23 -56.5q0 -23 -15 -45z" />
    <glyph glyph-name="kgreenlandic" unicode="&#x138;" horiz-adv-x="553" 
d="M376 0l-134 196l-52 -51v-145h-132v500h132v-192l181 192h175l-215 -215l215 -285h-170z" />
    <glyph glyph-name="Lacute" unicode="&#x139;" horiz-adv-x="541" 
d="M84 802l225 136l58 -92l-225 -136zM74 700h140v-560h318v-140h-458v700z" />
    <glyph glyph-name="lacute" unicode="&#x13a;" horiz-adv-x="248" 
d="M7 808l225 136l58 -92l-225 -136zM58 700h133v-700h-133v700z" />
    <glyph glyph-name="Lcommaaccent" unicode="&#x13b;" horiz-adv-x="541" 
d="M74 700h140v-560h318v-140h-458v700zM260 -299l-65 41l51 77q-41 22 -41 69q0 33 23.5 56.5t56.5 23.5t56 -23.5t23 -56.5q0 -23 -15 -45z" />
    <glyph glyph-name="lcommaaccent" unicode="&#x13c;" horiz-adv-x="248" 
d="M58 700h133v-700h-133v700zM90 -299l-65 41l51 77q-41 22 -41 69q0 33 23.5 56.5t56.5 23.5t56 -23.5t23 -56.5q0 -23 -15 -45z" />
    <glyph glyph-name="Lcaron" unicode="&#x13d;" horiz-adv-x="541" 
d="M397 377l-68 38l72 118q-25 11 -40.5 34.5t-15.5 51.5q0 39 27 66.5t66 27.5t66 -27.5t27 -66.5q0 -30 -17 -52zM74 700h140v-560h318v-140h-458v700z" />
    <glyph glyph-name="lcaron" unicode="&#x13e;" horiz-adv-x="436" 
d="M307 397l-66 40l66 109q-24 10 -38.5 31.5t-14.5 48.5q0 37 24.5 61.5t63.5 24.5q37 0 61 -24.5t24 -61.5q0 -27 -11 -45zM58 700h133v-700h-133v700z" />
    <glyph glyph-name="Ldot" unicode="&#x13f;" horiz-adv-x="541" 
d="M74 700h140v-560h318v-140h-458v700zM425 502q41 0 68.5 -27.5t27.5 -67.5t-27.5 -67.5t-68.5 -27.5q-40 0 -67 27t-27 68t27 68t67 27z" />
    <glyph glyph-name="ldot" unicode="&#x140;" horiz-adv-x="431" 
d="M58 700h133v-700h-133v700zM242 396q0 39 26 65t65 26t65 -26t26 -65t-26 -65t-65 -26t-65 26t-26 65z" />
    <glyph glyph-name="Lslash" unicode="&#x141;" horiz-adv-x="541" 
d="M532 0h-458v256l-58 -24l-46 102l104 43v323h140v-265l159 66l46 -102l-205 -85v-174h318v-140z" />
    <glyph glyph-name="lslash" unicode="&#x142;" horiz-adv-x="248" 
d="M191 0h-133v306l-55 -25l-41 83l96 43v293h133v-233l54 24l42 -83l-96 -43v-365z" />
    <glyph glyph-name="Nacute" unicode="&#x143;" horiz-adv-x="780" 
d="M250 802l225 136l58 -92l-225 -136zM570 700h140v-700h-122l-378 460v-460h-140v700h122l378 -460v460z" />
    <glyph glyph-name="nacute" unicode="&#x144;" horiz-adv-x="585" 
d="M145 631l225 136l58 -92l-225 -136zM186 428q60 84 162 84q87 0 132 -53t45 -149v-310h-135v277q0 108 -91 108q-109 0 -109 -146v-239h-132v500h128v-72z" />
    <glyph glyph-name="Ncommaaccent" unicode="&#x145;" horiz-adv-x="780" 
d="M570 700h140v-700h-122l-378 460v-460h-140v700h122l378 -460v460zM358 -299l-65 41l51 77q-41 22 -41 69q0 33 23.5 56.5t56.5 23.5t56 -23.5t23 -56.5q0 -23 -15 -45z" />
    <glyph glyph-name="ncommaaccent" unicode="&#x146;" horiz-adv-x="585" 
d="M186 428q60 84 162 84q87 0 132 -53t45 -149v-310h-135v277q0 108 -91 108q-109 0 -109 -146v-239h-132v500h128v-72zM263 -299l-65 41l51 77q-41 22 -41 69q0 33 23.5 56.5t56.5 23.5t56 -23.5t23 -56.5q0 -23 -15 -45z" />
    <glyph glyph-name="Ncaron" unicode="&#x147;" horiz-adv-x="780" 
d="M386 855l116 100l69 -73l-185 -157l-185 157l68 73zM570 700h140v-700h-122l-378 460v-460h-140v700h122l378 -460v460z" />
    <glyph glyph-name="ncaron" unicode="&#x148;" horiz-adv-x="585" 
d="M283 685l116 100l69 -73l-185 -157l-185 157l68 73zM186 428q60 84 162 84q87 0 132 -53t45 -149v-310h-135v277q0 108 -91 108q-109 0 -109 -146v-239h-132v500h128v-72z" />
    <glyph glyph-name="napostrophe" unicode="&#x149;" horiz-adv-x="722" 
d="M76 376l-68 39l72 118q-25 11 -40.5 34.5t-15.5 51.5q0 38 27 65.5t66 27.5t66 -27.5t27 -65.5q0 -30 -17 -53zM323 428q60 84 162 84q87 0 132 -53t45 -149v-310h-135v277q0 108 -91 108q-109 0 -109 -146v-239h-132v500h128v-72z" />
    <glyph glyph-name="Eng" unicode="&#x14a;" horiz-adv-x="780" 
d="M551 -208q-23 0 -87 8v123q33 -5 55 -5q27 0 39.5 13t12.5 49v41l-361 439v-460h-140v700h122l378 -460v460h140v-726q0 -182 -159 -182z" />
    <glyph glyph-name="eng" unicode="&#x14b;" horiz-adv-x="583" 
d="M360 -203q-30 0 -78 6v122q38 -5 59 -5q25 0 37 14t12 51v292q0 108 -91 108q-109 0 -109 -146v-239h-132v500h128v-72q60 84 162 84q87 0 132 -53t45 -149v-325q0 -188 -165 -188z" />
    <glyph glyph-name="Omacron" unicode="&#x14c;" horiz-adv-x="775" 
d="M237 854h300v-99h-300v99zM38 350q0 150 100 250t250 100t250 -100t100 -250t-100 -250t-250 -100t-250 100t-100 250zM598 350q0 92 -59 151t-151 59t-151 -59t-59 -151t59 -151t151 -59t151 59t59 151z" />
    <glyph glyph-name="omacron" unicode="&#x14d;" horiz-adv-x="592" 
d="M146 695h300v-99h-300v99zM27 250q0 116 76 189t193 73t193 -73t76 -189t-76 -189t-193 -73t-193 73t-76 189zM429 250q0 59 -38 96t-95 37t-95 -37t-38 -96t38 -96t95 -37t95 37t38 96z" />
    <glyph glyph-name="Obreve" unicode="&#x14e;" horiz-adv-x="775" 
d="M441 894h102q0 -72 -42.5 -117t-114.5 -45t-114 45t-42 117h102q0 -28 14 -45t40 -17t40.5 17t14.5 45zM38 350q0 150 100 250t250 100t250 -100t100 -250t-100 -250t-250 -100t-250 100t-100 250zM598 350q0 92 -59 151t-151 59t-151 -59t-59 -151t59 -151t151 -59
t151 59t59 151z" />
    <glyph glyph-name="obreve" unicode="&#x14f;" horiz-adv-x="592" 
d="M350 731h102q0 -72 -42.5 -117t-114.5 -45t-114 45t-42 117h102q0 -28 14 -45t40 -17t40.5 17t14.5 45zM27 250q0 116 76 189t193 73t193 -73t76 -189t-76 -189t-193 -73t-193 73t-76 189zM429 250q0 59 -38 96t-95 37t-95 -37t-38 -96t38 -96t95 -37t95 37t38 96z" />
    <glyph glyph-name="Ohungarumlaut" unicode="&#x150;" horiz-adv-x="775" 
d="M232 783l127 190l88 -63l-131 -185zM411 767l127 190l88 -63l-130 -185zM38 350q0 150 100 250t250 100t250 -100t100 -250t-100 -250t-250 -100t-250 100t-100 250zM598 350q0 92 -59 151t-151 59t-151 -59t-59 -151t59 -151t151 -59t151 59t59 151z" />
    <glyph glyph-name="ohungarumlaut" unicode="&#x151;" horiz-adv-x="592" 
d="M135 614l127 190l88 -63l-131 -185zM314 598l127 190l88 -63l-130 -185zM27 250q0 116 76 189t193 73t193 -73t76 -189t-76 -189t-193 -73t-193 73t-76 189zM429 250q0 59 -38 96t-95 37t-95 -37t-38 -96t38 -96t95 -37t95 37t38 96z" />
    <glyph glyph-name="OE" unicode="&#x152;" horiz-adv-x="901" 
d="M394 140v560h452v-140h-312v-140h312v-140h-312v-140h312v-140h-452q-150 0 -250 100t-100 250t100 250t250 100v-140q-92 0 -151 -59t-59 -151t59 -151t151 -59z" />
    <glyph glyph-name="oe" unicode="&#x153;" horiz-adv-x="953" 
d="M693 -12q-128 0 -197 87q-73 -87 -200 -87q-117 0 -193 73t-76 189t76 189t193 73q126 0 199 -87q66 87 186 87q114 0 180.5 -72.5t66.5 -193.5v-36h-368l1 -2q11 -47 49 -71.5t85 -24.5q83 0 142 51l56 -109q-82 -66 -200 -66zM784 306q-5 42 -32.5 68t-74.5 26
q-98 0 -118 -94h225zM429 250q0 59 -38 96t-95 37t-95 -37t-38 -96t38 -96t95 -37t95 37t38 96z" />
    <glyph glyph-name="Racute" unicode="&#x154;" horiz-adv-x="687" 
d="M199 802l225 136l58 -92l-225 -136zM507 -1l-132 212h-161v-211h-140v700h306q108 0 177.5 -69.5t69.5 -174.5q0 -67 -29.5 -121.5t-81.5 -86.5l156 -248zM214 351h73l-21 34l120 70l55 -88q46 28 46 89q0 46 -29 75t-78 29h-166v-209z" />
    <glyph glyph-name="racute" unicode="&#x155;" horiz-adv-x="386" 
d="M55 631l225 136l58 -92l-225 -136zM185 418q44 94 142 94q21 0 49 -7v-142q-24 8 -60 8q-126 0 -126 -145v-226h-132v500h127v-82z" />
    <glyph glyph-name="Rcommaaccent" unicode="&#x156;" horiz-adv-x="687" 
d="M507 -1l-132 212h-161v-211h-140v700h306q108 0 177.5 -69.5t69.5 -174.5q0 -67 -29.5 -121.5t-81.5 -86.5l156 -248zM214 351h73l-21 34l120 70l55 -88q46 28 46 89q0 46 -29 75t-78 29h-166v-209zM329 -299l-65 41l51 77q-41 22 -41 69q0 33 23.5 56.5t56.5 23.5
t56 -23.5t23 -56.5q0 -23 -15 -45z" />
    <glyph glyph-name="rcommaaccent" unicode="&#x157;" horiz-adv-x="386" 
d="M185 418q44 94 142 94q21 0 49 -7v-142q-24 8 -60 8q-126 0 -126 -145v-226h-132v500h127v-82zM109 -299l-65 41l51 77q-41 22 -41 69q0 33 23.5 56.5t56.5 23.5t56 -23.5t23 -56.5q0 -23 -15 -45z" />
    <glyph glyph-name="Rcaron" unicode="&#x158;" horiz-adv-x="687" 
d="M335 855l116 100l69 -73l-185 -157l-185 157l68 73zM507 -1l-132 212h-161v-211h-140v700h306q108 0 177.5 -69.5t69.5 -174.5q0 -67 -29.5 -121.5t-81.5 -86.5l156 -248zM214 351h73l-21 34l120 70l55 -88q46 28 46 89q0 46 -29 75t-78 29h-166v-209z" />
    <glyph glyph-name="rcaron" unicode="&#x159;" horiz-adv-x="386" 
d="M193 685l116 100l69 -73l-185 -157l-185 157l68 73zM185 418q44 94 142 94q21 0 49 -7v-142q-24 8 -60 8q-126 0 -126 -145v-226h-132v500h127v-82z" />
    <glyph glyph-name="Sacute" unicode="&#x15a;" horiz-adv-x="553" 
d="M135 802l225 136l58 -92l-225 -136zM51 499q0 93 63.5 147t162.5 54q90 0 152.5 -46t80.5 -131l-127 -51q-20 88 -107 88q-41 0 -63 -17.5t-22 -44.5q0 -32 27 -48.5t87 -35.5q9 -2 14 -4q86 -28 135 -73.5t49 -133.5q0 -95 -63.5 -149t-162.5 -54q-87 0 -151 44t-83 133
l125 54q21 -91 110 -91q40 0 62.5 17t22.5 46q0 14 -6.5 26t-15 19.5t-25.5 15t-30 12t-37 11.5q-7 2 -10 3q-39 12 -67.5 26t-58.5 38t-46 60.5t-16 84.5z" />
    <glyph glyph-name="sacute" unicode="&#x15b;" horiz-adv-x="478" 
d="M105 631l225 136l58 -92l-225 -136zM46 353q0 75 56 117t155 42q127 0 199 -74l-74 -96q-21 23 -58 37t-77 14q-64 0 -64 -35q0 -18 21.5 -26t94.5 -24q76 -17 118 -51t42 -106q0 -163 -216 -163q-157 0 -222 83l77 100q54 -65 158 -65q67 0 67 38q0 19 -21 27.5
t-90 23.5q-166 34 -166 158z" />
    <glyph glyph-name="Scircumflex" unicode="&#x15c;" horiz-adv-x="553" 
d="M86 786l185 157l185 -157l-69 -73l-116 100l-117 -100zM51 499q0 93 63.5 147t162.5 54q90 0 152.5 -46t80.5 -131l-127 -51q-20 88 -107 88q-41 0 -63 -17.5t-22 -44.5q0 -32 27 -48.5t87 -35.5q9 -2 14 -4q86 -28 135 -73.5t49 -133.5q0 -95 -63.5 -149t-162.5 -54
q-87 0 -151 44t-83 133l125 54q21 -91 110 -91q40 0 62.5 17t22.5 46q0 14 -6.5 26t-15 19.5t-25.5 15t-30 12t-37 11.5q-7 2 -10 3q-39 12 -67.5 26t-58.5 38t-46 60.5t-16 84.5z" />
    <glyph glyph-name="scircumflex" unicode="&#x15d;" horiz-adv-x="478" 
d="M64 611l185 157l185 -157l-69 -73l-116 100l-117 -100zM46 353q0 75 56 117t155 42q127 0 199 -74l-74 -96q-21 23 -58 37t-77 14q-64 0 -64 -35q0 -18 21.5 -26t94.5 -24q76 -17 118 -51t42 -106q0 -163 -216 -163q-157 0 -222 83l77 100q54 -65 158 -65q67 0 67 38
q0 19 -21 27.5t-90 23.5q-166 34 -166 158z" />
    <glyph glyph-name="Scedilla" unicode="&#x15e;" horiz-adv-x="553" 
d="M268 -213q-34 0 -83 17v103q47 -14 66 -14q23 0 23 22q0 30 -43 88q-71 11 -121.5 54.5t-66.5 119.5l125 54q21 -91 110 -91q40 0 62.5 17t22.5 46q0 14 -6.5 26t-15 19.5t-25.5 15t-30 12t-37 11.5q-7 2 -10 3q-39 12 -67.5 26t-58.5 38t-46 60.5t-16 84.5
q0 93 63.5 147t162.5 54q90 0 152.5 -46t80.5 -131l-127 -51q-20 88 -107 88q-41 0 -63 -17.5t-22 -44.5q0 -32 27 -48.5t87 -35.5q9 -2 14 -4q86 -28 135 -73.5t49 -133.5q0 -80 -45.5 -131.5t-122.5 -66.5q49 -61 49 -112q0 -48 -31.5 -77t-84.5 -29z" />
    <glyph glyph-name="scedilla" unicode="&#x15f;" horiz-adv-x="478" 
d="M232 -213q-34 0 -83 17v103q47 -14 66 -14q23 0 23 22q0 28 -33 74q-128 11 -184 82l77 100q54 -65 158 -65q67 0 67 38q0 19 -21 27.5t-90 23.5q-166 34 -166 158q0 75 56 117t155 42q127 0 199 -74l-74 -96q-21 23 -58 37t-77 14q-64 0 -64 -35q0 -18 21.5 -26
t94.5 -24q76 -17 118 -51t42 -106q0 -136 -150 -158q39 -53 39 -100q0 -48 -31.5 -77t-84.5 -29z" />
    <glyph glyph-name="Scaron" unicode="&#x160;" horiz-adv-x="553" 
d="M271 855l116 100l69 -73l-185 -157l-185 157l68 73zM51 499q0 93 63.5 147t162.5 54q90 0 152.5 -46t80.5 -131l-127 -51q-20 88 -107 88q-41 0 -63 -17.5t-22 -44.5q0 -32 27 -48.5t87 -35.5q9 -2 14 -4q86 -28 135 -73.5t49 -133.5q0 -95 -63.5 -149t-162.5 -54
q-87 0 -151 44t-83 133l125 54q21 -91 110 -91q40 0 62.5 17t22.5 46q0 14 -6.5 26t-15 19.5t-25.5 15t-30 12t-37 11.5q-7 2 -10 3q-39 12 -67.5 26t-58.5 38t-46 60.5t-16 84.5z" />
    <glyph glyph-name="scaron" unicode="&#x161;" horiz-adv-x="478" 
d="M243 685l116 100l69 -73l-185 -157l-185 157l68 73zM46 353q0 75 56 117t155 42q127 0 199 -74l-74 -96q-21 23 -58 37t-77 14q-64 0 -64 -35q0 -18 21.5 -26t94.5 -24q76 -17 118 -51t42 -106q0 -163 -216 -163q-157 0 -222 83l77 100q54 -65 158 -65q67 0 67 38
q0 19 -21 27.5t-90 23.5q-166 34 -166 158z" />
    <glyph glyph-name="Tcommaaccent" unicode="&#x162;" horiz-adv-x="656" 
d="M651 560h-253v-560h-140v560h-253v140h646v-140zM306 -299l-65 41l51 77q-41 22 -41 69q0 33 23.5 56.5t56.5 23.5t56 -23.5t23 -56.5q0 -23 -15 -45z" />
    <glyph glyph-name="tcommaaccent" unicode="&#x163;" horiz-adv-x="394" 
d="M358 10q-62 -15 -108 -15q-72 0 -109.5 37.5t-37.5 120.5v236h-91v111h91v134h132v-134h127v-111h-127v-217q0 -45 50 -45q25 0 73 8v-125zM216 -299l-65 41l51 77q-41 22 -41 69q0 33 23.5 56.5t56.5 23.5t56 -23.5t23 -56.5q0 -23 -15 -45z" />
    <glyph glyph-name="Tcaron" unicode="&#x164;" horiz-adv-x="656" 
d="M323 855l116 100l69 -73l-185 -157l-185 157l68 73zM651 560h-253v-560h-140v560h-253v140h646v-140z" />
    <glyph glyph-name="tcaron" unicode="&#x165;" horiz-adv-x="595" 
d="M456 376l-68 39l72 118q-25 10 -40.5 33.5t-15.5 52.5q0 38 27 65.5t66 27.5t66 -27.5t27 -65.5q0 -30 -17 -53zM358 10q-62 -15 -108 -15q-72 0 -109.5 37.5t-37.5 120.5v236h-91v111h91v134h132v-134h127v-111h-127v-217q0 -45 50 -45q25 0 73 8v-125z" />
    <glyph glyph-name="Tbar" unicode="&#x166;" horiz-adv-x="656" 
d="M527 280h-129v-280h-140v280h-129v140h129v140h-253v140h646v-140h-253v-140h129v-140z" />
    <glyph glyph-name="tbar" unicode="&#x167;" horiz-adv-x="385" 
d="M358 10q-62 -15 -108 -15q-72 0 -109.5 37.5t-37.5 120.5v75h-74v97h74v64h-91v111h91v134h132v-134h127v-111h-127v-64h103v-97h-103v-56q0 -45 50 -45q25 0 73 8v-125z" />
    <glyph glyph-name="Utilde" unicode="&#x168;" horiz-adv-x="767" 
d="M450 731q-29 0 -71.5 22t-57.5 22q-22 0 -66 -42l-65 68q69 78 129 78q29 0 71.5 -22t57.5 -22q22 0 66 42l65 -68q-69 -78 -129 -78zM569 700h140v-376q0 -143 -92 -233.5t-233 -90.5t-233.5 90.5t-92.5 233.5v376h140v-376q0 -84 52.5 -134t133.5 -50t133 50t52 134
v376z" />
    <glyph glyph-name="utilde" unicode="&#x169;" horiz-adv-x="578" 
d="M352 552q-29 0 -71.5 22t-57.5 22q-22 0 -66 -42l-65 68q69 78 129 78q29 0 71.5 -22t57.5 -22q22 0 66 42l65 -68q-69 -78 -129 -78zM385 500h133v-500h-128v76q-59 -88 -159 -88q-85 0 -129 53.5t-44 147.5v311h135v-278q0 -107 84 -107q54 0 81 39.5t27 106.5v239z
" />
    <glyph glyph-name="Umacron" unicode="&#x16a;" horiz-adv-x="767" 
d="M234 854h300v-99h-300v99zM569 700h140v-376q0 -143 -92 -233.5t-233 -90.5t-233.5 90.5t-92.5 233.5v376h140v-376q0 -84 52.5 -134t133.5 -50t133 50t52 134v376z" />
    <glyph glyph-name="umacron" unicode="&#x16b;" horiz-adv-x="578" 
d="M137 695h300v-99h-300v99zM385 500h133v-500h-128v76q-59 -88 -159 -88q-85 0 -129 53.5t-44 147.5v311h135v-278q0 -107 84 -107q54 0 81 39.5t27 106.5v239z" />
    <glyph glyph-name="Ubreve" unicode="&#x16c;" horiz-adv-x="767" 
d="M438 894h102q0 -72 -42.5 -117t-114.5 -45t-114 45t-42 117h102q0 -28 14 -45t40 -17t40.5 17t14.5 45zM569 700h140v-376q0 -143 -92 -233.5t-233 -90.5t-233.5 90.5t-92.5 233.5v376h140v-376q0 -84 52.5 -134t133.5 -50t133 50t52 134v376z" />
    <glyph glyph-name="ubreve" unicode="&#x16d;" horiz-adv-x="578" 
d="M342 731h102q0 -72 -42.5 -117t-114.5 -45t-114 45t-42 117h102q0 -28 14 -45t40 -17t40.5 17t14.5 45zM385 500h133v-500h-128v76q-59 -88 -159 -88q-85 0 -129 53.5t-44 147.5v311h135v-278q0 -107 84 -107q54 0 81 39.5t27 106.5v239z" />
    <glyph glyph-name="Uring" unicode="&#x16e;" horiz-adv-x="767" 
d="M252 751q0 57 38 94.5t94 37.5t94 -37.5t38 -94.5t-38 -94.5t-94 -37.5t-94 37.5t-38 94.5zM435 751q0 22 -14.5 36.5t-36.5 14.5t-36.5 -14t-14.5 -37q0 -22 14.5 -36.5t36.5 -14.5t36.5 14.5t14.5 36.5zM569 700h140v-376q0 -143 -92 -233.5t-233 -90.5t-233.5 90.5
t-92.5 233.5v376h140v-376q0 -84 52.5 -134t133.5 -50t133 50t52 134v376z" />
    <glyph glyph-name="uring" unicode="&#x16f;" horiz-adv-x="578" 
d="M155 683q0 57 38 94.5t94 37.5t94 -37.5t38 -94.5t-38 -94.5t-94 -37.5t-94 37.5t-38 94.5zM338 683q0 22 -14.5 36.5t-36.5 14.5q-23 0 -37 -14t-14 -37q0 -22 14.5 -36.5t36.5 -14.5t36.5 14.5t14.5 36.5zM385 500h133v-500h-128v76q-59 -88 -159 -88q-85 0 -129 53.5
t-44 147.5v311h135v-278q0 -107 84 -107q54 0 81 39.5t27 106.5v239z" />
    <glyph glyph-name="Uhungarumlaut" unicode="&#x170;" horiz-adv-x="767" 
d="M229 783l127 190l88 -63l-131 -185zM408 767l127 190l88 -63l-130 -185zM569 700h140v-376q0 -143 -92 -233.5t-233 -90.5t-233.5 90.5t-92.5 233.5v376h140v-376q0 -84 52.5 -134t133.5 -50t133 50t52 134v376z" />
    <glyph glyph-name="uhungarumlaut" unicode="&#x171;" horiz-adv-x="578" 
d="M126 614l127 190l88 -63l-131 -185zM305 598l127 190l88 -63l-130 -185zM385 500h133v-500h-128v76q-59 -88 -159 -88q-85 0 -129 53.5t-44 147.5v311h135v-278q0 -107 84 -107q54 0 81 39.5t27 106.5v239z" />
    <glyph glyph-name="Uogonek" unicode="&#x172;" horiz-adv-x="767" 
d="M399 -213q-53 0 -83 26t-30 69q0 55 61 120q-127 12 -208 100.5t-81 221.5v376h140v-376q0 -84 52.5 -134t133.5 -50t133 50t52 134v376h140v-376q0 -127 -73.5 -213.5t-191.5 -105.5q-53 -53 -53 -88q0 -24 28 -24q17 0 53 8v-103q-40 -11 -73 -11z" />
    <glyph glyph-name="uogonek" unicode="&#x173;" horiz-adv-x="578" 
d="M493 -202q-40 -11 -73 -11q-53 0 -83 26t-30 69q0 63 83 142v52q-59 -88 -159 -88q-85 0 -129 53.5t-44 147.5v311h135v-278q0 -107 84 -107q54 0 81 39.5t27 106.5v239h133v-500h-58q-48 -51 -48 -83q0 -24 28 -24q17 0 53 8v-103z" />
    <glyph glyph-name="Wcircumflex" unicode="&#x174;" horiz-adv-x="1240" 
d="M432 786l185 157l185 -157l-69 -73l-116 100l-117 -100zM412 0h-131l-271 700h150l189 -488l202 488h138l202 -488l189 488h150l-271 -700h-131l-208 499z" />
    <glyph glyph-name="wcircumflex" unicode="&#x175;" horiz-adv-x="851" 
d="M237 611l185 157l185 -157l-69 -73l-116 100l-117 -100zM300 0h-100l-203 500h144l112 -298l119 298h107l120 -298l111 298h144l-203 -500h-100l-125 297z" />
    <glyph glyph-name="Ycircumflex" unicode="&#x176;" horiz-adv-x="710" 
d="M163 786l185 157l185 -157l-69 -73l-116 100l-117 -100zM425 0h-140v271l-286 429h169l187 -280l187 280h169l-286 -429v-271z" />
    <glyph glyph-name="ycircumflex" unicode="&#x177;" horiz-adv-x="538" 
d="M87 611l185 157l185 -157l-69 -73l-116 100l-117 -100zM227 -200h-140l122 272l-212 428h154l128 -274l123 274h140z" />
    <glyph glyph-name="Ydieresis" unicode="&#x178;" horiz-adv-x="710" 
d="M173 810q0 33 22.5 55.5t55.5 22.5t55.5 -22.5t22.5 -55.5t-22.5 -55.5t-55.5 -22.5t-55.5 22.5t-22.5 55.5zM379 810q0 33 22.5 55.5t55.5 22.5t55.5 -22.5t22.5 -55.5t-22.5 -55.5t-55.5 -22.5t-55.5 22.5t-22.5 55.5zM425 0h-140v271l-286 429h169l187 -280l187 280
h169l-286 -429v-271z" />
    <glyph glyph-name="Zacute" unicode="&#x179;" horiz-adv-x="665" 
d="M190 802l225 136l58 -92l-225 -136zM47 700h571v-101l-362 -459h362v-140h-571v101l362 459h-362v140z" />
    <glyph glyph-name="zacute" unicode="&#x17a;" horiz-adv-x="488" 
d="M103 631l225 136l58 -92l-225 -136zM42 500h414v-103l-253 -275h261v-122h-440v103l252 275h-234v122z" />
    <glyph glyph-name="Zdotaccent" unicode="&#x17b;" horiz-adv-x="665" 
d="M248 806q0 36 24 60.5t60 24.5t60.5 -24.5t24.5 -60.5t-24.5 -60t-60.5 -24t-60 24t-24 60zM47 700h571v-101l-362 -459h362v-140h-571v101l362 459h-362v140z" />
    <glyph glyph-name="zdotaccent" unicode="&#x17c;" horiz-adv-x="488" 
d="M163 643q0 36 24 60.5t60 24.5t60.5 -24.5t24.5 -60.5t-24.5 -60t-60.5 -24t-60 24t-24 60zM42 500h414v-103l-253 -275h261v-122h-440v103l252 275h-234v122z" />
    <glyph glyph-name="Zcaron" unicode="&#x17d;" horiz-adv-x="665" 
d="M326 855l116 100l69 -73l-185 -157l-185 157l68 73zM47 700h571v-101l-362 -459h362v-140h-571v101l362 459h-362v140z" />
    <glyph glyph-name="zcaron" unicode="&#x17e;" horiz-adv-x="488" 
d="M241 685l116 100l69 -73l-185 -157l-185 157l68 73zM42 500h414v-103l-253 -275h261v-122h-440v103l252 275h-234v122z" />
    <glyph glyph-name="florin" unicode="&#x192;" horiz-adv-x="437" 
d="M93 -209q-41 0 -84 6v123q36 -5 68 -5t45.5 16.5t13.5 53.5v434h-93v81h93v23q0 93 48 139.5t131 46.5q39 0 98 -9v-123q-54 8 -82 8q-36 0 -50.5 -16t-14.5 -54v-15h142v-81h-142v-442q0 -93 -46.5 -139.5t-126.5 -46.5z" />
    <glyph glyph-name="AEacute" unicode="&#x1fc;" horiz-adv-x="1048" 
d="M650 802l225 136l58 -92l-225 -136zM541 0v110h-296l-72 -110h-168l462 700h74v-139l-204 -311h204v450h452v-140h-312v-140h312v-140h-312v-140h312v-140h-452z" />
    <glyph glyph-name="aeacute" unicode="&#x1fd;" horiz-adv-x="877" 
d="M308 631l225 136l58 -92l-225 -136zM623 -12q-139 0 -207 96q-77 -95 -205 -95q-81 0 -131.5 43.5t-50.5 113.5q0 66 44.5 107.5t115.5 48.5l137 12q26 3 26 20v8q0 23 -22 36.5t-65 13.5q-100 0 -125 -64l-98 70q22 54 80.5 83.5t134.5 29.5q118 0 174 -75q66 76 179 76
q110 0 176 -72.5t66 -193.5v-36h-368v-2q12 -48 50 -72t87 -24q77 0 139 51l56 -109q-79 -66 -193 -66zM708 306q-5 42 -33 68t-76 26q-46 0 -76 -24t-40 -70h225zM352 202v20l-124 -15q-62 -9 -62 -55q0 -24 18.5 -38.5t52.5 -14.5q50 0 82.5 30.5t32.5 72.5z" />
    <glyph glyph-name="Oslashacute" unicode="&#x1fe;" horiz-adv-x="788" 
d="M255 802l225 136l58 -92l-225 -136zM178 350q0 -85 52 -143l270 324q-47 29 -112 29q-92 0 -151 -59t-59 -151zM388 140q92 0 151 59t59 151q0 79 -45 135l-268 -321q48 -24 103 -24zM388 0q-108 0 -194 55l-51 -61l-54 45l50 60q-101 99 -101 251q0 150 100 250t250 100
q115 0 203 -61l56 67l53 -46l-56 -67q94 -99 94 -243q0 -150 -100 -250t-250 -100z" />
    <glyph glyph-name="oslashacute" unicode="&#x1ff;" horiz-adv-x="592" 
d="M152 631l225 136l58 -92l-225 -136zM163 250q0 -43 23 -79l170 199q-26 13 -60 13q-57 0 -95 -37t-38 -96zM296 117q57 0 95 37t38 96q0 43 -22 76l-168 -198q27 -11 57 -11zM296 -12q-82 0 -145 37l-33 -39l-52 44l31 37q-70 72 -70 183q0 116 76 189t193 73
q83 0 147 -39l35 41l51 -45l-32 -38q68 -71 68 -181q0 -116 -76 -189t-193 -73z" />
    <glyph glyph-name="Scommaaccent" unicode="&#x218;" horiz-adv-x="553" 
d="M51 499q0 93 63.5 147t162.5 54q90 0 152.5 -46t80.5 -131l-127 -51q-20 88 -107 88q-41 0 -63 -17.5t-22 -44.5q0 -32 27 -48.5t87 -35.5q9 -2 14 -4q86 -28 135 -73.5t49 -133.5q0 -95 -63.5 -149t-162.5 -54q-87 0 -151 44t-83 133l125 54q21 -91 110 -91
q40 0 62.5 17t22.5 46q0 14 -6.5 26t-15 19.5t-25.5 15t-30 12t-37 11.5q-7 2 -10 3q-39 12 -67.5 26t-58.5 38t-46 60.5t-16 84.5zM254 -299l-65 41l51 77q-41 22 -41 69q0 33 23.5 56.5t56.5 23.5t56 -23.5t23 -56.5q0 -23 -15 -45z" />
    <glyph glyph-name="scommaaccent" unicode="&#x219;" horiz-adv-x="478" 
d="M46 353q0 75 56 117t155 42q127 0 199 -74l-74 -96q-21 23 -58 37t-77 14q-64 0 -64 -35q0 -18 21.5 -26t94.5 -24q76 -17 118 -51t42 -106q0 -163 -216 -163q-157 0 -222 83l77 100q54 -65 158 -65q67 0 67 38q0 19 -21 27.5t-90 23.5q-166 34 -166 158zM219 -299
l-65 41l51 77q-41 22 -41 69q0 33 23.5 56.5t56.5 23.5t56 -23.5t23 -56.5q0 -23 -15 -45z" />
    <glyph glyph-name="uni021A" unicode="&#x21a;" horiz-adv-x="656" 
d="M651 560h-253v-560h-140v560h-253v140h646v-140zM306 -299l-65 41l51 77q-41 22 -41 69q0 33 23.5 56.5t56.5 23.5t56 -23.5t23 -56.5q0 -23 -15 -45z" />
    <glyph glyph-name="uni021B" unicode="&#x21b;" horiz-adv-x="394" 
d="M358 10q-62 -15 -108 -15q-72 0 -109.5 37.5t-37.5 120.5v236h-91v111h91v134h132v-134h127v-111h-127v-217q0 -45 50 -45q25 0 73 8v-125zM216 -299l-65 41l51 77q-41 22 -41 69q0 33 23.5 56.5t56.5 23.5t56 -23.5t23 -56.5q0 -23 -15 -45z" />
    <glyph glyph-name="apostrophemod" unicode="&#x2bc;" horiz-adv-x="282" 
d="M108 376l-68 38l72 118q-25 11 -40.5 34.5t-15.5 51.5q0 39 27 66.5t66 27.5t66 -27.5t27 -66.5q0 -30 -17 -52z" />
    <glyph glyph-name="circumflex" unicode="&#x2c6;" horiz-adv-x="470" 
d="M50 611l185 157l185 -157l-69 -73l-116 100l-117 -100z" />
    <glyph glyph-name="caron" unicode="&#x2c7;" horiz-adv-x="470" 
d="M235 685l116 100l69 -73l-185 -157l-185 157l68 73z" />
    <glyph glyph-name="breve" unicode="&#x2d8;" horiz-adv-x="413" 
d="M261 731h102q0 -72 -42.5 -117t-114.5 -45t-114 45t-42 117h102q0 -28 14 -45t40 -17t40.5 17t14.5 45z" />
    <glyph glyph-name="dotaccent" unicode="&#x2d9;" horiz-adv-x="269" 
d="M50 643q0 36 24 60.5t60 24.5t60.5 -24.5t24.5 -60.5t-24.5 -60t-60.5 -24t-60 24t-24 60z" />
    <glyph glyph-name="ring" unicode="&#x2da;" horiz-adv-x="364" 
d="M50 683q0 57 38 94.5t94 37.5t94 -37.5t38 -94.5t-38 -94.5t-94 -37.5t-94 37.5t-38 94.5zM233 683q0 22 -14.5 36.5t-36.5 14.5t-36.5 -14t-14.5 -37q0 -22 14.5 -36.5t36.5 -14.5t36.5 14.5t14.5 36.5z" />
    <glyph glyph-name="ogonek" unicode="&#x2db;" horiz-adv-x="299" 
d="M154 43h95q-94 -81 -94 -126q0 -24 28 -24q17 0 53 8v-103q-40 -11 -73 -11q-53 0 -83 26t-30 69q0 71 104 161z" />
    <glyph glyph-name="tilde" unicode="&#x2dc;" horiz-adv-x="489" 
d="M310 552q-29 0 -71.5 22t-57.5 22q-22 0 -66 -42l-65 68q69 78 129 78q29 0 71.5 -22t57.5 -22q22 0 66 42l65 -68q-69 -78 -129 -78z" />
    <glyph glyph-name="hungarumlaut" unicode="&#x2dd;" horiz-adv-x="494" 
d="M50 614l127 190l88 -63l-131 -185zM229 598l127 190l88 -63l-130 -185z" />
    <glyph glyph-name="Delta" unicode="&#x394;" horiz-adv-x="724" 
d="M328 743h68l308 -743h-684zM531 86l-169 435l-168 -435h337z" />
    <glyph glyph-name="Omega" unicode="&#x3a9;" horiz-adv-x="775" 
d="M351 0h-319v113h126q-120 110 -120 260q0 151 99 245t251 94t251 -94t99 -245q0 -150 -121 -260h127v-113h-320v113q172 107 172 254q0 95 -59 151.5t-149 56.5t-149.5 -56.5t-59.5 -151.5q0 -147 172 -254v-113z" />
    <glyph glyph-name="mu" unicode="&#x3bc;" 
d="M264 -12q-27 0 -51 6v-194h-123v485h1v215h135v-278q0 -107 84 -107q54 0 81 39.5t27 106.5v239h133v-500h-128v76q-59 -88 -159 -88z" />
    <glyph glyph-name="pi" unicode="&#x3c0;" 
d="M185 500h428v-140h-86v-360h-136v360h-103l-81 -360h-138l80 360q-60 -5 -123 -23v129q81 34 159 34z" />
    <glyph glyph-name="THB" unicode="&#xe3f;" horiz-adv-x="632" 
d="M230 420h79v140h-79v-140zM370 560h-17v-140h17q32 0 52 20t20 52q0 31 -19 49.5t-53 18.5zM230 140h79v140h-79v-140zM370 280h-17v-140h17q34 0 53 18.5t19 49.5q0 33 -20 52.5t-52 19.5zM373 0h-20v-80h-44v80h-219v700h219v80h44v-80h20q97 0 153 -55t56 -142
q0 -110 -87 -153q87 -44 87 -153q0 -87 -56 -142t-153 -55z" />
    <glyph glyph-name="Wgrave" unicode="&#x1e80;" horiz-adv-x="1240" 
d="M473 846l59 93l224 -136l-58 -93zM412 0h-131l-271 700h150l189 -488l202 488h138l202 -488l189 488h150l-271 -700h-131l-208 499z" />
    <glyph glyph-name="wgrave" unicode="&#x1e81;" horiz-adv-x="851" 
d="M280 675l59 93l224 -136l-58 -93zM300 0h-100l-203 500h144l112 -298l119 298h107l120 -298l111 298h144l-203 -500h-100l-125 297z" />
    <glyph glyph-name="Wacute" unicode="&#x1e82;" horiz-adv-x="1240" 
d="M481 802l225 136l58 -92l-225 -136zM412 0h-131l-271 700h150l189 -488l202 488h138l202 -488l189 488h150l-271 -700h-131l-208 499z" />
    <glyph glyph-name="wacute" unicode="&#x1e83;" horiz-adv-x="851" 
d="M278 631l225 136l58 -92l-225 -136zM300 0h-100l-203 500h144l112 -298l119 298h107l120 -298l111 298h144l-203 -500h-100l-125 297z" />
    <glyph glyph-name="Wdieresis" unicode="&#x1e84;" horiz-adv-x="1240" 
d="M442 810q0 33 22.5 55.5t55.5 22.5t55.5 -22.5t22.5 -55.5t-22.5 -55.5t-55.5 -22.5t-55.5 22.5t-22.5 55.5zM648 810q0 33 22.5 55.5t55.5 22.5t55.5 -22.5t22.5 -55.5t-22.5 -55.5t-55.5 -22.5t-55.5 22.5t-22.5 55.5zM412 0h-131l-271 700h150l189 -488l202 488h138
l202 -488l189 488h150l-271 -700h-131l-208 499z" />
    <glyph glyph-name="wdieresis" unicode="&#x1e85;" horiz-adv-x="851" 
d="M241 644q0 33 22.5 55.5t55.5 22.5t55.5 -22.5t22.5 -55.5t-22.5 -55.5t-55.5 -22.5t-55.5 22.5t-22.5 55.5zM447 644q0 33 22.5 55.5t55.5 22.5t55.5 -22.5t22.5 -55.5t-22.5 -55.5t-55.5 -22.5t-55.5 22.5t-22.5 55.5zM300 0h-100l-203 500h144l112 -298l119 298h107
l120 -298l111 298h144l-203 -500h-100l-125 297z" />
    <glyph glyph-name="Ygrave" unicode="&#x1ef2;" horiz-adv-x="710" 
d="M203 846l59 93l224 -136l-58 -93zM425 0h-140v271l-286 429h169l187 -280l187 280h169l-286 -429v-271z" />
    <glyph glyph-name="ygrave" unicode="&#x1ef3;" horiz-adv-x="538" 
d="M130 675l59 93l224 -136l-58 -93zM227 -200h-140l122 272l-212 428h154l128 -274l123 274h140z" />
    <glyph glyph-name="endash" unicode="&#x2013;" horiz-adv-x="903" 
d="M70 370h763v-140h-763v140z" />
    <glyph glyph-name="emdash" unicode="&#x2014;" horiz-adv-x="1314" 
d="M70 370h1174v-140h-1174v140z" />
    <glyph glyph-name="quoteleft" unicode="&#x2018;" horiz-adv-x="282" 
d="M133 376q-39 0 -66 27.5t-27 66.5q0 30 17 52l117 190l68 -38l-72 -118q25 -11 40.5 -34.5t15.5 -51.5q0 -39 -27 -66.5t-66 -27.5z" />
    <glyph glyph-name="quoteright" unicode="&#x2019;" horiz-adv-x="282" 
d="M108 376l-68 38l72 118q-25 11 -40.5 34.5t-15.5 51.5q0 39 27 66.5t66 27.5t66 -27.5t27 -66.5q0 -30 -17 -52z" />
    <glyph glyph-name="quotesinglbase" unicode="&#x201a;" horiz-adv-x="282" 
d="M108 -149l-68 38l72 118q-25 11 -40.5 34.5t-15.5 51.5q0 39 27 66.5t66 27.5t66 -27.5t27 -66.5q0 -30 -17 -52z" />
    <glyph glyph-name="quotedblleft" unicode="&#x201c;" horiz-adv-x="511" 
d="M362 376q-39 0 -65.5 27.5t-26.5 65.5q0 31 16 53l117 190l68 -39l-72 -118q25 -10 40.5 -33.5t15.5 -52.5q0 -38 -27 -65.5t-66 -27.5zM133 376q-39 0 -66 27.5t-27 65.5q0 31 17 53l117 190l68 -39l-72 -118q25 -11 40.5 -34.5t15.5 -51.5q0 -38 -27 -65.5t-66 -27.5z
" />
    <glyph glyph-name="quotedblright" unicode="&#x201d;" horiz-adv-x="511" 
d="M108 376l-68 39l72 118q-25 10 -40.5 33.5t-15.5 52.5q0 38 27 65.5t66 27.5t66 -27.5t27 -65.5q0 -30 -17 -53zM338 376l-68 39l72 118q-25 10 -40.5 33.5t-15.5 52.5q0 38 27 65.5t66 27.5t65.5 -27.5t26.5 -65.5q0 -29 -16 -53z" />
    <glyph glyph-name="quotedblbase" unicode="&#x201e;" horiz-adv-x="511" 
d="M118 -150l-69 39l72 118q-25 11 -40 34.5t-15 51.5q0 38 26.5 65.5t65.5 27.5t66 -27.5t27 -65.5q0 -29 -16 -53zM347 -150l-68 39l72 118q-25 11 -40.5 34.5t-15.5 51.5q0 38 27 65.5t66 27.5t66 -27.5t27 -65.5q0 -30 -17 -53z" />
    <glyph glyph-name="dagger" unicode="&#x2020;" horiz-adv-x="515" 
d="M500 386h-177v-481h-132v481h-176v124h176v231h132v-231h177v-124z" />
    <glyph glyph-name="daggerdbl" unicode="&#x2021;" horiz-adv-x="503" 
d="M488 103h-170v-198h-133v198h-170v124h170v192h-170v124h170v198h133v-198h170v-124h-170v-192h170v-124z" />
    <glyph glyph-name="bullet" unicode="&#x2022;" horiz-adv-x="456" 
d="M90 319q0 60 39 99t99 39t99 -39t39 -99q0 -59 -39 -98t-99 -39t-99 39t-39 98z" />
    <glyph glyph-name="ellipsis" unicode="&#x2026;" horiz-adv-x="970" 
d="M485 190q41 0 68 -27t27 -68t-27 -68t-68 -27t-68 27t-27 68t27 68t68 27zM182 190q41 0 68.5 -27.5t27.5 -67.5t-27.5 -67.5t-68.5 -27.5q-40 0 -67 27t-27 68t27 68t67 27zM787 190q41 0 68 -27t27 -68t-27 -68t-68 -27t-68 27t-27 68t27 68t68 27z" />
    <glyph glyph-name="perthousand" unicode="&#x2030;" horiz-adv-x="1079" 
d="M50 29l562 696l65 -54l-562 -696zM38 546q0 65 44.5 109.5t109.5 44.5t109.5 -44.5t44.5 -109.5t-44.5 -109.5t-109.5 -44.5t-109.5 44.5t-44.5 109.5zM259 546q0 29 -19 48t-48 19t-48 -19t-19 -48t19 -48t48 -19t48 19t19 48zM374 154q0 65 44.5 109.5t109.5 44.5
t109.5 -44.5t44.5 -109.5t-44.5 -109.5t-109.5 -44.5t-109.5 44.5t-44.5 109.5zM736 154q0 65 44.5 109.5t109.5 44.5t109.5 -44.5t44.5 -109.5t-44.5 -109.5t-109.5 -44.5t-109.5 44.5t-44.5 109.5zM956 154q0 29 -18.5 48t-47.5 19t-48 -19t-19 -48t19 -48t48 -19t47.5 19
t18.5 48zM594 154q0 29 -18.5 48t-47.5 19t-48 -19t-19 -48t19 -48t48 -19t47.5 19t18.5 48z" />
    <glyph glyph-name="guilsinglleft" unicode="&#x2039;" horiz-adv-x="430" 
d="M40 260l224 238l88 -80l-150 -158l150 -158l-88 -79z" />
    <glyph glyph-name="guilsinglright" unicode="&#x203a;" horiz-adv-x="430" 
d="M390 260l-225 -237l-87 79l150 158l-150 158l87 80z" />
    <glyph glyph-name="fraction" unicode="&#x2044;" horiz-adv-x="274" 
d="M-176 29l562 696l65 -54l-562 -696z" />
    <glyph glyph-name="zerosuperior" unicode="&#x2070;" horiz-adv-x="485" 
d="M41 610q0 94 57.5 152t143.5 58q87 0 144.5 -58t57.5 -152t-57.5 -152t-144.5 -58q-86 0 -143.5 58t-57.5 152zM348 610q0 54 -29 83.5t-77 29.5q-47 0 -76 -30t-29 -83t29 -83t76 -30q48 0 77 29.5t29 83.5z" />
    <glyph glyph-name="foursuperior" unicode="&#x2074;" horiz-adv-x="426" 
d="M258 820h80v-265h53v-96h-53v-59h-97v59h-213v82zM241 555v95l-76 -95h76z" />
    <glyph glyph-name="fivesuperior" unicode="&#x2075;" horiz-adv-x="366" 
d="M53 820h270v-97h-173v-32l6 1h9q73 0 115.5 -37t42.5 -106q0 -71 -43.5 -110t-115.5 -39t-140 36l39 87q54 -26 99 -26q28 0 46 12.5t18 36.5q0 50 -83 50q-33 0 -90 -9v233z" />
    <glyph glyph-name="sixsuperior" unicode="&#x2076;" horiz-adv-x="365" 
d="M188 400q-89 0 -129 68q-29 51 -29 130q0 98 44 160t138 62q48 0 104 -23l-34 -90q-42 16 -75 16q-32 0 -51.5 -15t-22.5 -37v-1q32 17 61 17q58 0 97 -38t39 -103q0 -66 -40 -106t-102 -40zM182 590q-23 0 -37 -12.5t-14 -34.5q0 -21 14.5 -33.5t36.5 -12.5
q23 0 37 12.5t14 34.5q0 20 -14.5 33t-36.5 13z" />
    <glyph glyph-name="sevensuperior" unicode="&#x2077;" horiz-adv-x="350" 
d="M32 820h289v-78l-181 -342h-108l171 323h-171v97z" />
    <glyph glyph-name="eightsuperior" unicode="&#x2078;" horiz-adv-x="378" 
d="M46 706q0 52 39.5 83t103.5 31q63 0 103 -31t40 -83q0 -30 -15.5 -56t-44.5 -40q29 -14 44.5 -40t15.5 -56q0 -52 -40 -83t-103 -31q-64 0 -103.5 31t-39.5 83q0 68 59 96q-28 13 -43.5 39.5t-15.5 56.5zM235 691q0 14 -12.5 23t-33.5 9t-33.5 -9t-12.5 -23q0 -32 46 -32
t46 32zM235 529q0 32 -46 32t-46 -32q0 -14 12.5 -23t33.5 -9t33.5 9t12.5 23z" />
    <glyph glyph-name="ninesuperior" unicode="&#x2079;" horiz-adv-x="370" 
d="M239 677q0 21 -14 33.5t-37 12.5t-37 -12.5t-14 -33.5t14 -34t37 -13t37 13t14 34zM40 673q0 67 41.5 107t108.5 40q74 0 112 -51q38 -53 38 -149q0 -103 -44 -161.5t-134 -58.5q-51 0 -110 24l33 89q36 -16 78 -16q31 0 50 15t23 37v1q-36 -17 -61 -17q-58 0 -96.5 37.5
t-38.5 102.5z" />
    <glyph glyph-name="parenleftsuperior" unicode="&#x207d;" horiz-adv-x="242" 
d="M45 595q0 168 115 285l65 -57q-92 -109 -92 -228q0 -132 91 -243l-65 -55q-54 56 -84 136.5t-30 161.5z" />
    <glyph glyph-name="parenrightsuperior" unicode="&#x207e;" horiz-adv-x="242" 
d="M82 880q115 -117 115 -285q0 -81 -30 -161.5t-84 -136.5l-65 55q91 111 91 243q0 118 -91 228z" />
    <glyph glyph-name="nsuperior" unicode="&#x207f;" horiz-adv-x="373" 
d="M130 656q36 51 97 51q50 0 76.5 -30.5t26.5 -86.5v-190h-93v161q0 58 -48 58q-57 0 -57 -73v-146h-91v300h89v-44z" />
    <glyph glyph-name="zeroinferior" unicode="&#x2080;" horiz-adv-x="485" 
d="M41 60q0 94 57.5 152t143.5 58q87 0 144.5 -58t57.5 -152t-57.5 -152t-144.5 -58q-86 0 -143.5 58t-57.5 152zM348 60q0 54 -29 83.5t-77 29.5q-47 0 -76 -30t-29 -83t29 -83t76 -30q48 0 77 29.5t29 83.5z" />
    <glyph glyph-name="oneinferior" unicode="&#x2081;" horiz-adv-x="319" 
d="M173 270h80v-420h-96v268l-72 -69l-67 70z" />
    <glyph glyph-name="twoinferior" unicode="&#x2082;" horiz-adv-x="367" 
d="M29 181q51 89 153 89q66 0 105 -37t39 -98q0 -67 -53 -118l-76 -70h129v-97h-286v76l155 146q34 32 34 57q0 20 -13.5 32t-36.5 12q-47 0 -79 -50z" />
    <glyph glyph-name="threeinferior" unicode="&#x2083;" horiz-adv-x="363" 
d="M24 213q46 57 143 57q72 0 111 -32t39 -84q0 -38 -19 -62t-45 -32q26 -8 45 -32t19 -62q0 -53 -39 -84.5t-111 -31.5q-98 0 -143 58l62 73q29 -34 81 -34q54 0 54 33t-53 33h-34v94h34q53 2 53 33q0 33 -54 33q-51 0 -81 -34z" />
    <glyph glyph-name="fourinferior" unicode="&#x2084;" horiz-adv-x="426" 
d="M258 270h80v-265h53v-96h-53v-59h-97v59h-213v81zM241 5v95l-76 -95h76z" />
    <glyph glyph-name="fiveinferior" unicode="&#x2085;" horiz-adv-x="366" 
d="M53 270h270v-97h-173v-32l6 1h9q73 0 115.5 -37t42.5 -106q0 -71 -43.5 -110t-115.5 -39q-76 0 -140 36l39 87q54 -26 99 -26q28 0 46 12t18 36q0 51 -83 51q-33 0 -90 -9v233z" />
    <glyph glyph-name="sixinferior" unicode="&#x2086;" horiz-adv-x="365" 
d="M188 -150q-89 0 -129 68q-29 49 -29 130q0 98 44 160t138 62q48 0 104 -23l-34 -90q-42 16 -75 16q-32 0 -51.5 -15t-22.5 -37v-1q32 17 61 17q58 0 97 -38.5t39 -103.5q0 -66 -40 -105.5t-102 -39.5zM182 40q-23 0 -37 -12.5t-14 -34.5q0 -21 14.5 -33.5t36.5 -12.5
q23 0 37 12.5t14 33.5t-14 34t-37 13z" />
    <glyph glyph-name="seveninferior" unicode="&#x2087;" horiz-adv-x="350" 
d="M32 270h289v-78l-181 -342h-108l171 323h-171v97z" />
    <glyph glyph-name="eightinferior" unicode="&#x2088;" horiz-adv-x="378" 
d="M46 156q0 52 39.5 83t103.5 31q63 0 103 -31t40 -83q0 -30 -15.5 -56t-44.5 -40q29 -14 44.5 -40t15.5 -56q0 -52 -40 -83t-103 -31q-64 0 -103.5 31t-39.5 83q0 68 59 96q-28 13 -43.5 39.5t-15.5 56.5zM235 141q0 14 -12.5 23t-33.5 9t-33.5 -9t-12.5 -23q0 -32 46 -32
t46 32zM235 -21q0 32 -46 32t-46 -32q0 -14 12.5 -23t33.5 -9t33.5 9t12.5 23z" />
    <glyph glyph-name="nineinferior" unicode="&#x2089;" horiz-adv-x="370" 
d="M239 127q0 21 -14 33.5t-37 12.5t-37 -12.5t-14 -33.5t14 -34t37 -13t37 13t14 34zM40 123q0 67 41.5 107t108.5 40q74 0 112 -51q38 -53 38 -149q0 -103 -44 -161.5t-134 -58.5q-51 0 -110 24l33 89q36 -16 78 -16q31 0 50 15t23 37v1q-36 -17 -61 -17q-58 0 -96.5 37.5
t-38.5 102.5z" />
    <glyph glyph-name="parenleftinferior" unicode="&#x208d;" horiz-adv-x="242" 
d="M45 45q0 168 115 285l65 -57q-92 -109 -92 -228q0 -132 91 -243l-65 -56q-54 57 -84 138t-30 161z" />
    <glyph glyph-name="parenrightinferior" unicode="&#x208e;" horiz-adv-x="242" 
d="M82 330q115 -117 115 -285q0 -80 -30 -161t-84 -138l-65 56q91 111 91 243q0 118 -91 228z" />
    <glyph glyph-name="TRY" unicode="&#x20a4;" horiz-adv-x="668" 
d="M288 140q92 0 151 59t59 151h140q0 -150 -100 -250t-250 -100h-140v285l-98 -30v75l98 30v60l-98 -30v75l98 30v205h140v-162l188 58v-74l-188 -58v-61l188 58v-74l-188 -58v-189z" />
    <glyph glyph-name="Euro" unicode="&#x20ac;" horiz-adv-x="711" 
d="M604 36q-75 -36 -148 -36q-116 0 -202 68.5t-113 186.5h-95l34 70h51q-1 8 -1 26q0 17 1 25h-79l34 70h55q27 116 113.5 185t204.5 69q136 0 229 -76l-66 -129q-70 65 -163 65q-60 0 -105 -30.5t-66 -83.5h306l-37 -70h-286q-1 -8 -1 -26q0 -17 1 -25h258l-36 -70h-206
q21 -54 65 -84.5t103 -30.5q61 0 120 34z" />
    <glyph glyph-name="Indianrupeesign" unicode="&#x20b9;" horiz-adv-x="638" 
d="M544 437h-45q-11 -88 -75.5 -145.5t-155.5 -57.5l243 -234h-195l-246 234h1l-1 140h197q33 0 56.5 17.5t32.5 45.5h-286v72h281q-24 51 -84 51h-197v140h538l-50 -72h-119q48 -51 58 -119h99z" />
    <glyph glyph-name="RUB" unicode="&#x20bd;" horiz-adv-x="675" 
d="M296 560v-168h117q44 0 68 23.5t24 60.5t-24 60.5t-68 23.5h-117zM525 138h-229v-138h-140v138h-85v72h85v42h-86v140h86v308h257q102 0 167 -63.5t65 -160.5t-65 -160.5t-167 -63.5h-117v-42h229v-72z" />
    <glyph glyph-name="afii61289" unicode="&#x2113;" horiz-adv-x="548" 
d="M306 -12q-74 0 -119 45.5t-49 137.5q-9 -7 -50 -32l-58 86q56 34 108 74v245q-1 117 48.5 170.5t123.5 53.5q71 0 113.5 -44t42.5 -119q0 -170 -213 -349v-50q0 -104 70 -104q50 0 104 75l71 -71q-44 -59 -89 -88.5t-103 -29.5zM253 580v-175q97 109 97 194
q0 29 -12.5 45.5t-33.5 16.5q-23 0 -37 -20t-14 -61z" />
    <glyph glyph-name="afii61352" unicode="&#x2116;" horiz-adv-x="1317" 
d="M1277 417q0 -101 -68 -167t-168 -66q-101 0 -169 66t-68 167q0 100 68 166t169 66q100 0 168 -66t68 -166zM1095 362q24 23 25 54.5t-23 57.5q-24 24 -55.5 23t-55.5 -25t-25 -55t23 -57q25 -25 56 -24t55 26zM580 700h140v-700h-122l-378 460v-460h-140v700h122
l378 -460v460zM826 114h430v-114h-430v114z" />
    <glyph glyph-name="trademark" unicode="&#x2122;" horiz-adv-x="1029" 
d="M50 700h373v-104h-134v-293h-104v293h-135v104zM876 700h103v-397h-104v201l-113 -201h-79l-114 201v-201h-104v397h103l155 -265z" />
    <glyph glyph-name="uni2126" unicode="&#x2126;" horiz-adv-x="775" 
d="M351 0h-319v113h126q-120 110 -120 260q0 151 99 245t251 94t251 -94t99 -245q0 -150 -121 -260h127v-113h-320v113q172 107 172 254q0 95 -59 151.5t-149 56.5t-149.5 -56.5t-59.5 -151.5q0 -147 172 -254v-113z" />
    <glyph glyph-name="estimated" unicode="&#x212e;" horiz-adv-x="770" 
d="M35 304q0 131 102.5 223.5t248.5 92.5t249 -92.5t103 -223.5v-9h-574v-140q0 -70 52 -104q68 -45 172 -45q73 0 138.5 27.5t109.5 77.5h29q-48 -57 -121.5 -90t-157.5 -33q-146 0 -248.5 92.5t-102.5 223.5zM565 552q-65 50 -177 50q-106 0 -172 -46q-52 -36 -52 -85
v-158h445v152q0 53 -44 87z" />
    <glyph glyph-name="arrowleft" unicode="&#x2190;" horiz-adv-x="863" 
d="M69 294l359 325l94 -97l-175 -161h447v-134h-447l175 -160l-94 -98z" />
    <glyph glyph-name="arrowup" unicode="&#x2191;" horiz-adv-x="787" 
d="M69 359l325 359l325 -359l-98 -94l-160 175v-440h-134v440l-161 -175z" />
    <glyph glyph-name="arrowright" unicode="&#x2192;" horiz-adv-x="863" 
d="M341 522l94 97l359 -325l-359 -325l-94 98l175 160h-447v134h447z" />
    <glyph glyph-name="arrowdown" unicode="&#x2193;" horiz-adv-x="787" 
d="M327 699h134v-440l160 175l98 -94l-325 -359l-325 359l97 94l161 -175v440z" />
    <glyph glyph-name="uni2196" unicode="&#x2196;" horiz-adv-x="700" 
d="M69 620l485 -25l-2 -135l-238 10l317 -317l-95 -95l-317 317l10 -238l-135 -2z" />
    <glyph glyph-name="uni2197" unicode="&#x2197;" horiz-adv-x="700" 
d="M145 595l486 25l-25 -485l-136 2l11 238l-317 -317l-95 95l317 317l-238 -10z" />
    <glyph glyph-name="uni2198" unicode="&#x2198;" horiz-adv-x="700" 
d="M69 542l95 95l317 -317l-11 238l136 2l25 -485l-486 24l3 136l238 -10z" />
    <glyph glyph-name="uni2199" unicode="&#x2199;" horiz-adv-x="700" 
d="M219 320l317 317l95 -95l-317 -317l238 10l2 -136l-485 -24l25 485l135 -2z" />
    <glyph glyph-name="partialdiff" unicode="&#x2202;" 
d="M293 -12q-110 0 -169.5 68t-59.5 163q0 103 68 169.5t165 66.5q69 0 137 -46q-15 182 -160 182q-72 0 -141 -44l-61 122q94 61 207 61q128 0 212.5 -94.5t84.5 -273.5q0 -165 -74.5 -269.5t-208.5 -104.5zM298 117q48 0 81 40t47 108q-48 54 -116 54q-47 0 -76 -29.5
t-29 -74.5q0 -42 26 -70t67 -28z" />
    <glyph glyph-name="uni2206" unicode="&#x2206;" horiz-adv-x="724" 
d="M328 743h68l308 -743h-684zM531 86l-169 435l-168 -435h337z" />
    <glyph glyph-name="product" unicode="&#x220f;" horiz-adv-x="683" 
d="M20 712h643v-135h-98v-666h-140v666h-166v-666h-140v666h-99v135z" />
    <glyph glyph-name="summation" unicode="&#x2211;" 
d="M74 700h486v-139h-274l169 -251l-180 -270h299v-139h-509v79l221 330l-212 312v78z" />
    <glyph glyph-name="minus" unicode="&#x2212;" 
d="M53 389h534v-140h-534v140z" />
    <glyph glyph-name="radical" unicode="&#x221a;" 
d="M357 170l130 756l134 -19l-173 -963h-143l-154 407l-78 -32l-54 121l210 88z" />
    <glyph glyph-name="infinity" unicode="&#x221e;" horiz-adv-x="776" 
d="M388 376q94 101 184 101q75 0 129.5 -52t54.5 -130q0 -77 -54 -128.5t-129 -51.5q-92 0 -185 99q-93 -99 -185 -99q-75 0 -129 51.5t-54 128.5q0 78 54.5 130t129.5 52q90 0 184 -101zM631 295q0 27 -19 45.5t-47 18.5q-43 0 -102 -64q59 -63 103 -63q28 0 46.5 17.5
t18.5 45.5zM313 295q-59 64 -102 64q-29 0 -47.5 -18t-18.5 -46t18.5 -45.5t46.5 -17.5q44 0 103 63z" />
    <glyph glyph-name="integral" unicode="&#x222b;" 
d="M248 696q0 82 42.5 121.5t119.5 39.5q41 0 99 -9v-134q-43 6 -69 6q-27 0 -39.5 -14.5t-12.5 -48.5v-705q0 -79 -42 -117.5t-116 -38.5q-41 0 -99 9v134q53 -7 69 -7q48 0 48 64v700z" />
    <glyph glyph-name="approxequal" unicode="&#x2248;" 
d="M34 440q47 42 88.5 64t90.5 22q50 0 121 -36t96 -36q43 0 102 53l73 -106q-96 -89 -178 -89q-49 0 -115.5 36.5t-102.5 36.5q-43 0 -102 -53zM34 199q46 42 88 64.5t91 22.5q50 0 121 -36t96 -36q44 0 102 52l73 -106q-95 -88 -178 -88q-49 0 -115.5 36t-102.5 36
q-43 0 -102 -53z" />
    <glyph glyph-name="notequal" unicode="&#x2260;" 
d="M592 113h-318l-71 -126l-101 54l40 72h-94v140h173l52 94h-225v140h304l67 120l105 -54l-37 -66h105v-140h-185l-53 -94h238v-140z" />
    <glyph glyph-name="lessequal" unicode="&#x2264;" 
d="M56 502l488 145l39 -144l-306 -78l306 -79l-39 -144l-488 145v155zM54 171h534v-139h-534v139z" />
    <glyph glyph-name="greaterequal" unicode="&#x2265;" 
d="M96 647l488 -145v-155l-488 -145l-39 144l306 79l-306 78zM52 171h534v-139h-534v139z" />
    <glyph glyph-name="uni2460" unicode="&#x2460;" horiz-adv-x="824" 
d="M50 350q0 155 103 258.5t259 103.5t259 -103.5t103 -258.5t-103 -258.5t-259 -103.5t-259 103.5t-103 258.5zM687 350q0 121 -77 198t-198 77t-197.5 -77t-76.5 -198t76.5 -197.5t197.5 -76.5t198 76.5t77 197.5zM401 568h80v-420h-96v268l-72 -69l-67 70z" />
    <glyph glyph-name="uni2461" unicode="&#x2461;" horiz-adv-x="824" 
d="M412 712q156 0 259 -103.5t103 -258.5t-103 -258.5t-259 -103.5t-259 103.5t-103 258.5t103 258.5t259 103.5zM412 76q121 0 198 76.5t77 197.5t-77 198t-198 77t-197.5 -77t-76.5 -198t76.5 -197.5t197.5 -76.5zM412 579q66 0 105 -37.5t39 -98.5q0 -68 -54 -117
l-75 -71h129v-96h-287v75l156 147q34 30 34 56q0 20 -14 32.5t-37 12.5q-45 0 -79 -50l-70 58q50 89 153 89z" />
    <glyph glyph-name="uni2462" unicode="&#x2462;" horiz-adv-x="824" 
d="M412 712q156 0 259 -103.5t103 -258.5t-103 -258.5t-259 -103.5t-259 103.5t-103 258.5t103 258.5t259 103.5zM687 350q0 121 -77 198t-198 77t-197.5 -77t-76.5 -198t76.5 -197.5t197.5 -76.5t198 76.5t77 197.5zM414 564q72 0 111 -32t39 -84q0 -38 -19 -62t-45 -32
q26 -8 45 -32t19 -62q0 -53 -39 -84.5t-111 -31.5q-97 0 -143 57l62 74q30 -35 81 -35q54 0 54 34q0 31 -53 33h-34v94h34q53 2 53 33q0 33 -54 33q-51 0 -81 -34l-62 73q47 58 143 58z" />
    <glyph glyph-name="uni2463" unicode="&#x2463;" horiz-adv-x="824" 
d="M412 712q156 0 259 -103.5t103 -258.5t-103 -258.5t-259 -103.5t-259 103.5t-103 258.5t103 258.5t259 103.5zM412 625q-121 0 -197.5 -77t-76.5 -198t76.5 -197.5t197.5 -76.5t198 76.5t77 197.5t-77 198t-198 77zM516 579v-264h53v-97h-53v-59h-98v59h-202v82l220 279
h80zM418 415l-76 -100h76v100z" />
    <glyph glyph-name="uni2464" unicode="&#x2464;" horiz-adv-x="824" 
d="M412 712q156 0 259 -103.5t103 -258.5t-103 -258.5t-259 -103.5t-259 103.5t-103 258.5t103 258.5t259 103.5zM412 625q-121 0 -197.5 -77t-76.5 -198t76.5 -197.5t197.5 -76.5t198 76.5t77 197.5t-77 198t-198 77zM295 557h251v-97h-154v-33q2 2 15 2q73 0 115.5 -37
t42.5 -106q0 -71 -43.5 -110t-115.5 -39q-76 0 -140 36l39 87q54 -26 99 -26q28 0 46 12t18 36q0 51 -83 51q-33 0 -90 -9v233z" />
    <glyph glyph-name="uni2465" unicode="&#x2465;" horiz-adv-x="824" 
d="M412 712q156 0 259 -103.5t103 -258.5t-103 -258.5t-259 -103.5t-259 103.5t-103 258.5t103 258.5t259 103.5zM412 625q-121 0 -197.5 -77t-76.5 -198t76.5 -197.5t197.5 -76.5t198 76.5t77 197.5t-77 198t-198 77zM248 340q0 99 44 160.5t138 61.5q48 0 104 -23l-34 -90
q-40 17 -75 17q-32 0 -52 -15.5t-22 -37.5v-1q29 17 61 17q58 0 97 -38t39 -103q0 -66 -40.5 -106t-102.5 -40q-88 0 -128 68q-29 51 -29 130zM451 286q0 21 -14 33.5t-37 12.5t-37 -12.5t-14 -34.5q0 -21 14.5 -33.5t36.5 -12.5q23 0 37 12.5t14 34.5z" />
    <glyph glyph-name="uni2466" unicode="&#x2466;" horiz-adv-x="824" 
d="M412 712q156 0 259 -103.5t103 -258.5t-103 -258.5t-259 -103.5t-259 103.5t-103 258.5t103 258.5t259 103.5zM412 625q-121 0 -197.5 -77t-76.5 -198t76.5 -197.5t197.5 -76.5t198 76.5t77 197.5t-77 198t-198 77zM288 559h273v-78l-161 -342h-106l152 324h-158v96z" />
    <glyph glyph-name="uni2467" unicode="&#x2467;" horiz-adv-x="824" 
d="M412 712q156 0 259 -103.5t103 -258.5t-103 -258.5t-259 -103.5t-259 103.5t-103 258.5t103 258.5t259 103.5zM412 625q-121 0 -197.5 -77t-76.5 -198t76.5 -197.5t197.5 -76.5t198 76.5t77 197.5t-77 198t-198 77zM266 449q0 51 40.5 82.5t106.5 31.5q65 0 106 -31
t41 -83q0 -30 -16.5 -56t-47.5 -40q31 -14 47.5 -40t16.5 -56q0 -52 -41 -83t-106 -31t-106 31t-41 83q0 67 63 96q-63 27 -63 96zM463 434q0 14 -13.5 23t-36.5 9t-36.5 -9t-13.5 -23q0 -32 50 -32t50 32zM463 272q0 32 -50 32t-50 -32q0 -14 13.5 -23t36.5 -9t36.5 9
t13.5 23z" />
    <glyph glyph-name="uni2468" unicode="&#x2468;" horiz-adv-x="824" 
d="M412 712q156 0 259 -103.5t103 -258.5t-103 -258.5t-259 -103.5t-259 103.5t-103 258.5t103 258.5t259 103.5zM412 76q121 0 198 76.5t77 197.5t-77 198t-198 77t-197.5 -77t-76.5 -198t76.5 -197.5t197.5 -76.5zM421 378q23 0 37 13t14 34t-14.5 33.5t-36.5 12.5
q-23 0 -37 -12.5t-14 -34.5q0 -20 14 -33t37 -13zM423 568q74 0 112 -52q38 -51 38 -148q0 -103 -44 -161.5t-134 -58.5q-51 0 -110 24l33 89q39 -17 77 -17q32 0 51 15.5t23 37.5v1q-36 -17 -61 -17q-58 0 -96.5 37.5t-38.5 102.5q0 66 41.5 106.5t108.5 40.5z" />
    <glyph glyph-name="lozenge" unicode="&#x25ca;" 
d="M285 754h70l242 -422l-242 -422h-70l-242 422zM444 332l-124 229l-124 -229l124 -229z" />
    <glyph glyph-name="circle" unicode="&#x25cb;" horiz-adv-x="824" 
d="M50 350q0 155 103 258.5t259 103.5t259 -103.5t103 -258.5t-103 -258.5t-259 -103.5t-259 103.5t-103 258.5zM687 350q0 121 -77 198t-198 77t-197.5 -77t-76.5 -198t76.5 -197.5t197.5 -76.5t198 76.5t77 197.5z" />
    <glyph glyph-name="uni2776" unicode="&#x2776;" horiz-adv-x="824" 
d="M412 712q156 0 259 -103.5t103 -258.5t-103 -258.5t-259 -103.5t-259 103.5t-103 258.5t103 258.5t259 103.5zM490 152v420h-80l-155 -151l67 -69l72 69v-269h96z" />
    <glyph glyph-name="uni2777" unicode="&#x2777;" horiz-adv-x="824" 
d="M412 712q156 0 259 -103.5t103 -258.5t-103 -258.5t-259 -103.5t-259 103.5t-103 258.5t103 258.5t259 103.5zM561 443q0 61 -39.5 98.5t-105.5 37.5q-100 0 -153 -89l71 -58q32 50 79 50q23 0 36.5 -12.5t13.5 -32.5q0 -27 -34 -56l-155 -147v-75h287v96h-130l76 71
q54 50 54 117z" />
    <glyph glyph-name="uni2778" unicode="&#x2778;" horiz-adv-x="824" 
d="M412 712q156 0 259 -103.5t103 -258.5t-103 -258.5t-259 -103.5t-259 103.5t-103 258.5t103 258.5t259 103.5zM409 570q-47 0 -85 -16t-58 -41l63 -74q29 34 81 34q53 0 53 -33q0 -32 -52 -33h-35v-94h35q52 0 52 -33t-53 -33q-52 0 -81 34l-63 -73q47 -58 143 -58
q73 0 112 32t39 84q0 38 -19 62t-46 32q27 8 46 32t19 62q0 52 -39 84t-112 32z" />
    <glyph glyph-name="uni2779" unicode="&#x2779;" horiz-adv-x="824" 
d="M412 712q156 0 259 -103.5t103 -258.5t-103 -258.5t-259 -103.5t-259 103.5t-103 258.5t103 258.5t259 103.5zM516 315v264h-80l-220 -279v-82h202v-59h98v59h53v97h-53zM342 315l76 100v-100h-76z" />
    <glyph glyph-name="uni277A" unicode="&#x277a;" horiz-adv-x="824" 
d="M412 712q156 0 259 -103.5t103 -258.5t-103 -258.5t-259 -103.5t-259 103.5t-103 258.5t103 258.5t259 103.5zM546 460v97h-251v-233q57 9 90 9q83 0 83 -51q0 -24 -18 -36t-46 -12q-47 0 -99 26l-39 -87q61 -36 140 -36q72 0 115 39t43 110q0 70 -42.5 106.5
t-114.5 36.5q-12 0 -16 -2v33h155z" />
    <glyph glyph-name="uni277B" unicode="&#x277b;" horiz-adv-x="824" 
d="M50 350q0 155 103 258.5t259 103.5t259 -103.5t103 -258.5t-103 -258.5t-259 -103.5t-259 103.5t-103 258.5zM534 548q-58 23 -105 23q-94 0 -137.5 -61.5t-43.5 -160.5q0 -78 28 -130q40 -68 129 -68q62 0 102 40t40 106q0 65 -39 103t-97 38q-30 0 -60 -17v1
q2 22 21.5 37t52.5 15q32 0 74 -16zM348 294q0 21 14.5 34t37.5 13q22 0 36 -13t14 -33q0 -22 -13.5 -34.5t-36.5 -12.5t-37.5 12.5t-14.5 33.5z" />
    <glyph glyph-name="uni277C" unicode="&#x277c;" horiz-adv-x="824" 
d="M50 350q0 155 103 258.5t259 103.5t259 -103.5t103 -258.5t-103 -258.5t-259 -103.5t-259 103.5t-103 258.5zM562 481v78h-273v-96h158l-152 -324h106z" />
    <glyph glyph-name="uni277D" unicode="&#x277d;" horiz-adv-x="824" 
d="M50 350q0 155 103 258.5t259 103.5t259 -103.5t103 -258.5t-103 -258.5t-259 -103.5t-259 103.5t-103 258.5zM560 452q0 52 -41 83t-106 31q-66 0 -106.5 -31.5t-40.5 -82.5q0 -30 16 -56t47 -40q-63 -28 -63 -96q0 -51 41 -82.5t106 -31.5q64 0 105.5 31.5t41.5 82.5
q0 30 -16.5 56t-47.5 40q31 14 47.5 40t16.5 56zM363 438q0 14 13.5 23t36.5 9t36.5 -9t13.5 -23q0 -33 -50 -33t-50 33zM363 275q0 15 13.5 24t36.5 9t36.5 -9t13.5 -24q0 -14 -13.5 -23t-36.5 -9t-36.5 9t-13.5 23z" />
    <glyph glyph-name="uni277E" unicode="&#x277e;" horiz-adv-x="824" 
d="M50 350q0 155 103 258.5t259 103.5t259 -103.5t103 -258.5t-103 -258.5t-259 -103.5t-259 103.5t-103 258.5zM363 426q0 21 14 34t37 13q22 0 36.5 -13t14.5 -34q0 -20 -14.5 -33.5t-36.5 -13.5q-23 0 -37 13t-14 34zM528 518q-38 51 -112 51q-67 0 -108.5 -40
t-41.5 -106q0 -65 38.5 -102.5t96.5 -37.5q27 0 61 16v-1q-4 -22 -23 -37t-51 -15q-41 0 -77 16l-33 -88q57 -25 110 -25q90 0 134 59t44 162q0 97 -38 148z" />
    <glyph glyph-name="commaaccent" unicode="&#xf6c3;" horiz-adv-x="269" 
d="M115 -299l-65 41l51 77q-41 22 -41 69q0 33 23.5 56.5t56.5 23.5t56 -23.5t23 -56.5q0 -23 -15 -45z" />
    <glyph glyph-name="asuperior" unicode="&#xf6e9;" horiz-adv-x="348" 
d="M215 521v8l-65 -8q-32 -5 -32 -28q0 -27 36 -27q27 0 44 15.5t17 39.5zM30 642q33 65 140 65q135 0 135 -127v-181h-90v40q-31 -46 -90 -46q-44 0 -72.5 26t-28.5 68q0 40 26.5 65t68.5 29l81 8q15 1 15 11v2q0 22 -47 22q-57 0 -73 -32z" />
    <glyph glyph-name="bsuperior" unicode="&#xf6ea;" horiz-adv-x="388" 
d="M41 820h91v-162q35 50 100 50q55 0 93 -42t38 -116t-38.5 -116t-94.5 -42q-62 0 -98 49v-41h-91v420zM200 482q29 0 49 18.5t20 49.5t-20 49.5t-49 18.5q-30 0 -49.5 -18.5t-19.5 -49.5t19.5 -49.5t49.5 -18.5z" />
    <glyph glyph-name="dsuperior" unicode="&#xf6eb;" horiz-adv-x="388" 
d="M188 618q-29 0 -49 -18.5t-20 -49.5t20 -49.5t49 -18.5q30 0 49.5 18.5t19.5 49.5t-19.5 49.5t-49.5 18.5zM256 820h91v-420h-91v41q-36 -49 -98 -49q-56 0 -94 41.5t-38 116.5t37.5 116.5t93.5 41.5q64 0 99 -50v162z" />
    <glyph glyph-name="esuperior" unicode="&#xf6ec;" horiz-adv-x="357" 
d="M26 551q0 68 42.5 112t113.5 44q68 0 109 -43t41 -117v-25h-213v-1q18 -43 73 -43q46 0 81 25l36 -76q-45 -34 -120 -34q-77 0 -120 45t-43 113zM232 587q-2 19 -17 31.5t-38 12.5q-47 0 -60 -44h115z" />
    <glyph glyph-name="isuperior" unicode="&#xf6ed;" horiz-adv-x="184" 
d="M92 840q23 0 39 -15.5t16 -38.5t-16 -39t-39 -16q-24 0 -39 15.5t-15 39.5q0 23 15 38.5t39 15.5zM47 700h91v-300h-91v300z" />
    <glyph glyph-name="lsuperior" unicode="&#xf6ee;" horiz-adv-x="174" 
d="M41 820h92v-420h-92v420z" />
    <glyph glyph-name="msuperior" unicode="&#xf6ef;" horiz-adv-x="565" 
d="M313 653q28 54 97 54q49 0 80.5 -32t31.5 -88v-187h-92v161q0 58 -47 58q-56 0 -56 -73v-146h-91v161q0 58 -48 58q-56 0 -56 -73v-146h-91v300h89v-44q33 51 93 51q65 0 90 -54z" />
    <glyph glyph-name="osuperior" unicode="&#xf6f0;" horiz-adv-x="377" 
d="M26 550q0 71 45.5 114t116.5 43t117 -43t46 -114q0 -70 -46 -113.5t-117 -43.5t-116.5 43.5t-45.5 113.5zM258 550q0 31 -20.5 49.5t-49.5 18.5t-49 -18.5t-20 -49.5t20 -49.5t49 -18.5t49.5 18.5t20.5 49.5z" />
    <glyph glyph-name="rsuperior" unicode="&#xf6f1;" horiz-adv-x="255" 
d="M129 649q25 58 83 58q14 0 29 -5v-97q-18 5 -38 5q-71 0 -71 -76v-134h-91v300h88v-51z" />
    <glyph glyph-name="ssuperior" unicode="&#xf6f2;" horiz-adv-x="310" 
d="M36 609q0 47 35 72.5t98 25.5q73 0 120 -36l-46 -70q-30 25 -83 25q-29 0 -29 -13q0 -7 11 -11t58 -14q44 -9 67.5 -31t23.5 -65q0 -99 -136 -99q-92 0 -133 41l47 74q39 -35 97 -35q31 0 31 15q0 7 -11.5 11t-55.5 14q-94 20 -94 96z" />
    <glyph glyph-name="tsuperior" unicode="&#xf6f3;" horiz-adv-x="264" 
d="M230 407q-42 -10 -71 -10q-90 0 -90 98v130h-52v75h52v80h91v-80h74v-75h-74v-112q0 -24 28 -24q12 0 42 5v-87z" />
    <glyph glyph-name="apple" unicode="&#xf8ff;" horiz-adv-x="870" 
d="M292 580h34l-64 -95v-68h-30v68l-65 95h34l46 -64zM613 474q0 11 -2.5 19t-11.5 19.5t-34 17.5t-63 6q-40 0 -101 -12v-171q0 -11 -10 -18.5t-22 -10.5t-22 -9t-10 -14q0 -16 22 -16q23 0 70.5 8.5t73.5 8.5q65 0 110 -25v197zM415 414q0 35 22.5 57.5t56.5 22.5
q36 0 58.5 -22.5t22.5 -57.5t-22.5 -58t-58.5 -23q-34 0 -56.5 23t-22.5 58zM547 414q0 22 -15 36.5t-38 14.5q-22 0 -36.5 -14.5t-14.5 -36.5t14.5 -37t36.5 -15q23 0 38 15t15 37zM372 577q0 28 -22.5 41.5t-52.5 13.5q-65 0 -176 -45v-230q110 42 176 42q44 0 75 -14v192
zM691 373h29v-100h-29v100zM65 676q0 16 10.5 26t26.5 10q15 0 26 -10.5t11 -25.5q0 -24 -18 -34v-24q103 42 176 42q42 0 73 -21.5t31 -61.5v-25q55 12 102 12q138 0 138 -83v-48q48 12 77 12q112 0 112 -79v-240q-52 32 -112 32q-19 0 -58 -10t-60 -10q-48 0 -48 46v86
q-23 5 -49 5q-23 0 -70.5 -9t-73.5 -9q-22 0 -35 12.5t-13 33.5v68h-14q-62 0 -176 -44v-327h-39v643q-17 11 -17 33zM371 352q0 11 -32 16v-32q5 3 13.5 5.5t13.5 4.5t5 6zM613 238q0 15 -34 26v-47q6 4 15 7.5t14 6.5t5 7zM686 231q0 19 20 19q19 0 19 -19q0 -20 -19 -20
q-20 0 -20 20zM803 365q0 29 -21.5 40t-63.5 11q-29 0 -77 -12v-167q0 -19 -31 -31.5t-31 -24.5q0 -16 21 -16q19 0 58.5 10.5t60.5 10.5q42 0 84 -15v194z" />
    <glyph glyph-name="commaturn" horiz-adv-x="272" 
d="M130 543q-33 0 -56.5 23t-23.5 56q0 25 15 45l90 143l67 -43l-50 -77q37 -24 37 -68q0 -33 -23 -56t-56 -23z" />
    <glyph glyph-name="zero.slash" horiz-adv-x="776" 
d="M194 350q0 -89 47 -145l231 337q-38 18 -84 18q-86 0 -140 -57t-54 -153zM388 140q85 0 139.5 57.5t54.5 152.5q0 93 -53 152l-233 -341q40 -21 92 -21zM388 0q-93 0 -171 45l-39 -57l-58 39l41 60q-107 101 -107 263q0 154 96 252t238 98q91 0 164 -41l36 53l57 -40
l-36 -53q113 -100 113 -269q0 -154 -96 -252t-238 -98z" />
    <glyph glyph-name="zero.tlfslash" 
d="M190 350q0 -58 11 -102l194 284q-31 28 -75 28q-60 0 -95 -51t-35 -159zM320 140q60 0 95 50.5t35 159.5q0 71 -15 116l-199 -290q33 -36 84 -36zM320 0q-95 0 -163 59l-49 -71l-58 39l60 87q-60 90 -60 236q0 168 76 259t194 91q90 0 154 -52l44 64l57 -40l-52 -76
q67 -93 67 -246q0 -168 -76 -259t-194 -91z" />
    <glyph glyph-name="zero.tlf" 
d="M50 350q0 168 76 259t194 91t194 -91.5t76 -258.5q0 -168 -76 -259t-194 -91t-194 91t-76 259zM450 350q0 108 -35 159t-95 51t-95 -51t-35 -159q0 -109 35 -159.5t95 -50.5t95 50.5t35 159.5zM238 350q0 34 24 57.5t58 23.5t57.5 -23.5t23.5 -57.5t-23.5 -57.5
t-57.5 -23.5t-58 23.5t-24 57.5z" />
    <glyph glyph-name="one.tlf" 
d="M591 0h-524v140h219v343l-136 -131l-97 101l255 247h118v-560h165v-140z" />
    <glyph glyph-name="two.tlf" 
d="M73 549q86 151 255 151q107 0 171 -61t64 -159q0 -110 -97 -205l-142 -135h240v-140h-465v112l261 250q63 63 63 111q0 38 -27.5 62.5t-71.5 24.5q-48 0 -85.5 -27.5t-61.5 -69.5z" />
    <glyph glyph-name="three.tlf" 
d="M79 585q30 51 93.5 83t144.5 32q112 0 176 -53t64 -141q0 -59 -28.5 -99t-69.5 -57q41 -17 69.5 -57t28.5 -99q0 -88 -64 -141t-176 -53q-81 0 -144.5 32t-93.5 83l95 104q23 -38 62 -58.5t82 -20.5q47 0 73 18.5t26 52.5q0 32 -26 51t-74 19h-54v138h54q49 0 74.5 19
t25.5 52t-26 51.5t-73 18.5q-44 0 -83 -20.5t-62 -58.5z" />
    <glyph glyph-name="four.tlf" 
d="M394 700h115v-449h87v-140h-87v-111h-140v111h-326v120zM369 251v192l-138 -192h138z" />
    <glyph glyph-name="five.tlf" 
d="M126 700h433v-140h-293v-84q16 4 40 4q116 0 184.5 -62t68.5 -174q0 -116 -70.5 -180t-183.5 -64q-128 0 -224 62l59 126q85 -48 163 -48q51 0 83.5 26t32.5 75q0 100 -141 100q-61 0 -152 -20v379z" />
    <glyph glyph-name="six.tlf" 
d="M75 322q0 60 9 113.5t31 102.5t55 84.5t83.5 56.5t113.5 21q77 0 169 -43l-55 -127q-65 30 -122 30q-58 0 -93.5 -35t-39.5 -83v-2q56 32 111 32q97 0 162 -63.5t65 -169.5q0 -107 -67 -173t-169 -66q-140 0 -206 108q-47 78 -47 214zM424 237q0 43 -28 69t-73 26
t-73.5 -27t-28.5 -69q0 -44 29 -70t73 -26t72.5 27t28.5 70z" />
    <glyph glyph-name="seven.tlf" 
d="M88 700h477v-117l-305 -583h-158l294 560h-308v140z" />
    <glyph glyph-name="eight.tlf" 
d="M87 509q0 86 65 138.5t168 52.5t168 -52.5t65 -138.5q0 -109 -97 -159q47 -24 72 -66t25 -92q0 -87 -65 -139.5t-168 -52.5t-168 52.5t-65 139.5q0 50 25 92t72 66q-97 50 -97 159zM413 491q0 31 -25.5 50t-67.5 19t-67.5 -19t-25.5 -50q0 -32 26 -51.5t67 -19.5t67 19
t26 52zM413 209q0 33 -26 52t-67 19t-67 -19t-26 -52q0 -31 25.5 -50t67.5 -19t67.5 19t25.5 50z" />
    <glyph glyph-name="nine.tlf" 
d="M417 465q0 43 -28.5 69t-72.5 26t-72.5 -27t-28.5 -70t28 -69t72 -26q45 0 73.5 27t28.5 70zM75 459q0 108 68.5 174.5t175.5 66.5q121 0 187 -89q58 -81 58 -238q0 -81 -15.5 -146t-48 -117t-90 -81t-135.5 -29q-86 0 -176 42l50 127q64 -29 128 -29q61 0 95.5 35
t38.5 83v1q-55 -31 -110 -31q-97 0 -161.5 62.5t-64.5 168.5z" />
    <glyph glyph-name="plussuperior" horiz-adv-x="440" 
d="M171 758h98v-118h117v-96h-117v-118h-98v118h-117v96h117v118z" />
    <glyph glyph-name="minussuperior" horiz-adv-x="440" 
d="M50 640h340v-96h-340v96z" />
    <glyph glyph-name="equalsuperior" horiz-adv-x="440" 
d="M50 703h341v-96h-341v96zM50 558h341v-97h-341v97z" />
    <glyph glyph-name="csuperior" horiz-adv-x="322" 
d="M26 550q0 71 45.5 114t115.5 43q72 0 116 -44l-50 -73q-26 28 -64 28q-30 0 -50 -19t-20 -49t19.5 -49t49.5 -19q37 0 65 28l50 -74q-45 -43 -116 -43q-70 0 -115.5 43t-45.5 114z" />
    <glyph glyph-name="fsuperior" horiz-adv-x="273" 
d="M252 625h-84v-225h-92v225h-62v75h62v14q0 55 31.5 84t82.5 29q22 0 64 -6v-84q-30 6 -48 6q-38 0 -38 -41v-2h84v-75z" />
    <glyph glyph-name="gsuperior" horiz-adv-x="392" 
d="M258 550q0 31 -19.5 49.5t-49.5 18.5q-29 0 -49 -18.5t-20 -49.5t20 -49.5t49 -18.5q30 0 49.5 18.5t19.5 49.5zM26 552q0 73 39.5 114t96.5 41q64 0 94 -50v43h92v-278q0 -67 -40.5 -108.5t-130.5 -41.5q-78 0 -131 36l38 79q41 -28 87 -28q87 0 87 69v16
q-32 -45 -93 -45q-60 0 -99.5 40t-39.5 113z" />
    <glyph glyph-name="hsuperior" horiz-adv-x="372" 
d="M41 820h91v-164q35 51 95 51q50 0 76.5 -30.5t26.5 -86.5v-190h-93v161q0 58 -48 58q-57 0 -57 -73v-146h-91v420z" />
    <glyph glyph-name="jsuperior" horiz-adv-x="191" 
d="M99 840q23 0 39 -15.5t16 -38.5t-16 -39t-39 -16t-38.5 16t-15.5 39t15.5 38.5t38.5 15.5zM54 700h91v-307q0 -117 -128 -117q-18 0 -31 2v83h12q32 0 44 10t12 33v296z" />
    <glyph glyph-name="ksuperior" horiz-adv-x="361" 
d="M232 400l-75 111l-25 -25v-86h-91v420h91v-223l97 103h120l-130 -129l129 -171h-116z" />
    <glyph glyph-name="psuperior" horiz-adv-x="388" 
d="M200 482q29 0 49 18.5t20 49.5t-20 49.5t-49 18.5q-30 0 -49.5 -18.5t-19.5 -49.5t19.5 -49.5t49.5 -18.5zM132 280h-91v420h91v-41q36 49 98 49q56 0 94.5 -42t38.5 -116t-38 -116t-93 -42q-65 0 -100 50v-162z" />
    <glyph glyph-name="qsuperior" horiz-adv-x="388" 
d="M347 280h-91v162q-35 -50 -99 -50q-56 0 -93.5 41.5t-37.5 116.5t38 116.5t94 41.5q62 0 98 -49v41h91v-420zM119 550q0 -31 20 -49.5t49 -18.5q30 0 49.5 18.5t19.5 49.5t-19.5 49.5t-49.5 18.5q-29 0 -49 -18.5t-20 -49.5z" />
    <glyph glyph-name="usuperior" horiz-adv-x="369" 
d="M234 700h91v-300h-88v46q-35 -53 -95 -53q-48 0 -74.5 30.5t-26.5 86.5v190h93v-162q0 -57 44 -57q26 0 41 19.5t15 54.5v145z" />
    <glyph glyph-name="vsuperior" horiz-adv-x="351" 
d="M210 400h-69l-136 300h100l70 -168l71 168h100z" />
    <glyph glyph-name="wsuperior" horiz-adv-x="527" 
d="M195 400h-69l-121 300h98l59 -161l64 161h75l64 -161l59 161h98l-121 -300h-69l-68 163z" />
    <glyph glyph-name="xsuperior" horiz-adv-x="368" 
d="M246 400l-62 82l-62 -82h-108l116 155l-109 145h108l55 -73l55 73h109l-109 -145l116 -155h-109z" />
    <glyph glyph-name="ysuperior" horiz-adv-x="346" 
d="M154 280h-96l73 165l-126 255h105l69 -149l66 149h95z" />
    <glyph glyph-name="zsuperior" horiz-adv-x="321" 
d="M35 700h259v-69l-146 -147h151v-84h-276v69l144 148h-132v83z" />
    <glyph glyph-name="plusinferior" horiz-adv-x="440" 
d="M171 208h98v-118h117v-96h-117v-118h-98v118h-117v96h117v118z" />
    <glyph glyph-name="minusinferior" horiz-adv-x="440" 
d="M50 90h340v-96h-340v96z" />
    <glyph glyph-name="equalinferior" horiz-adv-x="440" 
d="M50 153h341v-96h-341v96zM50 8h341v-97h-341v97z" />
    <glyph glyph-name="zero.num" horiz-adv-x="485" 
d="M242 700q87 0 144.5 -58t57.5 -152t-57.5 -152t-144.5 -58q-86 0 -143.5 58t-57.5 152t57.5 152t143.5 58zM348 490q0 54 -29 83.5t-77 29.5q-47 0 -76 -30t-29 -83t29 -83t76 -30q48 0 77 29.5t29 83.5z" />
    <glyph glyph-name="one.num" horiz-adv-x="319" 
d="M173 700h80v-420h-96v268l-72 -69l-67 70z" />
    <glyph glyph-name="two.num" horiz-adv-x="367" 
d="M326 280h-286v76l155 146q34 32 34 57q0 20 -13.5 32t-36.5 12q-47 0 -79 -50l-71 58q51 89 153 89q66 0 105 -37t39 -98q0 -67 -53 -118l-76 -70h129v-97z" />
    <glyph glyph-name="three.num" horiz-adv-x="363" 
d="M167 700q72 0 111 -32t39 -84q0 -38 -19 -62t-45 -32q26 -8 45 -32t19 -62q0 -52 -39 -84t-111 -32q-96 0 -143 58l62 73q29 -34 81 -34q54 0 54 33t-53 33h-34v94h34q53 2 53 33q0 33 -54 33q-51 0 -81 -34l-62 74q46 57 143 57z" />
    <glyph glyph-name="four.num" horiz-adv-x="426" 
d="M258 700h80v-265h53v-96h-53v-59h-97v59h-213v82zM241 435v95l-76 -95h76z" />
    <glyph glyph-name="five.num" horiz-adv-x="366" 
d="M53 700h270v-97h-173v-32l6 1h9q73 0 115.5 -37t42.5 -106q0 -71 -43.5 -110t-115.5 -39t-140 36l39 87q54 -26 99 -26q28 0 46 12.5t18 36.5q0 50 -83 50q-33 0 -90 -9v233z" />
    <glyph glyph-name="six.num" horiz-adv-x="365" 
d="M316 677l-34 -90q-42 16 -75 16q-32 0 -51.5 -15t-22.5 -37v-1q32 17 61 17q58 0 97 -38t39 -103q0 -66 -40 -106t-102 -40q-89 0 -129 68q-29 51 -29 130q0 98 44 160t138 62q48 0 104 -23zM182 377q23 0 37 12.5t14 34.5q0 20 -14.5 33t-36.5 13q-23 0 -37 -12.5
t-14 -34.5q0 -21 14.5 -33.5t36.5 -12.5z" />
    <glyph glyph-name="seven.num" horiz-adv-x="350" 
d="M32 700h289v-78l-181 -342h-108l171 323h-171v97z" />
    <glyph glyph-name="eight.num" horiz-adv-x="378" 
d="M189 280q-64 0 -103.5 31t-39.5 83q0 68 59 96q-28 13 -43.5 39.5t-15.5 56.5q0 52 39.5 83t103.5 31q63 0 103 -31t40 -83q0 -30 -15.5 -56t-44.5 -40q29 -14 44.5 -40t15.5 -56q0 -52 -40 -83t-103 -31zM189 539q46 0 46 32q0 14 -12.5 23t-33.5 9t-33.5 -9t-12.5 -23
q0 -32 46 -32zM189 377q21 0 33.5 9t12.5 23q0 32 -46 32t-46 -32q0 -14 12.5 -23t33.5 -9z" />
    <glyph glyph-name="nine.num" horiz-adv-x="370" 
d="M188 510q23 0 37 13t14 34t-14 33.5t-37 12.5t-37 -12.5t-14 -33.5t14 -34t37 -13zM52 304l33 89q36 -16 78 -16q31 0 50 15t23 37v1q-36 -17 -61 -17q-58 0 -96.5 37.5t-38.5 102.5q0 67 41.5 107t108.5 40q74 0 112 -51q38 -53 38 -149q0 -103 -44 -161.5t-134 -58.5
q-51 0 -110 24z" />
    <glyph glyph-name="plus.num" horiz-adv-x="440" 
d="M171 638h98v-118h117v-96h-117v-118h-98v118h-117v96h117v118z" />
    <glyph glyph-name="minus.num" horiz-adv-x="440" 
d="M50 520h340v-96h-340v96z" />
    <glyph glyph-name="equal.num" horiz-adv-x="440" 
d="M50 583h341v-96h-341v96zM50 438h341v-97h-341v97z" />
    <glyph glyph-name="parenleft.num" horiz-adv-x="242" 
d="M160 760l65 -57q-92 -109 -92 -228q0 -132 91 -243l-65 -55q-54 56 -84 136.5t-30 161.5q0 168 115 285z" />
    <glyph glyph-name="parenright.num" horiz-adv-x="242" 
d="M82 760q115 -117 115 -285q0 -81 -30 -161.5t-84 -136.5l-65 55q91 111 91 243q0 118 -91 228z" />
    <glyph glyph-name="zero.den" horiz-adv-x="485" 
d="M41 210q0 94 57.5 152t143.5 58q87 0 144.5 -58t57.5 -152t-57.5 -152t-144.5 -58q-86 0 -143.5 58t-57.5 152zM348 210q0 54 -29 83.5t-77 29.5q-47 0 -76 -30t-29 -83t29 -83t76 -30q48 0 77 29.5t29 83.5z" />
    <glyph glyph-name="one.den" horiz-adv-x="319" 
d="M173 420h80v-420h-96v268l-72 -69l-67 70z" />
    <glyph glyph-name="two.den" horiz-adv-x="367" 
d="M29 331q51 89 153 89q66 0 105 -37t39 -98q0 -67 -53 -118l-76 -70h129v-97h-286v76l155 146q34 32 34 57q0 20 -13.5 32t-36.5 12q-47 0 -79 -50z" />
    <glyph glyph-name="three.den" horiz-adv-x="363" 
d="M24 363q46 57 143 57q72 0 111 -32t39 -84q0 -38 -19 -62t-45 -32q26 -8 45 -32t19 -62q0 -52 -39 -84t-111 -32q-96 0 -143 58l62 73q29 -34 81 -34q54 0 54 33t-53 33h-34v94h34q53 2 53 33q0 33 -54 33q-51 0 -81 -34z" />
    <glyph glyph-name="four.den" horiz-adv-x="426" 
d="M258 420h80v-265h53v-96h-53v-59h-97v59h-213v82zM241 155v95l-76 -95h76z" />
    <glyph glyph-name="five.den" horiz-adv-x="366" 
d="M53 420h270v-97h-173v-32l6 1h9q73 0 115.5 -37t42.5 -106q0 -71 -43.5 -110t-115.5 -39t-140 36l39 87q54 -26 99 -26q28 0 46 12.5t18 36.5q0 50 -83 50q-33 0 -90 -9v233z" />
    <glyph glyph-name="six.den" horiz-adv-x="365" 
d="M188 0q-89 0 -129 68q-29 51 -29 130q0 98 44 160t138 62q48 0 104 -23l-34 -90q-42 16 -75 16q-32 0 -51.5 -15t-22.5 -37v-1q32 17 61 17q58 0 97 -38t39 -103q0 -66 -40 -106t-102 -40zM233 144q0 20 -14.5 33t-36.5 13q-23 0 -37 -12.5t-14 -34.5q0 -21 14.5 -33.5
t36.5 -12.5q23 0 37 12.5t14 34.5z" />
    <glyph glyph-name="seven.den" horiz-adv-x="350" 
d="M32 420h289v-78l-181 -342h-108l171 323h-171v97z" />
    <glyph glyph-name="eight.den" horiz-adv-x="378" 
d="M46 306q0 52 39.5 83t103.5 31q63 0 103 -31t40 -83q0 -30 -15.5 -56t-44.5 -40q29 -14 44.5 -40t15.5 -56q0 -52 -40 -83t-103 -31q-64 0 -103.5 31t-39.5 83q0 68 59 96q-28 13 -43.5 39.5t-15.5 56.5zM235 291q0 14 -12.5 23t-33.5 9t-33.5 -9t-12.5 -23q0 -32 46 -32
t46 32zM235 129q0 32 -46 32t-46 -32q0 -14 12.5 -23t33.5 -9t33.5 9t12.5 23z" />
    <glyph glyph-name="nine.den" horiz-adv-x="370" 
d="M239 277q0 21 -14 33.5t-37 12.5t-37 -12.5t-14 -33.5t14 -34t37 -13t37 13t14 34zM40 273q0 67 41.5 107t108.5 40q74 0 112 -51q38 -53 38 -149q0 -103 -44 -161.5t-134 -58.5q-51 0 -110 24l33 89q36 -16 78 -16q31 0 50 15t23 37v1q-36 -17 -61 -17q-58 0 -96.5 37.5
t-38.5 102.5z" />
    <glyph glyph-name="plus.den" horiz-adv-x="440" 
d="M171 358h98v-118h117v-96h-117v-118h-98v118h-117v96h117v118z" />
    <glyph glyph-name="minus.den" horiz-adv-x="440" 
d="M50 240h340v-96h-340v96z" />
    <glyph glyph-name="equal.den" horiz-adv-x="440" 
d="M50 303h341v-96h-341v96zM50 158h341v-97h-341v97z" />
    <glyph glyph-name="parenleft.den" horiz-adv-x="242" 
d="M45 195q0 168 115 285l65 -57q-92 -109 -92 -228q0 -132 91 -243l-65 -56q-54 57 -84 138t-30 161z" />
    <glyph glyph-name="parenright.den" horiz-adv-x="242" 
d="M197 195q0 -80 -30 -161t-84 -138l-65 56q91 111 91 243q0 118 -91 228l64 57q115 -117 115 -285z" />
    <glyph glyph-name="colon.case" horiz-adv-x="325" 
d="M162 556q41 0 68.5 -27.5t27.5 -67.5t-27.5 -67.5t-68.5 -27.5q-40 0 -67 27t-27 68t27 68t67 27zM162 234q41 0 68.5 -27.5t27.5 -67.5t-27.5 -67.5t-68.5 -27.5q-40 0 -67 27t-27 68t27 68t67 27z" />
    <glyph glyph-name="at.case" horiz-adv-x="965" 
d="M895 401q0 -118 -53.5 -189t-142.5 -71q-87 0 -111 77q-48 -77 -137 -77q-63 0 -102.5 38.5t-39.5 94.5q0 54 37 86.5t91 38.5l116 12q0 32 -16 46.5t-51 14.5q-69 0 -91 -54l-83 52q44 101 177 101q87 0 130 -44t43 -119v-120q0 -45 36 -45t56 40.5t20 109.5
q0 108 -73.5 181t-208.5 73q-141 0 -221 -83.5t-80 -211.5q0 -131 81 -214t221 -83q96 0 192 30l14 -112q-98 -32 -206 -32q-191 0 -307 117.5t-116 293.5q0 174 115.5 292t307.5 118q182 0 292 -101.5t110 -259.5zM467 238q35 0 61 21t26 56v13l-95 -13q-18 -2 -29 -13
t-11 -27q0 -37 48 -37z" />
    <glyph glyph-name="bar.case" horiz-adv-x="322" 
d="M100 801h122v-895h-122v895z" />
    <glyph glyph-name="brokenbar.case" horiz-adv-x="322" 
d="M100 801h122v-388h-122v388zM100 324h122v-418h-122v418z" />
    <glyph glyph-name="plus.case" 
d="M250 607h140v-200h200v-140h-200v-199h-140v199h-200v140h200v200z" />
    <glyph glyph-name="minus.case" 
d="M53 407h534v-140h-534v140z" />
    <glyph glyph-name="multiply.case" 
d="M320 435l160 161l99 -98l-161 -161l161 -160l-99 -99l-160 161l-161 -161l-98 99l161 160l-161 161l98 98z" />
    <glyph glyph-name="divide.case" 
d="M316 641q41 0 68 -26.5t27 -68.5q0 -40 -27 -67t-68 -27q-40 0 -67 27t-27 67q0 41 27 68t67 27zM36 407h568v-140h-568v140zM316 227q40 0 67.5 -27.5t27.5 -67.5t-27 -67t-68 -27q-40 0 -67 27t-27 67q0 41 27 68t67 27z" />
    <glyph glyph-name="equal.case" 
d="M48 505h544v-140h-544v140zM48 271h544v-140h-544v140z" />
    <glyph glyph-name="notequal.case" 
d="M592 131h-318l-71 -126l-101 54l40 72h-94v140h173l52 94h-225v140h304l67 120l105 -54l-37 -66h105v-140h-185l-53 -94h238v-140z" />
    <glyph glyph-name="approxequal.case" 
d="M34 458q47 42 88.5 64t90.5 22q50 0 121 -36t96 -36q43 0 102 53l73 -106q-96 -89 -178 -89q-49 0 -115.5 36.5t-102.5 36.5q-43 0 -102 -53zM34 217q46 42 88 64.5t91 22.5q50 0 121 -36t96 -36q44 0 102 52l73 -106q-95 -88 -178 -88q-49 0 -115.5 36t-102.5 36
q-43 0 -102 -53z" />
    <glyph glyph-name="logicalnot.case" 
d="M56 482h527v-319h-140v179h-387v140z" />
    <glyph glyph-name="parenleft.case" horiz-adv-x="349" 
d="M53 345q0 138 49.5 259.5t141.5 215.5l92 -81q-76 -90 -115 -183t-39 -211q0 -228 154 -410l-93 -81q-90 93 -140 224.5t-50 266.5z" />
    <glyph glyph-name="parenright.case" horiz-adv-x="349" 
d="M105 819q92 -94 141.5 -215.5t49.5 -259.5q0 -135 -50 -266.5t-140 -224.5l-93 81q154 182 154 410q0 118 -39 211t-115 183z" />
    <glyph glyph-name="hyphen.case" horiz-adv-x="626" 
d="M80 420h466v-140h-466v140z" />
    <glyph glyph-name="bracketleft.case" horiz-adv-x="346" 
d="M91 791h241v-115h-119v-665h119v-115h-241v895z" />
    <glyph glyph-name="bracketright.case" horiz-adv-x="346" 
d="M14 791h241v-895h-241v115h119v665h-119v115z" />
    <glyph glyph-name="braceleft.case" horiz-adv-x="382" 
d="M325 801h47v-116h-46q-26 0 -42 -14t-16 -40v-160q0 -94 -80 -115q80 -21 80 -111v-169q0 -26 16 -40t42 -14h46v-116h-47q-178 0 -178 159v159q0 34 -25 50.5t-81 17.5v121q106 3 106 76v154q0 158 178 158z" />
    <glyph glyph-name="braceright.case" horiz-adv-x="382" 
d="M10 801h47q178 0 178 -158v-154q0 -73 106 -76v-121q-56 -1 -81 -17.5t-25 -50.5v-159q0 -159 -178 -159h-47v116h46q26 0 42 14t16 40v169q0 90 80 111q-80 21 -80 115v160q0 26 -16 40t-42 14h-46v116z" />
    <glyph glyph-name="guillemotleft.case" horiz-adv-x="692" 
d="M264 73l-224 237l224 238l88 -80l-150 -158l150 -158zM525 73l-225 237l225 238l87 -80l-150 -158l150 -158z" />
    <glyph glyph-name="guillemotright.case" horiz-adv-x="692" 
d="M652 310l-224 -237l-88 79l151 158l-151 158l88 80zM392 310l-224 -237l-88 79l151 158l-151 158l88 80z" />
    <glyph glyph-name="endash.case" horiz-adv-x="903" 
d="M70 420h763v-140h-763v140z" />
    <glyph glyph-name="emdash.case" horiz-adv-x="1314" 
d="M70 420h1174v-140h-1174v140z" />
    <glyph glyph-name="guilsinglleft.case" horiz-adv-x="448" 
d="M40 310l224 238l88 -80l-150 -158l150 -158l-88 -79z" />
    <glyph glyph-name="guilsinglright.case" horiz-adv-x="448" 
d="M184 548l224 -238l-224 -237l-88 79l150 158l-150 158z" />
    <glyph glyph-name="less.case" 
d="M66 421l450 190l57 -136l-333 -132l333 -133l-57 -136l-450 190v157z" />
    <glyph glyph-name="greater.case" 
d="M123 611l450 -190v-157l-450 -190l-57 136l333 133l-333 132z" />
    <glyph glyph-name="exclamdown.case" horiz-adv-x="362" 
d="M277 605q0 -40 -27.5 -67.5t-68.5 -27.5q-40 0 -67 27t-27 68t27 68t67 27q41 0 68.5 -27.5t27.5 -67.5zM251 0h-140v458h140v-458z" />
    <glyph glyph-name="questiondown.case" horiz-adv-x="535" 
d="M288 510q-41 0 -68.5 27.5t-27.5 67.5t27.5 67.5t68.5 27.5q40 0 67 -27t27 -68t-27 -68t-67 -27zM496 226q0 -108 -58.5 -167t-160.5 -59q-96 0 -152 54.5t-56 141.5q0 54 20.5 88t58.5 68q2 2 18 15t19 16l14 14.5t13.5 18t6 18t3.5 23.5v12h140v-39q0 -34 -17 -65
t-33.5 -46.5t-46.5 -39.5q-56 -42 -56 -75q0 -28 18 -46t53 -18q38 0 59 22t21 64h136z" />
    <glyph glyph-name="arrowup.case" horiz-adv-x="787" 
d="M69 369l325 359l325 -359l-98 -94l-160 175v-440h-134v440l-161 -175z" />
    <glyph glyph-name="arrowright.case" horiz-adv-x="863" 
d="M341 588l94 97l359 -324l-359 -325l-94 97l175 161h-447v134h447z" />
    <glyph glyph-name="arrowdown.case" horiz-adv-x="787" 
d="M327 699h134v-440l160 175l98 -94l-325 -359l-325 359l97 94l161 -175v440z" />
    <glyph glyph-name="arrowleft.case" horiz-adv-x="863" 
d="M69 361l359 324l94 -97l-175 -160h447v-134h-447l175 -161l-94 -97z" />
    <glyph glyph-name="uni2196.case" horiz-adv-x="698" 
d="M68 628l486 -25l-3 -136l-238 11l317 -317l-95 -95l-317 317l11 -238l-136 -3z" />
    <glyph glyph-name="uni2197.case" horiz-adv-x="699" 
d="M145 615l485 24l-25 -485l-135 2l10 239l-317 -318l-95 95l317 318l-238 -11z" />
    <glyph glyph-name="uni2198.case" horiz-adv-x="698" 
d="M630 101l-485 25l2 135l238 -10l-317 317l95 95l317 -317l-10 238l135 2z" />
    <glyph glyph-name="uni2199.case" horiz-adv-x="698" 
d="M554 124l-485 -24l25 485l135 -2l-10 -238l317 317l95 -95l-317 -317l238 10z" />
    <glyph glyph-name="Ccedilla.001" horiz-adv-x="668" 
d="M385 -213q-34 0 -83 17v103q47 -14 66 -14q23 0 23 22q0 30 -43 88q-133 16 -218.5 113.5t-85.5 234.5q0 149 100.5 249t250.5 100q149 0 252 -95l-67 -128q-81 83 -186 83q-92 0 -151 -58.5t-59 -151.5q0 -92 59 -151t149 -59q115 0 197 89l69 -130q-84 -78 -205 -95
q48 -59 48 -111q0 -48 -31.5 -77t-84.5 -29z" />
    <glyph glyph-name="Gcommaaccent.001" horiz-adv-x="764" 
d="M44 349q0 153 99 252t257 99q157 0 257 -99l-68 -130q-77 89 -196 89q-92 0 -150.5 -58.5t-58.5 -151.5q0 -94 59 -152.5t154 -58.5q61 0 111 31.5t62 89.5h-196v140h357v-46q0 -166 -94.5 -260t-236.5 -94q-157 0 -256.5 98.5t-99.5 250.5zM362 -299l-65 41l51 77
q-41 22 -41 69q0 33 23.5 56.5t56.5 23.5t56 -23.5t23 -56.5q0 -23 -15 -45z" />
    <glyph glyph-name="Rcommaaccent.001" horiz-adv-x="646" 
d="M465 467q0 40 -25.5 66.5t-67.5 26.5h-158v-186h158q42 0 67.5 27t25.5 66zM214 0h-140v700h298q100 0 166.5 -67t66.5 -166q0 -76 -41 -135t-108 -83l166 -249h-171l-150 234h-87v-234zM307 -299l-65 41l51 77q-41 22 -41 69q0 33 23.5 56.5t56.5 23.5t56 -23.5
t23 -56.5q0 -23 -15 -45z" />
    <glyph glyph-name="zero.001" horiz-adv-x="776" 
d="M54 350q0 154 96 252t238 98t238 -98t96 -252t-96 -252t-238 -98t-238 98t-96 252zM582 350q0 95 -54.5 152.5t-139.5 57.5q-86 0 -140 -57t-54 -153t54 -153t140 -57q85 0 139.5 57.5t54.5 152.5z" />
    <glyph glyph-name="tilde.case" horiz-adv-x="489" 
d="M310 731q-29 0 -71.5 22t-57.5 22q-22 0 -66 -42l-65 68q69 78 129 78q29 0 71.5 -22t57.5 -22q22 0 66 42l65 -68q-69 -78 -129 -78z" />
    <glyph glyph-name="Gbreve.001" horiz-adv-x="764" 
d="M445 894h102q0 -72 -42.5 -117t-114.5 -45t-114 45t-42 117h102q0 -28 14 -45t40 -17t40.5 17t14.5 45zM44 349q0 153 99 252t257 99q157 0 257 -99l-68 -130q-77 89 -196 89q-92 0 -150.5 -58.5t-58.5 -151.5q0 -94 59 -152.5t154 -58.5q61 0 111 31.5t62 89.5h-196v140
h357v-46q0 -166 -94.5 -260t-236.5 -94q-157 0 -256.5 98.5t-99.5 250.5z" />
    <glyph glyph-name="Gcircumflex.001" horiz-adv-x="764" 
d="M200 786l185 157l185 -157l-69 -73l-116 100l-117 -100zM44 349q0 153 99 252t257 99q157 0 257 -99l-68 -130q-77 89 -196 89q-92 0 -150.5 -58.5t-58.5 -151.5q0 -94 59 -152.5t154 -58.5q61 0 111 31.5t62 89.5h-196v140h357v-46q0 -166 -94.5 -260t-236.5 -94
q-157 0 -256.5 98.5t-99.5 250.5z" />
    <glyph glyph-name="acute.case" horiz-adv-x="396" 
d="M50 802l225 136l58 -92l-225 -136z" />
    <glyph glyph-name="dotaccent.case" horiz-adv-x="269" 
d="M50 806q0 36 24 60.5t60 24.5t60.5 -24.5t24.5 -60.5t-24.5 -60t-60.5 -24t-60 24t-24 60z" />
    <glyph glyph-name="G.001" horiz-adv-x="764" 
d="M44 349q0 153 99 252t257 99q157 0 257 -99l-68 -130q-77 89 -196 89q-92 0 -150.5 -58.5t-58.5 -151.5q0 -94 59 -152.5t154 -58.5q61 0 111 31.5t62 89.5h-196v140h357v-46q0 -166 -94.5 -260t-236.5 -94q-157 0 -256.5 98.5t-99.5 250.5z" />
    <glyph glyph-name="circumflex.case" horiz-adv-x="482" 
d="M50 786l185 157l185 -157l-69 -73l-116 100l-117 -100z" />
    <glyph glyph-name="zero.tlf.001" 
d="M50 350q0 168 76 259t194 91t194 -91.5t76 -258.5q0 -168 -76 -259t-194 -91t-194 91t-76 259zM450 350q0 108 -35 159t-95 51t-95 -51t-35 -159q0 -109 35 -159.5t95 -50.5t95 50.5t35 159.5z" />
    <glyph glyph-name="ring.case" horiz-adv-x="364" 
d="M50 751q0 57 38 94.5t94 37.5t94 -37.5t38 -94.5t-38 -94.5t-94 -37.5t-94 37.5t-38 94.5zM233 751q0 22 -14.5 36.5t-36.5 14.5t-36.5 -14t-14.5 -37q0 -22 14.5 -36.5t36.5 -14.5t36.5 14.5t14.5 36.5z" />
    <glyph glyph-name="macron.case" horiz-adv-x="400" 
d="M50 854h300v-99h-300v99z" />
    <glyph glyph-name="Ccaron.001" horiz-adv-x="668" 
d="M384 855l116 100l69 -73l-185 -157l-185 157l68 73zM44 351q0 149 100.5 249t250.5 100q149 0 252 -95l-67 -128q-81 83 -186 83q-92 0 -151 -58.5t-59 -151.5q0 -92 59 -151t149 -59q115 0 197 89l69 -130q-108 -99 -264 -99q-149 0 -249.5 100.5t-100.5 250.5z" />
    <glyph glyph-name="hungarumlaut.case" horiz-adv-x="494" 
d="M50 783l127 190l88 -63l-131 -185zM229 767l127 190l88 -63l-130 -185z" />
    <glyph glyph-name="lessequal.case" 
d="M56 510l488 145l39 -145l-306 -78l306 -78l-39 -145l-488 145v156zM54 178h534v-139h-534v139z" />
    <glyph glyph-name="caron.case" horiz-adv-x="482" 
d="M235 855l116 100l69 -73l-185 -157l-185 157l68 73z" />
    <glyph glyph-name="dieresis.case" horiz-adv-x="462" 
d="M50 807q0 33 22.5 55.5t55.5 22.5t55.5 -22.5t22.5 -55.5t-22.5 -55.5t-55.5 -22.5t-55.5 22.5t-22.5 55.5zM256 807q0 33 22.5 55.5t55.5 22.5t55.5 -22.5t22.5 -55.5t-22.5 -55.5t-55.5 -22.5t-55.5 22.5t-22.5 55.5z" />
    <glyph glyph-name="grave.case" horiz-adv-x="396" 
d="M50 846l59 93l224 -136l-58 -93z" />
    <glyph glyph-name="Cacute.001" horiz-adv-x="668" 
d="M248 802l225 136l58 -92l-225 -136zM44 351q0 149 100.5 249t250.5 100q149 0 252 -95l-67 -128q-81 83 -186 83q-92 0 -151 -58.5t-59 -151.5q0 -92 59 -151t149 -59q115 0 197 89l69 -130q-108 -99 -264 -99q-149 0 -249.5 100.5t-100.5 250.5z" />
    <glyph glyph-name="Ccircumflex.001" horiz-adv-x="668" 
d="M199 786l185 157l185 -157l-69 -73l-116 100l-117 -100zM44 351q0 149 100.5 249t250.5 100q149 0 252 -95l-67 -128q-81 83 -186 83q-92 0 -151 -58.5t-59 -151.5q0 -92 59 -151t149 -59q115 0 197 89l69 -130q-108 -99 -264 -99q-149 0 -249.5 100.5t-100.5 250.5z" />
    <glyph glyph-name="plusminus.case" 
d="M251 649h138v-111h201v-139h-201v-110h-138v110h-201v139h201v111zM50 230h540v-139h-540v139z" />
    <glyph glyph-name="breve.case" horiz-adv-x="413" 
d="M261 894h102q0 -72 -42.5 -117t-114.5 -45t-114 45t-42 117h102q0 -28 14 -45t40 -17t40.5 17t14.5 45z" />
    <glyph glyph-name="greaterequal.case" 
d="M96 655l488 -145v-155l-488 -145l-39 144l306 79l-306 78zM52 179h534v-139h-534v139z" />
    <glyph glyph-name="R.001" horiz-adv-x="646" 
d="M465 467q0 40 -25.5 66.5t-67.5 26.5h-158v-186h158q42 0 67.5 27t25.5 66zM214 0h-140v700h298q100 0 166.5 -67t66.5 -166q0 -76 -41 -135t-108 -83l166 -249h-171l-150 234h-87v-234z" />
    <glyph glyph-name="C.001" horiz-adv-x="668" 
d="M44 351q0 149 100.5 249t250.5 100q149 0 252 -95l-67 -128q-81 83 -186 83q-92 0 -151 -58.5t-59 -151.5q0 -92 59 -151t149 -59q115 0 197 89l69 -130q-108 -99 -264 -99q-149 0 -249.5 100.5t-100.5 250.5z" />
    <glyph glyph-name="Cdotaccent.001" horiz-adv-x="668" 
d="M306 806q0 36 24 60.5t60 24.5t60.5 -24.5t24.5 -60.5t-24.5 -60t-60.5 -24t-60 24t-24 60zM44 351q0 149 100.5 249t250.5 100q149 0 252 -95l-67 -128q-81 83 -186 83q-92 0 -151 -58.5t-59 -151.5q0 -92 59 -151t149 -59q115 0 197 89l69 -130q-108 -99 -264 -99
q-149 0 -249.5 100.5t-100.5 250.5z" />
    <glyph glyph-name="Racute.001" horiz-adv-x="646" 
d="M168 802l225 136l58 -92l-225 -136zM465 467q0 40 -25.5 66.5t-67.5 26.5h-158v-186h158q42 0 67.5 27t25.5 66zM214 0h-140v700h298q100 0 166.5 -67t66.5 -166q0 -76 -41 -135t-108 -83l166 -249h-171l-150 234h-87v-234z" />
    <glyph glyph-name="Rcaron.001" horiz-adv-x="646" 
d="M304 855l116 100l69 -73l-185 -157l-185 157l68 73zM465 467q0 40 -25.5 66.5t-67.5 26.5h-158v-186h158q42 0 67.5 27t25.5 66zM214 0h-140v700h298q100 0 166.5 -67t66.5 -166q0 -76 -41 -135t-108 -83l166 -249h-171l-150 234h-87v-234z" />
    <glyph glyph-name="Gdotaccent.001" horiz-adv-x="764" 
d="M307 806q0 36 24 60.5t60 24.5t60.5 -24.5t24.5 -60.5t-24.5 -60t-60.5 -24t-60 24t-24 60zM44 349q0 153 99 252t257 99q157 0 257 -99l-68 -130q-77 89 -196 89q-92 0 -150.5 -58.5t-58.5 -151.5q0 -94 59 -152.5t154 -58.5q61 0 111 31.5t62 89.5h-196v140h357v-46
q0 -166 -94.5 -260t-236.5 -94q-157 0 -256.5 98.5t-99.5 250.5z" />
    <glyph glyph-name="cent.tlf" 
d="M567 59q-72 -66 -188 -70v-66h-65v69q-103 15 -166 83.5t-63 174.5t63 175t166 84v70h65v-66q115 -4 187 -70l-70 -109q-52 45 -117 49v-265q68 5 119 51zM221 251q0 -47 25.5 -80t67.5 -46v251q-43 -13 -68 -45.5t-25 -79.5z" />
    <glyph glyph-name="dollar.tlf" 
d="M230 498q0 -40 58 -64v123q-58 -11 -58 -59zM409 203q0 43 -56 64v-124q56 11 56 60zM353 -80h-65v82q-76 7 -131.5 51t-73.5 124l125 54q16 -73 80 -88v145l-6 2q-39 12 -68 25.5t-60 37.5t-47.5 61t-16.5 86q0 85 55 137.5t143 60.5v82h65v-82q79 -8 132.5 -53
t71.5 -122l-127 -51q-17 70 -77 84v-143l9 -3q42 -13 71 -27.5t58 -37.5t43.5 -59t14.5 -83q0 -88 -54 -140.5t-142 -60.5v-82z" />
    <glyph glyph-name="euro.tlf" 
d="M542 36q-72 -36 -140 -36q-110 0 -191.5 69t-106.5 186h-83l33 70h41q-1 8 -1 25q0 18 1 26h-68l34 70h43q26 117 107.5 185.5t192.5 68.5q127 0 216 -76l-67 -129q-62 65 -149 65q-55 0 -95 -30.5t-59 -83.5h279l-37 -70h-257q-1 -8 -1 -26q0 -17 1 -25h229l-37 -70
h-178q19 -54 59 -84.5t93 -30.5q58 0 112 34z" />
    <glyph glyph-name="florin.tlf" 
d="M203 -209q-46 0 -99 6v123q46 -5 83 -5q32 0 45.5 16.5t13.5 53.5v415h-108v100h108v23q0 93 48 139.5t131 46.5q30 0 109 -9v-123q-72 8 -93 8q-36 0 -50.5 -16t-14.5 -54v-15h157v-100h-157v-423q0 -93 -46.5 -139.5t-126.5 -46.5z" />
    <glyph glyph-name="sterling.tlf" 
d="M590 92q-37 -44 -83 -68t-125 -24h-331v126q38 5 57 25t19 60v102h-80v90h80v81q0 96 57 156t164 60q129 0 213 -103l-93 -99q-46 64 -112 64q-43 0 -66 -24.5t-23 -68.5v-66h179v-90h-179v-93q0 -57 -38 -82h153q49 0 81.5 18t63.5 54z" />
    <glyph glyph-name="yen.tlf" 
d="M555 129h-165v-129h-140v129h-165v75h165v45l-9 17h-156v75h115l-198 359h162l156 -286l156 286h163l-198 -359h114v-75h-156l-9 -17v-45h165v-75z" />
    <glyph glyph-name="circleinvert" horiz-adv-x="824" 
d="M50 350q0 155 103 258.5t259 103.5t259 -103.5t103 -258.5t-103 -258.5t-259 -103.5t-259 103.5t-103 258.5z" />
    <glyph glyph-name="Indianrupeesign.tlf" 
d="M255 234h-8l255 -234h-198l-260 234v140h211q60 0 84 51h-295v90h292q-25 45 -81 45h-211v140h552l-50 -90h-104q31 -40 42 -95h100l-50 -90h-49q-14 -83 -77.5 -137t-152.5 -54z" />
    <glyph glyph-name="THB.tlf" 
d="M208 420h80v140h-80v-140zM359 560h-27v-140h27q32 0 52 20t20 52q0 31 -19 49.5t-53 18.5zM208 140h80v140h-80v-140zM359 280h-27v-140h27q34 0 53 18.5t19 49.5q0 33 -20 52.5t-52 19.5zM362 0h-30v-80h-44v80h-220v700h220v80h44v-80h30q97 0 153 -55t56 -142
q0 -110 -87 -153q87 -44 87 -153q0 -87 -56 -142t-153 -55z" />
    <glyph glyph-name="RUB.tlf" 
d="M252 560v-168h117q44 0 68.5 23.5t24.5 60.5t-24.5 60.5t-68.5 23.5h-117zM475 120h-223v-120h-140v120h-73v90h73v42h-74v140h74v308h257q102 0 167.5 -63.5t65.5 -160.5t-65.5 -160.5t-167.5 -63.5h-117v-42h223v-90z" />
    <glyph glyph-name="TRY.tlf" 
d="M264 140q92 0 151 59t59 151h140q0 -150 -100 -250t-250 -100h-140v279l-98 -30v93l98 30v61l-98 -30v93l98 30v174h140v-130l188 58v-93l-188 -58v-61l188 58v-93l-188 -58v-183z" />
    </font>
</defs>
</svg>
