<?xml version="1.0" encoding="UTF-8" standalone="no"?>
<!DOCTYPE svg  PUBLIC '-//W3C//DTD SVG 1.1//EN'  'http://www.w3.org/Graphics/SVG/1.1/DTD/svg11.dtd'>
<svg xmlns="http://www.w3.org/2000/svg">
<defs>
<font id="GTHaptikRegular-Regular" horiz-adv-x="640">
<font-face underline-position="0" font-weight="550" descent="-200" panose-1="2 0 5 5 0 0 0 2 0 3" units-per-em="1000" unicode-range="U+0020-25CA" bbox="-220 -213 1308 928" x-height="500" underline-thickness="0" font-family="GTHaptikRegular" ascent="800" cap-height="700"/>
<missing-glyph horiz-adv-x="1000"/>
<glyph glyph-name=".notdef" horiz-adv-x="1000"/>
<glyph glyph-name=".null" horiz-adv-x="0"/>
<glyph glyph-name="nonmarkingreturn" horiz-adv-x="333"/>
<glyph glyph-name="space" horiz-adv-x="290" unicode=" "/>
<glyph glyph-name="exclam" horiz-adv-x="316" unicode="!" d="M158 157q33 0 56 -23t23 -56t-23 -55.5t-56 -22.5t-55.5 22.5t-22.5 55.5t22.5 56t55.5 23zM203 700v-480h-90v480h90z"/>
<glyph glyph-name="quotedbl" horiz-adv-x="355" unicode='&quot;' d="M285 700v-255h-73v255h73zM143 700v-255h-73v255h73z"/>
<glyph glyph-name="numbersign" horiz-adv-x="569" unicode="#" d="M329 213h-127l-30 -213h-68l30 213h-104l8 65h105l19 144h-104l9 65h104l30 213h69l-30 -213h126l30 213h69l-30 -213h104l-8 -65h-105l-20 -144h104l-9 -65h-104l-30 -213h-68zM357 422h-126l-20 -144h127z"/>
<glyph glyph-name="dollar" horiz-adv-x="539" unicode="$" d="M237 -80v82q-29 4 -57.5 14.5t-53.5 30t-45 49t-31 71.5l79 42q25 -100 108 -116v223q-32 11 -64 26t-57.5 37.5t-41.5 54.5t-16 77q0 41 14 73.5t38.5 56.5t57 38t69.5 19v82h65v-82q70 -9 118.5 -52.5t68.5 -113.5l-85 -34q-13 49 -39 75t-63 34v-218q38 -13 70.5 -29 t56.5 -38.5t37.5 -53.5t13.5 -74q0 -45 -14 -79t-38.5 -58t-57 -37.5t-68.5 -17.5v-82h-65zM390 191q0 22 -7 38.5t-19 28.5t-28 20.5t-34 15.5v-202q42 7 65 32t23 67zM148 510q0 -41 24.5 -62t64.5 -37v197q-44 -8 -66.5 -35.5t-22.5 -62.5z"/>
<glyph glyph-name="percent" horiz-adv-x="823" unicode="%" d="M626 258q-42 0 -69 -27t-27 -69t27 -69t69 -27t69 27t27 69t-27 69t-69 27zM464 162q0 34 12.5 64t34 51.5t51 34t64.5 12.5q34 0 64 -12.5t51.5 -34t34 -51.5t12.5 -64q0 -35 -12.5 -64.5t-34 -51t-51.5 -34t-64 -12.5q-35 0 -64.5 12.5t-51 34t-34 51t-12.5 64.5z M293 538q0 42 -27 69t-69 27t-69 -27t-27 -69t27 -69t69 -27t69 27t27 69zM197 700q34 0 64 -12.5t51.5 -34t34 -51.5t12.5 -64q0 -35 -12.5 -64.5t-34 -51t-51.5 -34t-64 -12.5q-35 0 -64.5 12.5t-51 34t-34 51t-12.5 64.5q0 34 12.5 64t34 51.5t51 34t64.5 12.5zM649 700 l50 -40l-523 -660l-50 41z"/>
<glyph glyph-name="ampersand" horiz-adv-x="690" unicode="&amp;" d="M490 77q-33 -41 -81 -65t-117 -24q-55 0 -95.5 16t-67.5 43t-40.5 63t-13.5 77q0 39 11.5 69.5t30.5 55t44 44.5t53 38l-25 28q-24 26 -41 58.5t-17 74.5q0 33 11 61.5t32 49.5t51 33.5t68 12.5q37 0 67 -12.5t51 -34t32.5 -50t11.5 -61.5q0 -31 -9.5 -56.5t-25 -46.5 t-36 -39t-41.5 -33l132 -149q8 24 13 48.5t9 47.5l81 -16q-6 -40 -15.5 -78t-24.5 -73l87 -98l-68 -60zM294 73q50 0 83.5 19t56.5 50l-164 188q-52 -35 -78.5 -66t-26.5 -75q0 -23 7.5 -44t23 -37t40 -25.5t58.5 -9.5zM287 442q33 23 55.5 49t22.5 62q0 35 -21 54.5 t-50 19.5q-31 0 -52 -20t-21 -52q0 -23 11 -42.5t27 -38.5z"/>
<glyph glyph-name="quotesingle" horiz-adv-x="213" unicode="&apos;" d="M143 700v-255h-73v255h73z"/>
<glyph glyph-name="parenleft" horiz-adv-x="322" unicode="(" d="M40 313q0 138 49.5 261t140.5 216l57 -52q-40 -45 -70.5 -92t-51 -99t-31 -110t-10.5 -124q0 -132 41.5 -234t121.5 -191l-57 -52q-91 93 -140.5 216t-49.5 261z"/>
<glyph glyph-name="parenright" horiz-adv-x="317" unicode=")" d="M92 790q91 -93 140.5 -216t49.5 -261t-49.5 -261t-140.5 -216l-57 52q80 89 121.5 191t41.5 234q0 66 -10.5 124t-31 110t-51 99t-70.5 92z"/>
<glyph glyph-name="asterisk" horiz-adv-x="437" unicode="*" d="M250 700v-121l115 38l22 -62l-117 -37l71 -97l-50 -39l-73 98l-72 -98l-51 39l71 97l-116 37l22 62l114 -38v121h64z"/>
<glyph glyph-name="plus" d="M365 572v-209h209v-90h-209v-209h-90v209h-209v90h209v209h90z" unicode="+"/>
<glyph glyph-name="comma" horiz-adv-x="292" unicode="," d="M191 150l71 -40l-175 -310l-70 38z"/>
<glyph glyph-name="hyphen" horiz-adv-x="628" unicode="-" d="M548 354v-90h-468v90h468z"/>
<glyph glyph-name="period" horiz-adv-x="317" unicode="." d="M158 157q33 0 56 -23t23 -56t-23 -55.5t-56 -22.5t-55.5 22.5t-22.5 55.5t22.5 56t55.5 23z"/>
<glyph glyph-name="slash" horiz-adv-x="733" unicode="/" d="M639 750l60 -50l-619 -752l-60 50z"/>
<glyph glyph-name="zero" horiz-adv-x="778" unicode="0" d="M301 350q0 38 25 63t63 25t63 -25t25 -63t-25 -63t-63 -25t-63 25t-25 63zM628 350q0 55 -18.5 102.5t-50.5 82.5t-75.5 55t-94.5 20t-94.5 -20t-75.5 -55t-50.5 -82.5t-18.5 -102.5q0 -56 18.5 -103.5t50.5 -82t75.5 -54.5t94.5 -20t94.5 20t75.5 54.5t50.5 82 t18.5 103.5zM60 350q0 75 25.5 139t70 111t104.5 73.5t129 26.5t129 -26.5t104.5 -73.5t70 -111t25.5 -139t-25.5 -139.5t-70 -111t-104.5 -73t-129 -26.5t-129 26.5t-104.5 73t-70 111t-25.5 139.5z"/>
<glyph glyph-name="one" horiz-adv-x="468" unicode="1" d="M358 700v-700h-90v567l-166 -166l-62 64l235 235h83z"/>
<glyph glyph-name="two" horiz-adv-x="540" unicode="2" d="M35 545q15 31 37 59t49.5 49.5t62 34t75.5 12.5q46 0 86.5 -16.5t70.5 -45t47 -68.5t17 -86q0 -53 -20 -97t-48 -73l-218 -224h286v-90h-421v79l290 298q19 20 30 46.5t11 56.5q0 29 -10 53t-27.5 41t-40.5 26.5t-49 9.5q-53 0 -93.5 -36t-61.5 -92z"/>
<glyph glyph-name="three" horiz-adv-x="523" unicode="3" d="M51 544q10 32 29.5 60.5t46.5 49.5t60.5 33.5t72.5 12.5q42 0 78.5 -14.5t64.5 -40.5t44 -62.5t16 -80.5q0 -51 -21 -89.5t-53 -61.5q35 -25 54.5 -64t19.5 -90q0 -47 -16 -83.5t-43 -61.5t-63.5 -38.5t-78.5 -13.5q-40 0 -74.5 12t-62 33.5t-46.5 51.5t-29 65l78 60 q11 -59 46.5 -95.5t88.5 -36.5q46 0 78 29t32 80t-31 78t-73 29h-42v90h42q42 2 73 30t31 76q0 25 -9 45t-24 34t-35 21.5t-42 7.5q-51 0 -86.5 -37t-48.5 -91z"/>
<glyph glyph-name="four" horiz-adv-x="690" unicode="4" d="M416 542l-260 -310h260v310zM506 700v-468h139v-90h-139v-142h-90v142h-386v83l401 475h75z"/>
<glyph glyph-name="five" horiz-adv-x="551" unicode="5" d="M496 700v-90h-306v-152q8 2 27.5 5.5t45.5 3.5q52 0 95 -17t74 -48t47.5 -74t16.5 -95q0 -58 -20 -101.5t-54 -73t-77.5 -44t-89.5 -14.5q-51 0 -102.5 17.5t-92.5 52.5l46 80q36 -31 74.5 -45.5t76.5 -14.5q30 0 57 9t47.5 27t32 45.5t11.5 63.5q0 69 -40.5 105.5 t-106.5 36.5q-37 0 -78.5 -11t-79.5 -30v364h396z"/>
<glyph glyph-name="six" horiz-adv-x="585" unicode="6" d="M306 369q-31 0 -57 -10t-44.5 -29t-29 -45t-10.5 -57q0 -33 11.5 -58.5t31 -43.5t44.5 -27t53 -9q30 0 56 10t44.5 29t29 45t10.5 58q0 63 -38.5 100t-100.5 37zM304 0q-65 0 -112 26.5t-75 68.5q-25 38 -36 89.5t-11 121.5q0 64 12.5 133.5t42.5 127.5t81 95.5t128 37.5 q59 0 97 -17t64 -37l-49 -74q-23 16 -50 27t-65 11q-37 0 -65.5 -16t-49 -42.5t-31 -61.5t-11.5 -72v-2q32 22 66 32.5t67 10.5q48 0 90 -16.5t72.5 -46t48 -71t17.5 -92.5t-17.5 -94t-48.5 -73.5t-73.5 -48t-91.5 -17.5z"/>
<glyph glyph-name="seven" horiz-adv-x="543" unicode="7" d="M503 700v-86l-317 -614h-101l314 610h-359v90h463z"/>
<glyph glyph-name="eight" horiz-adv-x="536" unicode="8" d="M386 196q0 26 -9.5 46.5t-26 34.5t-37.5 21t-44 7t-44.5 -7t-38 -21t-26.5 -34.5t-10 -46.5q0 -48 33 -77t86 -29t85 29t32 77zM386 504q0 48 -32 77t-85 29t-86 -29t-33 -77q0 -26 10 -46.5t26.5 -34.5t38 -21t44.5 -7t44 7t37.5 21t26 34.5t9.5 46.5zM60 504 q0 45 15.5 81t43 61.5t66 39.5t83.5 14t83.5 -14t66 -39.5t43 -61t15.5 -79.5q0 -97 -83 -156q83 -59 83 -156q0 -44 -15.5 -79.5t-43 -61t-66 -39.5t-83.5 -14t-83.5 13.5t-66 39t-43 62t-15.5 81.5q0 51 20.5 89.5t58.5 64.5q-36 25 -57.5 62.5t-21.5 91.5z"/>
<glyph glyph-name="nine" horiz-adv-x="568" unicode="9" d="M50 467q0 51 17.5 94t48.5 73.5t73 48t91 17.5q64 0 110.5 -26.5t75.5 -68.5q27 -41 37 -94t10 -125q0 -65 -9.5 -133t-38 -124.5t-81.5 -92.5t-141 -36q-49 0 -86.5 11.5t-73.5 31.5l38 82q66 -35 125 -35q43 0 74.5 17t52 44.5t28.5 60t8 63.5v7v1q-32 -23 -65 -32.5 t-66 -9.5q-48 0 -90 16.5t-72.5 46t-48 71t-17.5 92.5zM420 472q0 33 -11.5 58.5t-31 43.5t-45 27t-53.5 9q-30 0 -55.5 -10t-44 -29t-29 -45t-10.5 -58q0 -63 38.5 -100t99.5 -37q31 0 57 10t45 29t29.5 44.5t10.5 57.5z"/>
<glyph glyph-name="colon" horiz-adv-x="317" unicode=":" d="M158 157q33 0 56 -23t23 -56t-23 -55.5t-56 -22.5t-55.5 22.5t-22.5 55.5t22.5 56t55.5 23zM158 512q33 0 56 -23t23 -56t-23 -55.5t-56 -22.5t-55.5 22.5t-22.5 55.5t22.5 56t55.5 23z"/>
<glyph glyph-name="semicolon" horiz-adv-x="378" unicode=";" d="M191 150l71 -40l-175 -310l-70 38zM141 433q0 33 22.5 56t55.5 23t56 -23t23 -56t-23 -55.5t-56 -22.5t-55.5 22.5t-22.5 55.5z"/>
<glyph glyph-name="less" d="M518 513l37 -79l-348 -154l348 -154l-37 -79l-433 193v80z" unicode="&lt;"/>
<glyph glyph-name="equal" d="M563 228v-90h-486v90h486zM563 443v-90h-486v90h486z" unicode="="/>
<glyph glyph-name="greater" d="M555 320v-80l-433 -193l-37 79l348 154l-348 154l37 79z" unicode="&gt;"/>
<glyph glyph-name="question" horiz-adv-x="551" unicode="?" d="M269 157q33 0 56 -23t23 -56t-23 -55.5t-56 -22.5t-55.5 22.5t-22.5 55.5t22.5 56t55.5 23zM50 468q0 50 14.5 92.5t42.5 73.5t68.5 48.5t92.5 17.5q46 0 83.5 -14t64 -39.5t41 -60.5t14.5 -78q0 -32 -7.5 -56.5t-21 -45.5t-31 -39.5t-37.5 -36.5q-14 -12 -25 -23.5 t-19 -24t-12.5 -27t-4.5 -33.5v-25h-90v25q0 34 9 60.5t23 48t31.5 39t34.5 32.5q21 18 40.5 41.5t19.5 61.5q0 21 -7 40t-21 33.5t-35.5 23t-50.5 8.5q-60 0 -94.5 -37.5t-34.5 -104.5h-88z"/>
<glyph glyph-name="at" horiz-adv-x="939" unicode="@" d="M455 165q25 0 45.5 8.5t34.5 23t22 32.5t8 36v24l-127 -14q-27 -3 -39.5 -19t-12.5 -35q0 -22 16.5 -39t52.5 -17zM869 355q0 -120 -44 -191t-134 -71q-42 0 -67.5 15.5t-38.5 53.5q-23 -34 -56.5 -52.5t-80.5 -18.5q-33 0 -60 10t-46 27.5t-29 41t-10 51.5q0 30 11 53.5 t28.5 39t40.5 24.5t47 11l135 11q0 46 -17 64.5t-61 18.5q-37 0 -68 -16.5t-38 -54.5l-68 32q13 51 53 82t115 31q86 0 125 -43t39 -114v-131q0 -32 14 -48t37 -16q40 0 64.5 43.5t24.5 144.5q0 62 -22 113.5t-62.5 88t-96.5 57t-125 20.5q-70 0 -129.5 -24.5t-103 -68 t-68 -104t-24.5 -132.5t23.5 -132.5t65.5 -105t100 -69.5t128 -25q75 0 131.5 14t96.5 32l16 -78q-50 -21 -107.5 -34.5t-136.5 -13.5q-87 0 -160.5 31t-127 86t-83.5 130.5t-30 164.5t31.5 164t86 129.5t129.5 85t162 30.5q85 0 157 -25.5t123.5 -72t80.5 -112.5t29 -147z "/>
<glyph glyph-name="A" horiz-adv-x="766" unicode="A" d="M600 123h-434l-57 -123h-99l326 700h94l326 -700h-99zM208 213h350l-175 378z"/>
<glyph glyph-name="B" horiz-adv-x="607" unicode="B" d="M477 195q0 48 -28 79t-71 31h-208v-215h203q45 0 74.5 28.5t29.5 76.5zM477 505q0 48 -29.5 76.5t-74.5 28.5h-203v-215h208q43 0 71 31t28 79zM373 700q40 0 75.5 -14t61.5 -39.5t41.5 -61.5t15.5 -80q0 -50 -23 -91t-62 -64q39 -23 62 -63.5t23 -91.5q0 -44 -15.5 -80 t-41.5 -61.5t-61.5 -39.5t-75.5 -14h-293v700h293z"/>
<glyph glyph-name="C" horiz-adv-x="659" unicode="C" d="M50 350q0 75 27 139t73.5 111t110 73.5t137.5 26.5q75 0 136 -27t110 -72l-41 -85q-38 40 -89.5 67t-119.5 27q-54 0 -100.5 -19t-80.5 -53t-53.5 -82t-19.5 -106t19.5 -106t53.5 -82t80.5 -53t100.5 -19q32 0 62.5 6t66.5 23l16 -90q-42 -15 -76 -22t-69 -7 q-71 0 -134 26.5t-109.5 73.5t-73.5 111t-27 139z"/>
<glyph glyph-name="D" horiz-adv-x="719" unicode="D" d="M579 350q0 57 -19.5 104.5t-54 82t-82 54t-103.5 19.5h-150v-520h150q56 0 103.5 19t82 53.5t54 82.5t19.5 105zM320 700q74 0 138 -26.5t111 -73t73.5 -110.5t26.5 -140t-26.5 -140t-73.5 -110.5t-111 -73t-138 -26.5h-240v700h240z"/>
<glyph glyph-name="E" horiz-adv-x="565" unicode="E" d="M510 700v-90h-340v-215h340v-90h-340v-215h340v-90h-430v700h430z"/>
<glyph glyph-name="F" horiz-adv-x="550" unicode="F" d="M510 700v-90h-340v-215h340v-90h-340v-305h-90v700h430z"/>
<glyph glyph-name="G" horiz-adv-x="659" unicode="G" d="M50 351q0 74 27 138t73.5 111t110 73.5t137.5 26.5q75 0 136 -27t110 -73l-41 -85q-38 41 -89.5 68t-119.5 27q-54 0 -100.5 -19t-80.5 -53t-53.5 -82t-19.5 -106t19.5 -106t53.5 -82t80.5 -53t101.5 -19q19 0 33 2t30 6v181h-161v90h251v-337q-36 -14 -74.5 -23 t-80.5 -9q-71 0 -133.5 26.5t-109 74t-73.5 111.5t-27 139z"/>
<glyph glyph-name="H" horiz-adv-x="740" unicode="H" d="M660 700v-700h-90v305h-400v-305h-90v700h90v-305h400v305h90z"/>
<glyph glyph-name="I" horiz-adv-x="250" unicode="I" d="M170 700v-700h-90v700h90z"/>
<glyph glyph-name="J" horiz-adv-x="492" unicode="J" d="M422 700v-479q0 -49 -13 -89.5t-38.5 -70t-63.5 -45.5t-87 -16q-55 0 -94 18.5t-63.5 47t-36 64t-11.5 69.5l83 41q0 -30 7 -57.5t22 -48t38 -32.5t55 -12q30 0 51.5 10.5t35 28.5t19.5 41.5t6 50.5v479h90z"/>
<glyph glyph-name="K" horiz-adv-x="647" unicode="K" d="M276 330l-106 -107v-223h-90v700h90v-349l345 349h127l-302 -305l302 -395h-114z"/>
<glyph glyph-name="L" horiz-adv-x="532" unicode="L" d="M170 700v-610h347v-90h-437v700h90z"/>
<glyph glyph-name="M" horiz-adv-x="1011" unicode="M" d="M170 0h-90v700h90l336 -584l335 584h90v-700h-90v515l-296 -515h-79l-296 515v-515z"/>
<glyph glyph-name="N" horiz-adv-x="767" unicode="N" d="M697 700v-700h-90l-447 555v-555h-90v700h90l447 -556v556h90z"/>
<glyph glyph-name="O" horiz-adv-x="800" unicode="O" d="M660 350q0 56 -19.5 104t-54 82.5t-82.5 54t-104 19.5t-104 -19.5t-82.5 -54t-54 -82.5t-19.5 -104t19.5 -104t54 -82.5t82.5 -54t104 -19.5t104 19.5t82.5 54t54 82.5t19.5 104zM50 350q0 75 26.5 139t73.5 111t111 73.5t139 26.5t139.5 -26.5t111 -73.5t73 -111 t26.5 -139t-26.5 -139t-73 -111t-111 -73.5t-139.5 -26.5t-139 26.5t-111 73.5t-73.5 111t-26.5 139z"/>
<glyph glyph-name="P" horiz-adv-x="595" unicode="P" d="M475 464q0 32 -11.5 58.5t-31 46t-46.5 30.5t-57 11h-159v-292h159q30 0 57 11t46.5 30.5t31 46t11.5 58.5zM329 700q51 0 94 -18t74.5 -49.5t49.5 -74.5t18 -94t-18 -94.5t-49.5 -75t-74.5 -49t-94 -17.5h-159v-228h-90v700h249z"/>
<glyph glyph-name="Q" horiz-adv-x="835" unicode="Q" d="M400 90q85 0 148 43l-196 196l63 63l197 -197q48 65 48 155q0 56 -19.5 104t-54 82.5t-82.5 54t-104 19.5t-104 -19.5t-82.5 -54t-54 -82.5t-19.5 -104t19.5 -104t54 -82.5t82.5 -54t104 -19.5zM613 68q-44 -32 -97.5 -50t-115.5 -18q-75 0 -139 26.5t-111 73.5 t-73.5 111t-26.5 139t26.5 139t73.5 111t111 73.5t139 26.5t139.5 -26.5t111 -73.5t73 -111t26.5 -139q0 -64 -19 -119.5t-54 -100.5l178 -178l-63 -63z"/>
<glyph glyph-name="R" horiz-adv-x="673" unicode="R" d="M170 0h-90v700h269q51 0 94 -17.5t74.5 -49t49.5 -74.5t18 -94q0 -72 -33.5 -126t-90.5 -83l207 -256h-118l-185 230h-16h-179v-230zM293 320l-40 50l70 56l78 -97q42 15 68 51t26 85q0 32 -11.5 58.5t-31.5 46t-46.5 30t-56.5 10.5h-179v-290h123z"/>
<glyph glyph-name="S" horiz-adv-x="519" unicode="S" d="M48 511q0 45 17 80.5t46 59.5t67.5 36.5t80.5 12.5q83 0 140 -45t80 -123l-85 -34q-16 60 -51 86t-86 26q-59 0 -89 -29t-30 -71q0 -26 10.5 -43.5t29 -30.5t44 -22.5t54.5 -19.5q41 -14 76.5 -29.5t61.5 -38t41 -54.5t15 -78q0 -50 -17 -86.5t-45.5 -60.5t-66 -35.5 t-78.5 -11.5q-32 0 -66 8t-64.5 27t-55 51.5t-37.5 80.5l79 42q14 -58 49 -88.5t94 -30.5q54 0 86 26t32 75q0 28 -10.5 46.5t-28 31.5t-39.5 21t-46 16q-34 11 -71 25.5t-67.5 37.5t-50 57.5t-19.5 84.5z"/>
<glyph glyph-name="T" horiz-adv-x="651" unicode="T" d="M370 610v-610h-90v610h-275v90h641v-90h-276z"/>
<glyph glyph-name="U" horiz-adv-x="780" unicode="U" d="M710 700v-380q0 -68 -24.5 -126.5t-67.5 -101.5t-101.5 -67.5t-126.5 -24.5t-126.5 24.5t-101.5 67.5t-67.5 101.5t-24.5 126.5v380h90v-380q0 -49 17.5 -91t48.5 -73t73 -48.5t91 -17.5t91 17.5t73 48.5t48.5 73t17.5 91v380h90z"/>
<glyph glyph-name="V" horiz-adv-x="744" unicode="V" d="M338 0l-333 700h100l268 -564l266 564h100l-333 -700h-68z"/>
<glyph glyph-name="W" horiz-adv-x="1220" unicode="W" d="M288 0l-278 700h97l217 -546l243 546h86l243 -546l217 546h97l-278 -700h-66l-256 573l-256 -573h-66z"/>
<glyph glyph-name="X" horiz-adv-x="712" unicode="X" d="M15 0l283 350l-283 350h115l226 -279l226 279h115l-283 -350l283 -350h-116l-225 278l-225 -278h-116z"/>
<glyph glyph-name="Y" horiz-adv-x="662" unicode="Y" d="M286 0v295l-281 405h110l216 -312l216 312h110l-281 -405v-295h-90z"/>
<glyph glyph-name="Z" horiz-adv-x="662" unicode="Z" d="M612 700v-69l-428 -541h428v-90h-562v69l428 541h-428v90h562z"/>
<glyph glyph-name="bracketleft" horiz-adv-x="340" unicode="[" d="M310 761v-74h-120v-747h120v-74h-200v895h200z"/>
<glyph glyph-name="backslash" horiz-adv-x="733" unicode="\" d="M80 750l619 -752l-60 -50l-619 752z"/>
<glyph glyph-name="bracketright" horiz-adv-x="340" unicode="]" d="M230 761v-895h-200v74h120v747h-120v74h200z"/>
<glyph glyph-name="asciicircum" horiz-adv-x="388" unicode="^" d="M232 738l136 -237l-65 -34l-109 193l-109 -193l-65 34l136 237h76z"/>
<glyph glyph-name="underscore" horiz-adv-x="598" unicode="_" d="M568 10v-90h-538v90h538z"/>
<glyph glyph-name="grave" horiz-adv-x="352" unicode="`" d="M91 767l211 -136l-39 -60l-213 133z"/>
<glyph glyph-name="a" horiz-adv-x="515" unicode="a" d="M63 386q14 56 62 91t139 35q104 0 152.5 -48.5t48.5 -138.5v-325h-86v71q-26 -38 -68 -59.5t-96 -21.5q-41 0 -72.5 12t-53 32.5t-33 49t-11.5 61.5q0 35 12 62t34 46.5t51 31t64 14.5l141 14q32 3 32 27v13q0 37 -27.5 59.5t-83.5 22.5q-52 0 -86.5 -21.5t-42.5 -68.5z M379 239l-163 -20q-42 -5 -61.5 -26t-19.5 -49q0 -32 23.5 -52.5t69.5 -20.5q36 0 64 11.5t47.5 30.5t29.5 42t10 47v37z"/>
<glyph glyph-name="b" horiz-adv-x="603" unicode="b" d="M484 250q0 40 -11.5 73.5t-33 57.5t-52.5 37.5t-70 13.5q-77 0 -122 -49.5t-45 -132.5t45 -132.5t122 -49.5q39 0 70 13.5t52.5 37.5t33 57.5t11.5 73.5zM156 700v-273q31 38 73.5 61.5t102.5 23.5q51 0 95.5 -18.5t76.5 -52.5t50.5 -82.5t18.5 -108.5t-18.5 -108.5 t-50.5 -82.5t-76.5 -52.5t-95.5 -18.5q-61 0 -104.5 23.5t-71.5 60.5v-72h-86v700h86z"/>
<glyph glyph-name="c" horiz-adv-x="498" unicode="c" d="M30 249q0 56 18.5 104t53 83.5t83 55.5t108.5 20q58 0 102.5 -19t79.5 -54l-56 -66q-26 24 -57.5 40t-73.5 16q-36 0 -67 -12.5t-53.5 -35.5t-35.5 -56t-13 -75q0 -41 13 -74t35.5 -56.5t53 -36t66.5 -12.5q45 0 79 17.5t60 41.5l52 -67q-32 -32 -79 -53.5t-111 -21.5 q-59 0 -107 19.5t-81.5 54.5t-51.5 82.5t-18 104.5z"/>
<glyph glyph-name="d" horiz-adv-x="603" unicode="d" d="M533 700v-700h-86v72q-28 -37 -71.5 -60.5t-104.5 -23.5q-51 0 -95.5 18.5t-76.5 52.5t-50.5 82.5t-18.5 108.5t18.5 108.5t50.5 82.5t76.5 52.5t95.5 18.5q60 0 102.5 -23.5t73.5 -61.5v273h86zM286 432q-39 0 -70 -13.5t-52.5 -37.5t-33 -57.5t-11.5 -73.5t11.5 -73.5 t33 -57.5t52.5 -37.5t70 -13.5q77 0 122 49.5t45 132.5t-45 132.5t-122 49.5z"/>
<glyph glyph-name="e" horiz-adv-x="542" unicode="e" d="M423 293q-6 63 -41.5 101t-103.5 38q-71 0 -109.5 -38t-47.5 -101h302zM30 246q0 55 17.5 103.5t49.5 84.5t77.5 57t102.5 21q59 0 104 -20t75 -55.5t45.5 -83.5t15.5 -103v-26h-400v-1q2 -38 16 -67t36 -48.5t51 -29.5t61 -10q55 0 94 23t65 54l45 -67q-15 -17 -35 -33 t-45 -29t-55 -20.5t-65 -7.5q-57 0 -103.5 18t-80.5 51.5t-52.5 81.5t-18.5 107z"/>
<glyph glyph-name="f" horiz-adv-x="360" unicode="f" d="M193 425v-425h-86v425h-92v75h92v28q0 50 12 84.5t33 56t50.5 31t65.5 9.5q21 0 39 -2t38 -5v-79q-19 3 -35 5t-31 2q-46 0 -66 -22t-20 -80v-28h145v-75h-145z"/>
<glyph glyph-name="g" horiz-adv-x="613" unicode="g" d="M40 250q0 60 18.5 108.5t51.5 82.5t77.5 52.5t96.5 18.5q63 0 107 -23.5t66 -56.5v68h86v-473q0 -45 -10 -88t-37 -76.5t-74 -54.5t-120 -21q-47 0 -83 9t-63 25t-47 39t-34 50l67 53q24 -48 64 -74t103 -26q47 0 76.5 14t46 37.5t22.5 53t6 59.5v41q-24 -35 -69.5 -57.5 t-105.5 -22.5q-56 0 -101 18.5t-77 52.5t-49.5 82.5t-17.5 108.5zM463 250q0 83 -43.5 132.5t-120.5 49.5q-39 0 -70.5 -13.5t-53.5 -37.5t-34 -57.5t-12 -73.5t12 -73.5t34 -57.5t53.5 -37.5t70.5 -13.5q77 0 120.5 49.5t43.5 132.5z"/>
<glyph glyph-name="h" horiz-adv-x="567" unicode="h" d="M156 700v-266q57 78 163 78q48 0 83.5 -16t58.5 -44.5t34.5 -69t11.5 -88.5v-294h-88v298q0 62 -30 98t-87 36q-43 0 -71.5 -15.5t-45 -42t-23 -63t-6.5 -78.5v-233h-86v700h86z"/>
<glyph glyph-name="i" horiz-adv-x="236" unicode="i" d="M161 500v-500h-86v500h86zM50 644q0 29 19.5 48.5t48.5 19.5t48.5 -19.5t19.5 -48.5t-19.5 -48.5t-48.5 -19.5t-48.5 19.5t-19.5 48.5z"/>
<glyph glyph-name="j" horiz-adv-x="255" unicode="j" d="M175 500v-524q0 -45 -10.5 -79t-34 -56.5t-62 -33.5t-94.5 -11h-4v83h4q36 0 58.5 6.5t35 19.5t17 30.5t4.5 40.5v524h86zM64 644q0 29 19.5 48.5t48.5 19.5t48.5 -19.5t19.5 -48.5t-19.5 -48.5t-48.5 -19.5t-48.5 19.5t-19.5 48.5z"/>
<glyph glyph-name="k" horiz-adv-x="515" unicode="k" d="M231 223l-75 -76v-147h-86v700h86v-442l228 242h121l-216 -218l216 -282h-112z"/>
<glyph glyph-name="l" horiz-adv-x="228" unicode="l" d="M158 700v-700h-88v700h88z"/>
<glyph glyph-name="m" horiz-adv-x="926" unicode="m" d="M476 413q29 44 72 71.5t114 27.5q52 0 89 -16t60.5 -45.5t34 -70.5t10.5 -92v-288h-87v299q0 65 -29 99t-87 34q-43 0 -71.5 -15.5t-45.5 -42t-24 -63t-7 -78.5v-233h-86v299q0 65 -29.5 99t-88.5 34q-43 0 -71 -15.5t-44.5 -42.5t-23 -63.5t-6.5 -77.5v-233h-86v500h83 v-70q23 38 63 60t96 22q64 0 104 -27t60 -72z"/>
<glyph glyph-name="n" horiz-adv-x="577" unicode="n" d="M153 433q30 42 73.5 60.5t92.5 18.5q48 0 83.5 -16t58.5 -44.5t34.5 -69t11.5 -88.5v-294h-88v298q0 66 -32.5 100t-85.5 34q-43 0 -71 -15.5t-44.5 -42t-23 -63t-6.5 -78.5v-233h-86v500h83v-67z"/>
<glyph glyph-name="o" horiz-adv-x="584" unicode="o" d="M465 250q0 39 -12.5 72t-35 56.5t-54.5 37t-71 13.5t-71 -13.5t-54.5 -37t-35 -56.5t-12.5 -72t12.5 -72t35 -56.5t54.5 -37t71 -13.5t71 13.5t54.5 37t35 56.5t12.5 72zM30 250q0 56 20 104t55 83t83 55t104 20t104 -20t83 -55t55 -83t20 -104t-20 -104t-55 -83t-83 -55 t-104 -20t-104 20t-83 55t-55 83t-20 104z"/>
<glyph glyph-name="p" horiz-adv-x="603" unicode="p" d="M70 -200v700h86v-72q28 37 71.5 60.5t104.5 23.5q51 0 95.5 -18.5t76.5 -52.5t50.5 -82.5t18.5 -108.5t-18.5 -108.5t-50.5 -82.5t-76.5 -52.5t-95.5 -18.5q-60 0 -102.5 23.5t-73.5 61.5v-273h-86zM317 68q39 0 70 13.5t52.5 37.5t33 57.5t11.5 73.5t-11.5 73.5 t-33 57.5t-52.5 37.5t-70 13.5q-77 0 -122 -49.5t-45 -132.5t45 -132.5t122 -49.5z"/>
<glyph glyph-name="q" horiz-adv-x="603" unicode="q" d="M119 250q0 -40 11.5 -73.5t33 -57.5t52.5 -37.5t70 -13.5q77 0 122 49.5t45 132.5t-45 132.5t-122 49.5q-39 0 -70 -13.5t-52.5 -37.5t-33 -57.5t-11.5 -73.5zM447 -200v273q-31 -38 -73.5 -61.5t-102.5 -23.5q-51 0 -95.5 18.5t-76.5 52.5t-50.5 82.5t-18.5 108.5 t18.5 108.5t50.5 82.5t76.5 52.5t95.5 18.5q61 0 104.5 -23.5t71.5 -60.5v72h86v-700h-86z"/>
<glyph glyph-name="r" horiz-adv-x="373" unicode="r" d="M153 425q23 42 60.5 64.5t90.5 22.5q13 0 25 -1.5t24 -3.5v-91q-13 3 -24.5 4.5t-25.5 1.5q-42 0 -70 -13.5t-45.5 -38.5t-24.5 -60t-7 -77v-233h-86v500h83v-75z"/>
<glyph glyph-name="s" horiz-adv-x="463" unicode="s" d="M53 364q0 66 49.5 107t137.5 41q75 0 122.5 -29t75.5 -79l-71 -45q-16 31 -46.5 52t-82.5 21q-42 0 -70.5 -16.5t-28.5 -46.5q0 -18 9 -29.5t25 -20t37.5 -14t47.5 -11.5q31 -7 63 -15t58 -24t42.5 -42.5t16.5 -69.5q0 -40 -14.5 -69.5t-40.5 -48.5t-61 -28t-76 -9 q-35 0 -68 6.5t-62 21t-52.5 36.5t-38.5 53l71 45q23 -47 64.5 -64.5t87.5 -17.5q49 0 76.5 17t27.5 52q0 19 -8 31t-22.5 20t-35 13.5t-45.5 10.5q-31 6 -64 15.5t-60.5 26t-45.5 43t-18 67.5z"/>
<glyph glyph-name="t" horiz-adv-x="363" unicode="t" d="M338 7q-20 -5 -41 -8.5t-45 -3.5q-69 0 -103.5 32.5t-34.5 112.5v285h-99v75h99v134h86v-134h137v-75h-137v-290q0 -29 12.5 -44.5t44.5 -15.5q24 0 42.5 2t38.5 6v-76z"/>
<glyph glyph-name="u" horiz-adv-x="570" unicode="u" d="M500 500v-500h-83v72q-29 -42 -66 -63t-94 -21q-53 0 -88.5 16.5t-57.5 45t-31.5 68t-9.5 86.5v296h88v-296q0 -30 5 -55t18 -43t35 -28t56 -10q43 0 70.5 16.5t43.5 44t22 63.5t6 75v233h86z"/>
<glyph glyph-name="v" horiz-adv-x="528" unicode="v" d="M230 0l-220 500h101l153 -382l154 382h100l-220 -500h-68z"/>
<glyph glyph-name="w" horiz-adv-x="866" unicode="w" d="M215 0l-205 500h98l142 -371l152 371h62l152 -371l142 371h98l-205 -500h-66l-152 359l-152 -359h-66z"/>
<glyph glyph-name="x" horiz-adv-x="520" unicode="x" d="M260 183l-144 -183h-106l197 250l-197 250h106l144 -183l144 183h106l-197 -250l197 -250h-106z"/>
<glyph glyph-name="y" horiz-adv-x="525" unicode="y" d="M104 -200l124 266l-218 434h104l160 -334l155 334h91l-323 -700h-93z"/>
<glyph glyph-name="z" horiz-adv-x="454" unicode="z" d="M414 500v-77l-278 -343h288v-80h-394v77l278 343h-269v80h375z"/>
<glyph glyph-name="braceleft" horiz-adv-x="378" unicode="{" d="M358 761v-75h-32q-34 0 -57 -19t-23 -57v-167q0 -45 -17.5 -76t-62.5 -48q45 -17 62.5 -47t17.5 -75v-180q0 -38 23 -57t57 -19h32v-75h-27q-74 0 -118.5 36t-44.5 120v165q0 42 -29 65t-79 26v74q50 3 79 27t29 66v160q0 84 44.5 120t118.5 36h27z"/>
<glyph glyph-name="bar" horiz-adv-x="275" unicode="|" d="M175 761v-895h-75v895h75z"/>
<glyph glyph-name="braceright" horiz-adv-x="378" unicode="}" d="M47 761q37 0 67 -8.5t51.5 -27.5t33 -48.5t11.5 -71.5v-160q0 -42 29 -66t79 -27v-74q-50 -3 -79 -26t-29 -65v-165q0 -42 -11.5 -71.5t-33 -48.5t-51.5 -27.5t-67 -8.5h-27v75h32q34 0 57 19t23 57v180q0 45 17.5 75t62.5 47q-45 17 -62.5 48t-17.5 76v167q0 38 -23 57 t-57 19h-32v75h27z"/>
<glyph glyph-name="asciitilde" horiz-adv-x="683" unicode="~" d="M70 307q33 32 74 56.5t89 24.5q34 0 63.5 -12t56.5 -26.5t51.5 -26.5t47.5 -12q29 0 57.5 17.5t51.5 40.5l52 -54q-35 -33 -75.5 -59t-88.5 -26q-33 0 -62 12t-56 26.5t-52 26.5t-48 12q-29 0 -57.5 -17.5t-51.5 -40.5z"/>
<glyph glyph-name="exclamdown" horiz-adv-x="316" unicode="¡" d="M113 -200v480h90v-480h-90zM237 422q0 -33 -23 -56t-56 -23t-55.5 23t-22.5 56t22.5 55.5t55.5 22.5t56 -22.5t23 -55.5z"/>
<glyph glyph-name="cent" horiz-adv-x="498" unicode="¢" d="M119 250q0 -70 35.5 -116t92.5 -59v350q-57 -13 -92.5 -58t-35.5 -117zM478 63q-29 -29 -70 -49.5t-96 -24.5v-86h-65v88q-50 6 -90.5 28t-68.5 56t-43 78.5t-15 95.5t15 95t43.5 78t68.5 56.5t90 30.5v90h65v-88q51 -3 91 -21.5t72 -50.5l-56 -66q-23 20 -48.5 35 t-58.5 19v-354q35 5 63 21t51 36z"/>
<glyph glyph-name="sterling" horiz-adv-x="613" unicode="£" d="M593 91q-14 -19 -32.5 -35.5t-42 -29t-54 -19.5t-68.5 -7h-326v82q42 5 65 30.5t23 72.5v135h-98v75h98v105q0 42 11.5 78.5t35.5 63.5t60 42.5t85 15.5q35 0 63.5 -10t50.5 -25.5t38 -35.5t25 -41l-76 -54q-12 35 -39 58t-62 23q-48 0 -75 -29t-27 -86v-105h195v-75 h-195v-135q0 -45 -16 -68.5t-31 -31.5h195q53 0 91 25t60 61z"/>
<glyph glyph-name="currency" horiz-adv-x="544" unicode="¤" d="M272 475q-26 0 -48.5 -10t-39.5 -27t-27 -39.5t-10 -48.5t10 -48.5t27 -39t39.5 -26.5t48.5 -10q25 0 48 10t40 26.5t27 39t10 48.5t-10 48.5t-27 39.5t-40 27t-48 10zM397 182q-26 -20 -58 -30.5t-67 -10.5t-66.5 10.5t-57.5 29.5l-84 -82l-44 44l83 84q-20 26 -30.5 57 t-10.5 66t10.5 67t30.5 58l-76 75l47 44l74 -75q26 20 57.5 30.5t66.5 10.5t66.5 -10.5t57.5 -30.5l74 75l46 -44l-76 -75q42 -54 42 -125q0 -35 -10.5 -66t-29.5 -57l82 -84l-44 -44z"/>
<glyph glyph-name="yen" horiz-adv-x="662" unicode="¥" d="M376 156v-156h-90v156h-188v70h188v69h-188v70h139l-232 335h110l216 -312l216 312h110l-232 -335h139v-70h-188v-69h188v-70h-188z"/>
<glyph glyph-name="brokenbar" horiz-adv-x="275" unicode="¦" d="M175 284v-418h-75v418h75zM175 761v-388h-75v388h75z"/>
<glyph glyph-name="section" horiz-adv-x="516" unicode="§" d="M270 712q58 0 104 -26.5t73 -81.5l-71 -45q-16 36 -45.5 54.5t-64.5 18.5q-43 0 -67 -22.5t-24 -57.5q0 -32 21.5 -51.5t54 -34.5t70 -29.5t70 -35.5t54 -52.5t21.5 -81.5q0 -51 -24 -89.5t-69 -61.5q24 -20 39 -48t15 -70q0 -36 -12.5 -66.5t-35.5 -53t-56.5 -35.5 t-75.5 -13q-59 0 -105 26.5t-73 81.5l71 45q16 -36 45 -54.5t64 -18.5q44 0 68 23.5t24 59.5q0 32 -21.5 52t-54 35t-70 29t-70 35t-54 52t-21.5 80q0 54 26 92t69 59q-25 20 -40.5 49t-15.5 71q0 38 13.5 68.5t38 52t57.5 33t72 11.5zM221 383q-35 -14 -60.5 -39t-25.5 -61 q0 -26 14.5 -43.5t37.5 -31t52.5 -24.5t58.5 -24q34 14 58.5 39t24.5 60q0 26 -14 44t-37 31.5t-51.5 24.5t-57.5 24z"/>
<glyph glyph-name="dieresis" horiz-adv-x="438" unicode="¨" d="M252 644q0 29 19.5 48.5t48.5 19.5t48.5 -19.5t19.5 -48.5t-19.5 -48.5t-48.5 -19.5t-48.5 19.5t-19.5 48.5zM50 644q0 29 19.5 48.5t48.5 19.5t48.5 -19.5t19.5 -48.5t-19.5 -48.5t-48.5 -19.5t-48.5 19.5t-19.5 48.5z"/>
<glyph glyph-name="copyright" horiz-adv-x="824" unicode="©" d="M214 354q0 42 15 78t41.5 62.5t62.5 41.5t78 15q43 0 78 -16t66 -47l-29 -63q-48 58 -116 58q-55 0 -91.5 -35t-36.5 -94q0 -29 9.5 -53t27 -41.5t41 -27t52.5 -9.5q31 0 60.5 14t53.5 40l29 -63q-31 -29 -66 -43.5t-77 -14.5t-78.5 15t-63 41.5t-41.5 63t-15 78.5z M704 350q0 63 -22 116.5t-61 92.5t-92.5 61t-116.5 22t-116.5 -22t-92.5 -61t-61 -92.5t-22 -116.5t22 -116.5t61 -92.5t92.5 -61t116.5 -22t116.5 22t92.5 61t61 92.5t22 116.5zM50 350q0 77 27.5 143.5t75.5 115t114.5 76t144.5 27.5t144.5 -27.5t114.5 -76t75.5 -115 t27.5 -143.5t-27.5 -143.5t-75.5 -115t-114.5 -76t-144.5 -27.5t-144.5 27.5t-114.5 76t-75.5 115t-27.5 143.5z"/>
<glyph glyph-name="ordfeminine" horiz-adv-x="441" unicode="ª" d="M391 330h-78v54q-19 -29 -51 -45.5t-75 -16.5q-63 0 -100 35t-37 89q0 29 10.5 51t28 36.5t38.5 22t42 9.5l144 12q0 45 -18.5 63.5t-63.5 18.5q-39 0 -64.5 -15t-34.5 -51l-70 37q14 45 52.5 72t110.5 27q86 0 126 -39.5t40 -114.5v-245zM130 445q0 -22 17.5 -35.5 t50.5 -13.5q24 0 45 8t36.5 21t24.5 30t9 35v19l-132 -14q-26 -4 -38.5 -18t-12.5 -32z"/>
<glyph glyph-name="guillemotleft" horiz-adv-x="563" unicode="«" d="M242 260l185 210l57 -52l-143 -158l143 -159l-57 -51zM40 260l185 210l57 -52l-143 -158l143 -159l-57 -51z"/>
<glyph glyph-name="logicalnot" d="M549 374v-254h-91v164h-367v90h458z" unicode="¬"/>
<glyph glyph-name="softhyphen" horiz-adv-x="528" unicode="­" d="M448 354v-90h-368v90h368z"/>
<glyph glyph-name="registered" horiz-adv-x="824" unicode="®" d="M289 168v379h148q27 0 50.5 -9t40.5 -25t27 -38.5t10 -48.5q0 -49 -24.5 -78t-63.5 -38l87 -142h-75l-81 136l1 1h-58v-137h-62zM503 426q0 26 -19 43t-47 17h-86v-120h86q28 0 47 13.5t19 46.5zM704 350q0 63 -22 116.5t-61 92.5t-92.5 61t-116.5 22t-116.5 -22 t-92.5 -61t-61 -92.5t-22 -116.5t22 -116.5t61 -92.5t92.5 -61t116.5 -22t116.5 22t92.5 61t61 92.5t22 116.5zM50 350q0 77 27.5 143.5t75.5 115t114.5 76t144.5 27.5t144.5 -27.5t114.5 -76t75.5 -115t27.5 -143.5t-27.5 -143.5t-75.5 -115t-114.5 -76t-144.5 -27.5 t-144.5 27.5t-114.5 76t-75.5 115t-27.5 143.5z"/>
<glyph glyph-name="macron" horiz-adv-x="400" unicode="¯" d="M350 687v-70h-300v70h300z"/>
<glyph glyph-name="degree" horiz-adv-x="370" unicode="°" d="M262 590q0 33 -21 55t-56 22t-56 -22t-21 -55t21 -55t56 -22t56 22t21 55zM50 590q0 28 10.5 51.5t28.5 41t42.5 27.5t53.5 10t53.5 -10t42.5 -27.5t28.5 -41t10.5 -51.5t-10.5 -51.5t-28.5 -41t-42.5 -27.5t-53.5 -10t-53.5 10t-42.5 27.5t-28.5 41t-10.5 51.5z"/>
<glyph glyph-name="plusminus" d="M556 173v-88h-472v88h472zM363 580v-139h193v-88h-193v-139h-86v139h-193v88h193v139h86z" unicode="±"/>
<glyph glyph-name="twosuperior" horiz-adv-x="356" unicode="²" d="M30 729q8 15 20.5 31.5t30.5 29.5t41 21.5t52 8.5q61 0 99.5 -37t38.5 -96q0 -35 -13.5 -62.5t-33.5 -46.5l-103 -102h150v-76h-270v62l165 162q13 12 21 27t8 32q0 28 -18 44.5t-45 16.5q-30 0 -52 -19t-34 -44z"/>
<glyph glyph-name="threesuperior" horiz-adv-x="349" unicode="³" d="M32 745q16 31 51 53t83 22q63 0 100 -33t37 -84q0 -36 -17 -59t-38 -34q23 -11 39 -34t16 -59q0 -54 -36.5 -85.5t-99.5 -31.5q-50 0 -85 22.5t-50 54.5l55 55q11 -27 33 -41.5t48 -14.5t42.5 13t16.5 36q0 22 -15.5 34.5t-41.5 13.5h-30v75h30q26 1 41.5 13.5t15.5 34.5 q0 23 -16.5 35.5t-42.5 12.5t-47.5 -14.5t-33.5 -40.5z"/>
<glyph glyph-name="acute" horiz-adv-x="352" unicode="´" d="M261 767l41 -63l-213 -133l-39 60z"/>
<glyph glyph-name="uni00B5" d="M292 -12q-62 0 -102 23v-211h-85v700h88v-296q0 -30 5 -55t18 -43t35 -28t56 -10q43 0 70.5 16.5t43.5 44t22 63.5t6 75v233h86v-500h-83v72q-29 -42 -66 -63t-94 -21z" unicode="µ"/>
<glyph glyph-name="paragraph" horiz-adv-x="506" unicode="¶" d="M476 700v-834h-78v759h-104v-759h-78v462q-40 0 -74 14.5t-59 39.5t-39 59t-14 73t14 73t39 59t59 39.5t74 14.5h260z"/>
<glyph glyph-name="periodcentered" horiz-adv-x="357" unicode="·" d="M178 425q33 0 56 -23t23 -56t-23 -55.5t-56 -22.5t-55.5 22.5t-22.5 55.5t22.5 56t55.5 23z"/>
<glyph glyph-name="cedilla" horiz-adv-x="238" unicode="¸" d="M132 30q32 -34 44 -60t12 -51q0 -43 -26 -64.5t-61 -21.5q-11 0 -24.5 2.5t-26.5 7.5v58q11 -3 20.5 -5t17.5 -2q14 0 23 7.5t9 26.5q0 18 -12 43t-44 59h68z"/>
<glyph glyph-name="onesuperior" horiz-adv-x="310" unicode="¹" d="M239 820v-420h-75v304l-86 -84l-52 54l148 146h65z"/>
<glyph glyph-name="ordmasculine" horiz-adv-x="518" unicode="º" d="M384 525q0 26 -9.5 49t-26 40t-39.5 27t-50 10t-50 -10t-39.5 -27t-25.5 -40t-9 -49t9 -49t25.5 -40t39.5 -27t50 -10t50 10t39.5 27t26 40t9.5 49zM50 525q0 42 16.5 79.5t44.5 65t66 43.5t82 16q43 0 81.5 -16t66.5 -43.5t44.5 -65t16.5 -79.5t-16.5 -79.5t-44.5 -65 t-66.5 -43.5t-81.5 -16q-44 0 -82 16t-66 43.5t-44.5 65t-16.5 79.5z"/>
<glyph glyph-name="guillemotright" horiz-adv-x="564" unicode="»" d="M137 50l-57 51l143 159l-143 158l57 52l185 -210zM339 50l-57 51l143 159l-143 158l57 52l185 -210z"/>
<glyph glyph-name="onequarter" horiz-adv-x="871" unicode="¼" d="M677 287l-115 -140h115v140zM753 420v-273h68v-75h-68v-72h-76v72h-222v66l235 282h63zM677 700l50 -40l-523 -660l-50 41zM263 700v-420h-75v304l-86 -84l-52 54l148 146h65z"/>
<glyph glyph-name="onehalf" horiz-adv-x="839" unicode="½" d="M507 329q8 15 20.5 31.5t30.5 29.5t41 21.5t52 8.5q61 0 99.5 -37t38.5 -96q0 -35 -13.5 -62.5t-33.5 -46.5l-103 -102h150v-76h-270v62l165 162q13 12 21 27t8 32q0 28 -18 44.5t-45 16.5q-30 0 -52 -19t-34 -44zM651 700l50 -40l-523 -660l-50 41zM263 700v-420h-75 v304l-86 -84l-52 54l148 146h65z"/>
<glyph glyph-name="threequarters" horiz-adv-x="864" unicode="¾" d="M670 287l-115 -140h115v140zM184 700q63 0 100 -33t37 -84q0 -36 -17 -59t-38 -34q23 -11 39 -34t16 -59q0 -54 -36.5 -85.5t-99.5 -31.5q-50 0 -85 22.5t-50 54.5l55 55q11 -27 33 -41.5t48 -14.5t42.5 13t16.5 36q0 22 -15.5 34.5t-41.5 13.5h-30v75h30q26 1 41.5 13.5 t15.5 34.5q0 23 -16.5 35.5t-42.5 12.5t-47.5 -14.5t-33.5 -40.5l-55 56q16 31 51 53t83 22zM746 420v-273h68v-75h-68v-72h-76v72h-222v66l235 282h63zM695 700l50 -40l-523 -660l-50 41z"/>
<glyph glyph-name="questiondown" horiz-adv-x="551" unicode="¿" d="M501 32q0 -50 -14.5 -92.5t-42.5 -73.5t-68.5 -48.5t-92.5 -17.5q-46 0 -83.5 14t-64 39.5t-41 60.5t-14.5 78q0 31 7.5 56t21 46t31 39.5t37.5 36.5q13 12 24.5 23.5t19.5 24t12.5 27t4.5 33.5v25h90v-25q0 -34 -9 -60.5t-23 -48t-31.5 -39t-34.5 -32.5 q-21 -18 -40.5 -41.5t-19.5 -61.5q0 -21 7 -40t21 -33.5t35.5 -23t50.5 -8.5q60 0 94.5 37.5t34.5 104.5h88zM282 343q-33 0 -56 23t-23 56t23 55.5t56 22.5t55.5 -22.5t22.5 -55.5t-22.5 -56t-55.5 -23z"/>
<glyph glyph-name="Agrave" horiz-adv-x="766" unicode="À" d="M600 123h-434l-57 -123h-99l326 700h94l326 -700h-99zM208 213h350l-175 378zM291 907l211 -136l-39 -60l-213 133z"/>
<glyph glyph-name="Aacute" horiz-adv-x="766" unicode="Á" d="M600 123h-434l-57 -123h-99l326 700h94l326 -700h-99zM208 213h350l-175 378zM484 907l41 -63l-213 -133l-39 60z"/>
<glyph glyph-name="Acircumflex" horiz-adv-x="766" unicode="Â" d="M600 123h-434l-57 -123h-99l326 700h94l326 -700h-99zM208 213h350l-175 378zM383 918l176 -151l-47 -52l-129 112l-129 -112l-47 52z"/>
<glyph glyph-name="Atilde" horiz-adv-x="766" unicode="Ã" d="M600 123h-434l-57 -123h-99l326 700h94l326 -700h-99zM208 213h350l-175 378zM442 737q-18 0 -34.5 7.5t-31 16t-27 16t-23.5 7.5q-14 0 -28 -12t-28 -27l-48 46q10 12 22.5 24.5t26 22t28 16t29.5 6.5q18 0 34.5 -7.5t31 -16t27 -16t23.5 -7.5q14 0 28 12t28 27l48 -46 q-10 -12 -22.5 -24.5t-26 -22t-28 -16t-29.5 -6.5z"/>
<glyph glyph-name="Adieresis" horiz-adv-x="766" unicode="Ä" d="M600 123h-434l-57 -123h-99l326 700h94l326 -700h-99zM208 213h350l-175 378zM416 801q0 29 19.5 48.5t48.5 19.5t48.5 -19.5t19.5 -48.5t-19.5 -48.5t-48.5 -19.5t-48.5 19.5t-19.5 48.5zM214 801q0 29 19.5 48.5t48.5 19.5t48.5 -19.5t19.5 -48.5t-19.5 -48.5 t-48.5 -19.5t-48.5 19.5t-19.5 48.5z"/>
<glyph glyph-name="Aring" horiz-adv-x="766" unicode="Å" d="M600 123h-434l-57 -123h-99l309 664q-21 14 -33.5 37.5t-12.5 53.5q0 48 31 79.5t79 31.5t79 -31.5t31 -79.5q0 -30 -12.5 -53.5t-33.5 -37.5l309 -664h-99zM208 213h350l-175 378zM436 755q0 24 -14.5 39.5t-38.5 15.5t-38.5 -15.5t-14.5 -39.5t14.5 -39.5t38.5 -15.5 t38.5 15.5t14.5 39.5z"/>
<glyph glyph-name="AE" horiz-adv-x="982" unicode="Æ" d="M497 123h-308l-78 -123h-106l443 700h49h430v-90h-340v-215h340v-90h-340v-215h340v-90h-430v123zM497 612l-252 -399h252v399z"/>
<glyph glyph-name="Ccedilla" horiz-adv-x="659" unicode="Ç" d="M382 -167q-11 0 -24.5 2.5t-26.5 7.5v58q11 -3 20.5 -5t17.5 -2q14 0 23 7.5t9 26.5q0 14 -7 32t-24 41q-67 4 -125.5 32.5t-101.5 75t-68 108t-25 133.5q0 75 27 139t73.5 111t110 73.5t137.5 26.5q75 0 136 -27t110 -72l-41 -85q-38 40 -89.5 67t-119.5 27 q-54 0 -100.5 -19t-80.5 -53t-53.5 -82t-19.5 -106t19.5 -106t53.5 -82t80.5 -53t100.5 -19q32 0 62.5 6t66.5 23l16 -90q-56 -20 -102 -26q18 -24 25 -44t7 -40q0 -43 -26 -64.5t-61 -21.5z"/>
<glyph glyph-name="Egrave" horiz-adv-x="565" unicode="È" d="M510 700v-90h-340v-215h340v-90h-340v-215h340v-90h-430v700h430zM202 907l211 -136l-39 -60l-213 133z"/>
<glyph glyph-name="Eacute" horiz-adv-x="565" unicode="É" d="M510 700v-90h-340v-215h340v-90h-340v-215h340v-90h-430v700h430zM395 907l41 -63l-213 -133l-39 60z"/>
<glyph glyph-name="Ecircumflex" horiz-adv-x="565" unicode="Ê" d="M510 700v-90h-340v-215h340v-90h-340v-215h340v-90h-430v700h430zM294 918l176 -151l-47 -52l-129 112l-129 -112l-47 52z"/>
<glyph glyph-name="Edieresis" horiz-adv-x="565" unicode="Ë" d="M510 700v-90h-340v-215h340v-90h-340v-215h340v-90h-430v700h430zM327 801q0 29 19.5 48.5t48.5 19.5t48.5 -19.5t19.5 -48.5t-19.5 -48.5t-48.5 -19.5t-48.5 19.5t-19.5 48.5zM125 801q0 29 19.5 48.5t48.5 19.5t48.5 -19.5t19.5 -48.5t-19.5 -48.5t-48.5 -19.5 t-48.5 19.5t-19.5 48.5z"/>
<glyph glyph-name="Igrave" horiz-adv-x="250" unicode="Ì" d="M170 700v-700h-90v700h90zM33 907l211 -136l-39 -60l-213 133z"/>
<glyph glyph-name="Iacute" horiz-adv-x="250" unicode="Í" d="M170 700v-700h-90v700h90zM226 907l41 -63l-213 -133l-39 60z"/>
<glyph glyph-name="Icircumflex" horiz-adv-x="250" unicode="Î" d="M170 700v-700h-90v700h90zM125 918l176 -151l-47 -52l-129 112l-129 -112l-47 52z"/>
<glyph glyph-name="Idieresis" horiz-adv-x="250" unicode="Ï" d="M170 700v-700h-90v700h90zM158 801q0 29 19.5 48.5t48.5 19.5t48.5 -19.5t19.5 -48.5t-19.5 -48.5t-48.5 -19.5t-48.5 19.5t-19.5 48.5zM-44 801q0 29 19.5 48.5t48.5 19.5t48.5 -19.5t19.5 -48.5t-19.5 -48.5t-48.5 -19.5t-48.5 19.5t-19.5 48.5z"/>
<glyph glyph-name="Eth" horiz-adv-x="719" unicode="Ð" d="M320 90q56 0 103.5 19t82 53.5t54 82.5t19.5 105t-19.5 104.5t-54 82t-82 54t-103.5 19.5h-150v-210h170v-90h-170v-220h150zM80 0v310h-80v90h80v300h240q74 0 138 -26.5t111 -73t73.5 -110.5t26.5 -140t-26.5 -140t-73.5 -110.5t-111 -73t-138 -26.5h-240z"/>
<glyph glyph-name="Ntilde" horiz-adv-x="767" unicode="Ñ" d="M697 700v-700h-90l-447 555v-555h-90v700h90l447 -556v556h90zM448 737q-18 0 -34.5 7.5t-31 16t-27 16t-23.5 7.5q-14 0 -28 -12t-28 -27l-48 46q10 12 22.5 24.5t26 22t28 16t29.5 6.5q18 0 34.5 -7.5t31 -16t27 -16t23.5 -7.5q14 0 28 12t28 27l48 -46 q-10 -12 -22.5 -24.5t-26 -22t-28 -16t-29.5 -6.5z"/>
<glyph glyph-name="Ograve" horiz-adv-x="800" unicode="Ò" d="M660 350q0 56 -19.5 104t-54 82.5t-82.5 54t-104 19.5t-104 -19.5t-82.5 -54t-54 -82.5t-19.5 -104t19.5 -104t54 -82.5t82.5 -54t104 -19.5t104 19.5t82.5 54t54 82.5t19.5 104zM50 350q0 75 26.5 139t73.5 111t111 73.5t139 26.5t139.5 -26.5t111 -73.5t73 -111 t26.5 -139t-26.5 -139t-73 -111t-111 -73.5t-139.5 -26.5t-139 26.5t-111 73.5t-73.5 111t-26.5 139zM306 907l211 -136l-39 -60l-213 133z"/>
<glyph glyph-name="Oacute" horiz-adv-x="800" unicode="Ó" d="M660 350q0 56 -19.5 104t-54 82.5t-82.5 54t-104 19.5t-104 -19.5t-82.5 -54t-54 -82.5t-19.5 -104t19.5 -104t54 -82.5t82.5 -54t104 -19.5t104 19.5t82.5 54t54 82.5t19.5 104zM50 350q0 75 26.5 139t73.5 111t111 73.5t139 26.5t139.5 -26.5t111 -73.5t73 -111 t26.5 -139t-26.5 -139t-73 -111t-111 -73.5t-139.5 -26.5t-139 26.5t-111 73.5t-73.5 111t-26.5 139zM499 907l41 -63l-213 -133l-39 60z"/>
<glyph glyph-name="Ocircumflex" horiz-adv-x="800" unicode="Ô" d="M660 350q0 56 -19.5 104t-54 82.5t-82.5 54t-104 19.5t-104 -19.5t-82.5 -54t-54 -82.5t-19.5 -104t19.5 -104t54 -82.5t82.5 -54t104 -19.5t104 19.5t82.5 54t54 82.5t19.5 104zM50 350q0 75 26.5 139t73.5 111t111 73.5t139 26.5t139.5 -26.5t111 -73.5t73 -111 t26.5 -139t-26.5 -139t-73 -111t-111 -73.5t-139.5 -26.5t-139 26.5t-111 73.5t-73.5 111t-26.5 139zM398 918l176 -151l-47 -52l-129 112l-129 -112l-47 52z"/>
<glyph glyph-name="Otilde" horiz-adv-x="800" unicode="Õ" d="M660 350q0 56 -19.5 104t-54 82.5t-82.5 54t-104 19.5t-104 -19.5t-82.5 -54t-54 -82.5t-19.5 -104t19.5 -104t54 -82.5t82.5 -54t104 -19.5t104 19.5t82.5 54t54 82.5t19.5 104zM50 350q0 75 26.5 139t73.5 111t111 73.5t139 26.5t139.5 -26.5t111 -73.5t73 -111 t26.5 -139t-26.5 -139t-73 -111t-111 -73.5t-139.5 -26.5t-139 26.5t-111 73.5t-73.5 111t-26.5 139zM457 737q-18 0 -34.5 7.5t-31 16t-27 16t-23.5 7.5q-14 0 -28 -12t-28 -27l-48 46q10 12 22.5 24.5t26 22t28 16t29.5 6.5q18 0 34.5 -7.5t31 -16t27 -16t23.5 -7.5 q14 0 28 12t28 27l48 -46q-10 -12 -22.5 -24.5t-26 -22t-28 -16t-29.5 -6.5z"/>
<glyph glyph-name="Odieresis" horiz-adv-x="800" unicode="Ö" d="M660 350q0 56 -19.5 104t-54 82.5t-82.5 54t-104 19.5t-104 -19.5t-82.5 -54t-54 -82.5t-19.5 -104t19.5 -104t54 -82.5t82.5 -54t104 -19.5t104 19.5t82.5 54t54 82.5t19.5 104zM50 350q0 75 26.5 139t73.5 111t111 73.5t139 26.5t139.5 -26.5t111 -73.5t73 -111 t26.5 -139t-26.5 -139t-73 -111t-111 -73.5t-139.5 -26.5t-139 26.5t-111 73.5t-73.5 111t-26.5 139zM431 801q0 29 19.5 48.5t48.5 19.5t48.5 -19.5t19.5 -48.5t-19.5 -48.5t-48.5 -19.5t-48.5 19.5t-19.5 48.5zM229 801q0 29 19.5 48.5t48.5 19.5t48.5 -19.5t19.5 -48.5 t-19.5 -48.5t-48.5 -19.5t-48.5 19.5t-19.5 48.5z"/>
<glyph glyph-name="multiply" d="M496 555l60 -61l-176 -177l176 -176l-60 -61l-177 177l-176 -176l-60 60l176 176l-176 177l60 60l176 -176z" unicode="×"/>
<glyph glyph-name="Oslash" horiz-adv-x="800" unicode="Ø" d="M400 0q-57 0 -108 15.5t-93 44.5l-64 -76l-54 45l64 76q-45 47 -70 109.5t-25 135.5q0 75 26.5 139t73.5 111t111 73.5t139 26.5q57 0 107.5 -15t92.5 -44l64 75l53 -46l-63 -74q45 -47 70.5 -109.5t25.5 -136.5q0 -75 -26.5 -139t-73 -111t-111 -73.5t-139.5 -26.5z M400 90q56 0 104 19.5t82.5 54t54 82.5t19.5 104q0 53 -17 97.5t-48 79.5l-337 -398q62 -39 142 -39zM140 350q0 -53 17 -97.5t47 -78.5l337 398q-30 18 -65.5 28t-75.5 10q-56 0 -104 -19.5t-82.5 -54t-54 -82.5t-19.5 -104z"/>
<glyph glyph-name="Ugrave" horiz-adv-x="780" unicode="Ù" d="M710 700v-380q0 -68 -24.5 -126.5t-67.5 -101.5t-101.5 -67.5t-126.5 -24.5t-126.5 24.5t-101.5 67.5t-67.5 101.5t-24.5 126.5v380h90v-380q0 -49 17.5 -91t48.5 -73t73 -48.5t91 -17.5t91 17.5t73 48.5t48.5 73t17.5 91v380h90zM298 907l211 -136l-39 -60l-213 133z "/>
<glyph glyph-name="Uacute" horiz-adv-x="780" unicode="Ú" d="M710 700v-380q0 -68 -24.5 -126.5t-67.5 -101.5t-101.5 -67.5t-126.5 -24.5t-126.5 24.5t-101.5 67.5t-67.5 101.5t-24.5 126.5v380h90v-380q0 -49 17.5 -91t48.5 -73t73 -48.5t91 -17.5t91 17.5t73 48.5t48.5 73t17.5 91v380h90zM491 907l41 -63l-213 -133l-39 60z"/>
<glyph glyph-name="Ucircumflex" horiz-adv-x="780" unicode="Û" d="M710 700v-380q0 -68 -24.5 -126.5t-67.5 -101.5t-101.5 -67.5t-126.5 -24.5t-126.5 24.5t-101.5 67.5t-67.5 101.5t-24.5 126.5v380h90v-380q0 -49 17.5 -91t48.5 -73t73 -48.5t91 -17.5t91 17.5t73 48.5t48.5 73t17.5 91v380h90zM390 918l176 -151l-47 -52l-129 112 l-129 -112l-47 52z"/>
<glyph glyph-name="Udieresis" horiz-adv-x="780" unicode="Ü" d="M710 700v-380q0 -68 -24.5 -126.5t-67.5 -101.5t-101.5 -67.5t-126.5 -24.5t-126.5 24.5t-101.5 67.5t-67.5 101.5t-24.5 126.5v380h90v-380q0 -49 17.5 -91t48.5 -73t73 -48.5t91 -17.5t91 17.5t73 48.5t48.5 73t17.5 91v380h90zM423 801q0 29 19.5 48.5t48.5 19.5 t48.5 -19.5t19.5 -48.5t-19.5 -48.5t-48.5 -19.5t-48.5 19.5t-19.5 48.5zM221 801q0 29 19.5 48.5t48.5 19.5t48.5 -19.5t19.5 -48.5t-19.5 -48.5t-48.5 -19.5t-48.5 19.5t-19.5 48.5z"/>
<glyph glyph-name="Yacute" horiz-adv-x="662" unicode="Ý" d="M286 0v295l-281 405h110l216 -312l216 312h110l-281 -405v-295h-90zM432 907l41 -63l-213 -133l-39 60z"/>
<glyph glyph-name="Thorn" horiz-adv-x="594" unicode="Þ" d="M170 124v-124h-90v700h90v-124h133q50 0 92.5 -17t73 -47t48 -71.5t17.5 -90.5t-17.5 -90.5t-48 -71.5t-73 -47t-92.5 -17h-133zM170 486v-272h133q28 0 53.5 10t44.5 28t30 43t11 55t-11 55t-30 43t-44.5 28t-53.5 10h-133z"/>
<glyph glyph-name="germandbls" horiz-adv-x="573" unicode="ß" d="M70 482q0 50 12.5 92.5t39 73t66.5 47.5t96 17q52 0 90.5 -14t64 -38t37.5 -56t12 -68q0 -24 -7 -47.5t-20.5 -43t-33 -34t-43.5 -20.5q33 -4 62 -18.5t50.5 -38.5t34 -57t12.5 -73q0 -51 -17 -90.5t-48 -66t-74.5 -40.5t-96.5 -14q-30 0 -63 3v79q8 -1 17 -1q8 -1 17 -1 h20q34 0 63 8t50.5 24t33.5 40.5t12 58.5q0 35 -13.5 61t-37 43.5t-55.5 26t-68 8.5h-33v80h33q58 0 88.5 30t30.5 83q0 43 -32.5 69.5t-89.5 26.5t-90.5 -38t-33.5 -112v-557h-86v557z"/>
<glyph glyph-name="agrave" horiz-adv-x="515" unicode="à" d="M63 386q14 56 62 91t139 35q104 0 152.5 -48.5t48.5 -138.5v-325h-86v71q-26 -38 -68 -59.5t-96 -21.5q-41 0 -72.5 12t-53 32.5t-33 49t-11.5 61.5q0 35 12 62t34 46.5t51 31t64 14.5l141 14q32 3 32 27v13q0 37 -27.5 59.5t-83.5 22.5q-52 0 -86.5 -21.5t-42.5 -68.5z M379 239l-163 -20q-42 -5 -61.5 -26t-19.5 -49q0 -32 23.5 -52.5t69.5 -20.5q36 0 64 11.5t47.5 30.5t29.5 42t10 47v37zM178 767l211 -136l-39 -60l-213 133z"/>
<glyph glyph-name="aacute" horiz-adv-x="515" unicode="á" d="M63 386q14 56 62 91t139 35q104 0 152.5 -48.5t48.5 -138.5v-325h-86v71q-26 -38 -68 -59.5t-96 -21.5q-41 0 -72.5 12t-53 32.5t-33 49t-11.5 61.5q0 35 12 62t34 46.5t51 31t64 14.5l141 14q32 3 32 27v13q0 37 -27.5 59.5t-83.5 22.5q-52 0 -86.5 -21.5t-42.5 -68.5z M379 239l-163 -20q-42 -5 -61.5 -26t-19.5 -49q0 -32 23.5 -52.5t69.5 -20.5q36 0 64 11.5t47.5 30.5t29.5 42t10 47v37zM368 767l41 -63l-213 -133l-39 60z"/>
<glyph glyph-name="acircumflex" horiz-adv-x="515" unicode="â" d="M63 386q14 56 62 91t139 35q104 0 152.5 -48.5t48.5 -138.5v-325h-86v71q-26 -38 -68 -59.5t-96 -21.5q-41 0 -72.5 12t-53 32.5t-33 49t-11.5 61.5q0 35 12 62t34 46.5t51 31t64 14.5l141 14q32 3 32 27v13q0 37 -27.5 59.5t-83.5 22.5q-52 0 -86.5 -21.5t-42.5 -68.5z M379 239l-163 -20q-42 -5 -61.5 -26t-19.5 -49q0 -32 23.5 -52.5t69.5 -20.5q36 0 64 11.5t47.5 30.5t29.5 42t10 47v37zM273 768l176 -151l-47 -52l-129 112l-129 -112l-47 52z"/>
<glyph glyph-name="atilde" horiz-adv-x="515" unicode="ã" d="M63 386q14 56 62 91t139 35q104 0 152.5 -48.5t48.5 -138.5v-325h-86v71q-26 -38 -68 -59.5t-96 -21.5q-41 0 -72.5 12t-53 32.5t-33 49t-11.5 61.5q0 35 12 62t34 46.5t51 31t64 14.5l141 14q32 3 32 27v13q0 37 -27.5 59.5t-83.5 22.5q-52 0 -86.5 -21.5t-42.5 -68.5z M379 239l-163 -20q-42 -5 -61.5 -26t-19.5 -49q0 -32 23.5 -52.5t69.5 -20.5q36 0 64 11.5t47.5 30.5t29.5 42t10 47v37zM330 577q-18 0 -34.5 7.5t-31 16t-27 16t-23.5 7.5q-14 0 -28 -12t-28 -27l-48 46q10 12 22.5 24.5t26 22t28 16t29.5 6.5q18 0 34.5 -7.5t31 -16 t27 -16t23.5 -7.5q14 0 28 12t28 27l48 -46q-10 -12 -22.5 -24.5t-26 -22t-28 -16t-29.5 -6.5z"/>
<glyph glyph-name="adieresis" horiz-adv-x="515" unicode="ä" d="M63 386q14 56 62 91t139 35q104 0 152.5 -48.5t48.5 -138.5v-325h-86v71q-26 -38 -68 -59.5t-96 -21.5q-41 0 -72.5 12t-53 32.5t-33 49t-11.5 61.5q0 35 12 62t34 46.5t51 31t64 14.5l141 14q32 3 32 27v13q0 37 -27.5 59.5t-83.5 22.5q-52 0 -86.5 -21.5t-42.5 -68.5z M379 239l-163 -20q-42 -5 -61.5 -26t-19.5 -49q0 -32 23.5 -52.5t69.5 -20.5q36 0 64 11.5t47.5 30.5t29.5 42t10 47v37zM306 644q0 29 19.5 48.5t48.5 19.5t48.5 -19.5t19.5 -48.5t-19.5 -48.5t-48.5 -19.5t-48.5 19.5t-19.5 48.5zM104 644q0 29 19.5 48.5t48.5 19.5 t48.5 -19.5t19.5 -48.5t-19.5 -48.5t-48.5 -19.5t-48.5 19.5t-19.5 48.5z"/>
<glyph glyph-name="aring" horiz-adv-x="515" unicode="å" d="M63 386q14 56 62 91t139 35q104 0 152.5 -48.5t48.5 -138.5v-325h-86v71q-26 -38 -68 -59.5t-96 -21.5q-41 0 -72.5 12t-53 32.5t-33 49t-11.5 61.5q0 35 12 62t34 46.5t51 31t64 14.5l141 14q32 3 32 27v13q0 37 -27.5 59.5t-83.5 22.5q-52 0 -86.5 -21.5t-42.5 -68.5z M379 239l-163 -20q-42 -5 -61.5 -26t-19.5 -49q0 -32 23.5 -52.5t69.5 -20.5q36 0 64 11.5t47.5 30.5t29.5 42t10 47v37zM326 683q0 24 -14.5 39.5t-38.5 15.5t-38.5 -15.5t-14.5 -39.5t14.5 -39.5t38.5 -15.5t38.5 15.5t14.5 39.5zM163 683q0 48 31 79.5t79 31.5t79 -31.5 t31 -79.5t-31 -79t-79 -31t-79 31t-31 79z"/>
<glyph glyph-name="ae" horiz-adv-x="891" unicode="æ" d="M379 239l-163 -20q-42 -5 -61.5 -26t-19.5 -49q0 -32 23.5 -52.5t70.5 -20.5q35 0 62.5 11.5t47 30.5t30 42t10.5 47v37zM772 293q-6 63 -41.5 101t-104.5 38t-108 -38t-48 -101h302zM632 -12q-73 0 -126 29t-83 83q-34 -51 -88.5 -80.5t-119.5 -29.5q-41 0 -72.5 12 t-53 32.5t-33 49t-11.5 61.5q0 35 12 62t34 46.5t51 31t64 14.5l141 14q32 3 32 27v13q0 37 -27.5 59.5t-83.5 22.5q-52 0 -86.5 -21.5t-42.5 -68.5l-76 41q14 56 62 91t136 35q68 0 111.5 -22.5t66.5 -67.5q30 42 77 66t111 24q58 0 102.5 -20t75 -55.5t46 -83.5t15.5 -103 v-26h-400v-1q2 -38 16 -67t36.5 -48.5t51.5 -29.5t61 -10q55 0 94 24t64 53l45 -67q-15 -17 -34.5 -33t-44 -29t-55 -20.5t-68.5 -7.5z"/>
<glyph glyph-name="ccedilla" horiz-adv-x="498" unicode="ç" d="M271 -167q-11 0 -24.5 2.5t-26.5 7.5v58q11 -3 20.5 -5t17.5 -2q14 0 23 7.5t9 26.5q0 12 -5 27t-17 34q-55 3 -99 24t-75 55.5t-47.5 80.5t-16.5 100q0 56 18.5 104t53 83.5t83 55.5t108.5 20q58 0 102.5 -19t79.5 -54l-56 -66q-26 24 -57.5 40t-73.5 16 q-36 0 -67 -12.5t-53.5 -35.5t-35.5 -56t-13 -75q0 -41 13 -74t35.5 -56.5t53 -36t66.5 -12.5q45 0 79 17.5t60 41.5l52 -67q-26 -26 -61.5 -45t-82.5 -27q14 -20 19 -37.5t5 -34.5q0 -43 -26 -64.5t-61 -21.5z"/>
<glyph glyph-name="egrave" horiz-adv-x="542" unicode="è" d="M423 293q-6 63 -41.5 101t-103.5 38q-71 0 -109.5 -38t-47.5 -101h302zM30 246q0 55 17.5 103.5t49.5 84.5t77.5 57t102.5 21q59 0 104 -20t75 -55.5t45.5 -83.5t15.5 -103v-26h-400v-1q2 -38 16 -67t36 -48.5t51 -29.5t61 -10q55 0 94 23t65 54l45 -67q-15 -17 -35 -33 t-45 -29t-55 -20.5t-65 -7.5q-57 0 -103.5 18t-80.5 51.5t-52.5 81.5t-18.5 107zM191 767l211 -136l-39 -60l-213 133z"/>
<glyph glyph-name="eacute" horiz-adv-x="542" unicode="é" d="M423 293q-6 63 -41.5 101t-103.5 38q-71 0 -109.5 -38t-47.5 -101h302zM30 246q0 55 17.5 103.5t49.5 84.5t77.5 57t102.5 21q59 0 104 -20t75 -55.5t45.5 -83.5t15.5 -103v-26h-400v-1q2 -38 16 -67t36 -48.5t51 -29.5t61 -10q55 0 94 23t65 54l45 -67q-15 -17 -35 -33 t-45 -29t-55 -20.5t-65 -7.5q-57 0 -103.5 18t-80.5 51.5t-52.5 81.5t-18.5 107zM381 767l41 -63l-213 -133l-39 60z"/>
<glyph glyph-name="ecircumflex" horiz-adv-x="542" unicode="ê" d="M423 293q-6 63 -41.5 101t-103.5 38q-71 0 -109.5 -38t-47.5 -101h302zM30 246q0 55 17.5 103.5t49.5 84.5t77.5 57t102.5 21q59 0 104 -20t75 -55.5t45.5 -83.5t15.5 -103v-26h-400v-1q2 -38 16 -67t36 -48.5t51 -29.5t61 -10q55 0 94 23t65 54l45 -67q-15 -17 -35 -33 t-45 -29t-55 -20.5t-65 -7.5q-57 0 -103.5 18t-80.5 51.5t-52.5 81.5t-18.5 107zM286 768l176 -151l-47 -52l-129 112l-129 -112l-47 52z"/>
<glyph glyph-name="edieresis" horiz-adv-x="542" unicode="ë" d="M423 293q-6 63 -41.5 101t-103.5 38q-71 0 -109.5 -38t-47.5 -101h302zM30 246q0 55 17.5 103.5t49.5 84.5t77.5 57t102.5 21q59 0 104 -20t75 -55.5t45.5 -83.5t15.5 -103v-26h-400v-1q2 -38 16 -67t36 -48.5t51 -29.5t61 -10q55 0 94 23t65 54l45 -67q-15 -17 -35 -33 t-45 -29t-55 -20.5t-65 -7.5q-57 0 -103.5 18t-80.5 51.5t-52.5 81.5t-18.5 107zM319 644q0 29 19.5 48.5t48.5 19.5t48.5 -19.5t19.5 -48.5t-19.5 -48.5t-48.5 -19.5t-48.5 19.5t-19.5 48.5zM117 644q0 29 19.5 48.5t48.5 19.5t48.5 -19.5t19.5 -48.5t-19.5 -48.5 t-48.5 -19.5t-48.5 19.5t-19.5 48.5z"/>
<glyph glyph-name="igrave" horiz-adv-x="236" unicode="ì" d="M161 500v-500h-86v500h86zM23 767l211 -136l-39 -60l-213 133z"/>
<glyph glyph-name="iacute" horiz-adv-x="236" unicode="í" d="M161 500v-500h-86v500h86zM213 767l41 -63l-213 -133l-39 60z"/>
<glyph glyph-name="icircumflex" horiz-adv-x="236" unicode="î" d="M161 500v-500h-86v500h86zM118 768l176 -151l-47 -52l-129 112l-129 -112l-47 52z"/>
<glyph glyph-name="idieresis" horiz-adv-x="236" unicode="ï" d="M161 500v-500h-86v500h86zM151 644q0 29 19.5 48.5t48.5 19.5t48.5 -19.5t19.5 -48.5t-19.5 -48.5t-48.5 -19.5t-48.5 19.5t-19.5 48.5zM-51 644q0 29 19.5 48.5t48.5 19.5t48.5 -19.5t19.5 -48.5t-19.5 -48.5t-48.5 -19.5t-48.5 19.5t-19.5 48.5z"/>
<glyph glyph-name="eth" horiz-adv-x="594" unicode="ð" d="M460 249q0 38 -11.5 71t-34 57t-54.5 38t-72 14q-39 0 -70.5 -13t-53.5 -36.5t-33.5 -56t-11.5 -71.5q0 -41 12.5 -74t35 -57t54 -37t68.5 -13q36 0 67 12.5t54.5 35.5t36.5 56t13 74zM285 -12q-56 0 -103 19.5t-81 54t-52.5 82.5t-18.5 105q0 59 19.5 107.5t53 83 t79.5 53.5t99 19q25 0 51.5 -5t52 -16.5t49 -31t41.5 -49.5v5q-11 70 -48 126.5t-93 99.5l-114 -77l-40 55l92 62q-25 14 -52 25.5t-56 21.5l30 68q87 -27 149 -66l80 54l40 -56l-60 -41q62 -50 99 -120q29 -55 43 -119.5t14 -139.5q0 -78 -20 -138t-58 -102 q-36 -39 -85.5 -59.5t-110.5 -20.5z"/>
<glyph glyph-name="ntilde" horiz-adv-x="577" unicode="ñ" d="M153 433q30 42 73.5 60.5t92.5 18.5q48 0 83.5 -16t58.5 -44.5t34.5 -69t11.5 -88.5v-294h-88v298q0 66 -32.5 100t-85.5 34q-43 0 -71 -15.5t-44.5 -42t-23 -63t-6.5 -78.5v-233h-86v500h83v-67zM346 577q-18 0 -34.5 7.5t-31 16t-27 16t-23.5 7.5q-14 0 -28 -12 t-28 -27l-48 46q10 12 22.5 24.5t26 22t28 16t29.5 6.5q18 0 34.5 -7.5t31 -16t27 -16t23.5 -7.5q14 0 28 12t28 27l48 -46q-10 -12 -22.5 -24.5t-26 -22t-28 -16t-29.5 -6.5z"/>
<glyph glyph-name="ograve" horiz-adv-x="584" unicode="ò" d="M465 250q0 39 -12.5 72t-35 56.5t-54.5 37t-71 13.5t-71 -13.5t-54.5 -37t-35 -56.5t-12.5 -72t12.5 -72t35 -56.5t54.5 -37t71 -13.5t71 13.5t54.5 37t35 56.5t12.5 72zM30 250q0 56 20 104t55 83t83 55t104 20t104 -20t83 -55t55 -83t20 -104t-20 -104t-55 -83t-83 -55 t-104 -20t-104 20t-83 55t-55 83t-20 104zM197 767l211 -136l-39 -60l-213 133z"/>
<glyph glyph-name="oacute" horiz-adv-x="584" unicode="ó" d="M465 250q0 39 -12.5 72t-35 56.5t-54.5 37t-71 13.5t-71 -13.5t-54.5 -37t-35 -56.5t-12.5 -72t12.5 -72t35 -56.5t54.5 -37t71 -13.5t71 13.5t54.5 37t35 56.5t12.5 72zM30 250q0 56 20 104t55 83t83 55t104 20t104 -20t83 -55t55 -83t20 -104t-20 -104t-55 -83t-83 -55 t-104 -20t-104 20t-83 55t-55 83t-20 104zM387 767l41 -63l-213 -133l-39 60z"/>
<glyph glyph-name="ocircumflex" horiz-adv-x="584" unicode="ô" d="M465 250q0 39 -12.5 72t-35 56.5t-54.5 37t-71 13.5t-71 -13.5t-54.5 -37t-35 -56.5t-12.5 -72t12.5 -72t35 -56.5t54.5 -37t71 -13.5t71 13.5t54.5 37t35 56.5t12.5 72zM30 250q0 56 20 104t55 83t83 55t104 20t104 -20t83 -55t55 -83t20 -104t-20 -104t-55 -83t-83 -55 t-104 -20t-104 20t-83 55t-55 83t-20 104zM292 768l176 -151l-47 -52l-129 112l-129 -112l-47 52z"/>
<glyph glyph-name="otilde" horiz-adv-x="584" unicode="õ" d="M465 250q0 39 -12.5 72t-35 56.5t-54.5 37t-71 13.5t-71 -13.5t-54.5 -37t-35 -56.5t-12.5 -72t12.5 -72t35 -56.5t54.5 -37t71 -13.5t71 13.5t54.5 37t35 56.5t12.5 72zM30 250q0 56 20 104t55 83t83 55t104 20t104 -20t83 -55t55 -83t20 -104t-20 -104t-55 -83t-83 -55 t-104 -20t-104 20t-83 55t-55 83t-20 104zM349 577q-18 0 -34.5 7.5t-31 16t-27 16t-23.5 7.5q-14 0 -28 -12t-28 -27l-48 46q10 12 22.5 24.5t26 22t28 16t29.5 6.5q18 0 34.5 -7.5t31 -16t27 -16t23.5 -7.5q14 0 28 12t28 27l48 -46q-10 -12 -22.5 -24.5t-26 -22t-28 -16 t-29.5 -6.5z"/>
<glyph glyph-name="odieresis" horiz-adv-x="584" unicode="ö" d="M465 250q0 39 -12.5 72t-35 56.5t-54.5 37t-71 13.5t-71 -13.5t-54.5 -37t-35 -56.5t-12.5 -72t12.5 -72t35 -56.5t54.5 -37t71 -13.5t71 13.5t54.5 37t35 56.5t12.5 72zM30 250q0 56 20 104t55 83t83 55t104 20t104 -20t83 -55t55 -83t20 -104t-20 -104t-55 -83t-83 -55 t-104 -20t-104 20t-83 55t-55 83t-20 104zM325 644q0 29 19.5 48.5t48.5 19.5t48.5 -19.5t19.5 -48.5t-19.5 -48.5t-48.5 -19.5t-48.5 19.5t-19.5 48.5zM123 644q0 29 19.5 48.5t48.5 19.5t48.5 -19.5t19.5 -48.5t-19.5 -48.5t-48.5 -19.5t-48.5 19.5t-19.5 48.5z"/>
<glyph glyph-name="divide" d="M310 209q33 0 56 -23t23 -56t-23 -55.5t-56 -22.5t-55.5 22.5t-22.5 55.5t22.5 56t55.5 23zM594 359v-90h-548v90h548zM310 576q33 0 56 -23t23 -56t-23 -55.5t-56 -22.5t-55.5 22.5t-22.5 55.5t22.5 56t55.5 23z" unicode="÷"/>
<glyph glyph-name="oslash" horiz-adv-x="584" unicode="ø" d="M292 -12q-80 0 -143 40l-37 -44l-54 45l37 44q-31 35 -48 79.5t-17 97.5q0 56 20 104t55 83t83 55t104 20q80 0 143 -40l37 44l53 -46l-36 -43q31 -35 48 -79.5t17 -97.5q0 -56 -20 -104t-55 -83t-83 -55t-104 -20zM292 71q39 0 71 13.5t54.5 37t35 56.5t12.5 72 q0 64 -33 111l-228 -269q19 -10 41 -15.5t47 -5.5zM119 250q0 -64 33 -111l228 269q-19 10 -41 15.5t-47 5.5q-39 0 -71 -13.5t-54.5 -37t-35 -56.5t-12.5 -72z"/>
<glyph glyph-name="ugrave" horiz-adv-x="570" unicode="ù" d="M500 500v-500h-83v72q-29 -42 -66 -63t-94 -21q-53 0 -88.5 16.5t-57.5 45t-31.5 68t-9.5 86.5v296h88v-296q0 -30 5 -55t18 -43t35 -28t56 -10q43 0 70.5 16.5t43.5 44t22 63.5t6 75v233h86zM190 767l211 -136l-39 -60l-213 133z"/>
<glyph glyph-name="uacute" horiz-adv-x="570" unicode="ú" d="M500 500v-500h-83v72q-29 -42 -66 -63t-94 -21q-53 0 -88.5 16.5t-57.5 45t-31.5 68t-9.5 86.5v296h88v-296q0 -30 5 -55t18 -43t35 -28t56 -10q43 0 70.5 16.5t43.5 44t22 63.5t6 75v233h86zM380 767l41 -63l-213 -133l-39 60z"/>
<glyph glyph-name="ucircumflex" horiz-adv-x="570" unicode="û" d="M500 500v-500h-83v72q-29 -42 -66 -63t-94 -21q-53 0 -88.5 16.5t-57.5 45t-31.5 68t-9.5 86.5v296h88v-296q0 -30 5 -55t18 -43t35 -28t56 -10q43 0 70.5 16.5t43.5 44t22 63.5t6 75v233h86zM285 768l176 -151l-47 -52l-129 112l-129 -112l-47 52z"/>
<glyph glyph-name="udieresis" horiz-adv-x="570" unicode="ü" d="M500 500v-500h-83v72q-29 -42 -66 -63t-94 -21q-53 0 -88.5 16.5t-57.5 45t-31.5 68t-9.5 86.5v296h88v-296q0 -30 5 -55t18 -43t35 -28t56 -10q43 0 70.5 16.5t43.5 44t22 63.5t6 75v233h86zM318 644q0 29 19.5 48.5t48.5 19.5t48.5 -19.5t19.5 -48.5t-19.5 -48.5 t-48.5 -19.5t-48.5 19.5t-19.5 48.5zM116 644q0 29 19.5 48.5t48.5 19.5t48.5 -19.5t19.5 -48.5t-19.5 -48.5t-48.5 -19.5t-48.5 19.5t-19.5 48.5z"/>
<glyph glyph-name="yacute" horiz-adv-x="525" unicode="ý" d="M104 -200l124 266l-218 434h104l160 -334l155 334h91l-323 -700h-93zM358 767l41 -63l-213 -133l-39 60z"/>
<glyph glyph-name="thorn" horiz-adv-x="603" unicode="þ" d="M70 -200v900h86v-272q28 37 71.5 60.5t104.5 23.5q51 0 95.5 -18.5t76.5 -52.5t50.5 -82.5t18.5 -108.5t-18.5 -108.5t-50.5 -82.5t-76.5 -52.5t-95.5 -18.5q-60 0 -102.5 23.5t-73.5 61.5v-273h-86zM317 68q39 0 70 13.5t52.5 37.5t33 57.5t11.5 73.5t-11.5 73.5 t-33 57.5t-52.5 37.5t-70 13.5q-77 0 -122 -49.5t-45 -132.5t45 -132.5t122 -49.5z"/>
<glyph glyph-name="OE" horiz-adv-x="885" unicode="Œ" d="M400 610q-56 0 -104 -19.5t-82.5 -54t-54 -82.5t-19.5 -104t19.5 -104t54 -82.5t82.5 -54t104 -19.5v520zM400 700h430v-90h-340v-215h340v-90h-340v-215h340v-90h-430q-75 0 -139 26.5t-111 73.5t-73.5 111t-26.5 139t26.5 139t73.5 111t111 73.5t139 26.5z"/>
<glyph glyph-name="oe" horiz-adv-x="977" unicode="œ" d="M465 250q0 39 -12.5 72t-35 56.5t-54.5 37t-71 13.5t-71 -13.5t-54.5 -37t-35 -56.5t-12.5 -72t12.5 -72t35 -56.5t54.5 -37t71 -13.5t71 13.5t54.5 37t35 56.5t12.5 72zM858 293q-6 63 -41.5 101t-103.5 38q-71 0 -109.5 -38t-47.5 -101h302zM720 -12q-76 0 -130 30 t-83 86q-32 -54 -86.5 -85t-128.5 -31q-56 0 -104 20t-83 55t-55 83t-20 104t20 104t55 83t83 55t104 20q75 0 130 -32t86 -87q29 54 79.5 86.5t124.5 32.5q59 0 104 -20t75 -55.5t45.5 -83.5t15.5 -103v-26h-400v-1q2 -38 16 -67t36 -48.5t51 -29.5t61 -10q55 0 94 23 t65 54l45 -67q-15 -17 -35 -33t-45 -29t-55 -20.5t-65 -7.5z"/>
<glyph glyph-name="Scaron" horiz-adv-x="519" unicode="Š" d="M48 511q0 45 17 80.5t46 59.5t67.5 36.5t80.5 12.5q83 0 140 -45t80 -123l-85 -34q-16 60 -51 86t-86 26q-59 0 -89 -29t-30 -71q0 -26 10.5 -43.5t29 -30.5t44 -22.5t54.5 -19.5q41 -14 76.5 -29.5t61.5 -38t41 -54.5t15 -78q0 -50 -17 -86.5t-45.5 -60.5t-66 -35.5 t-78.5 -11.5q-32 0 -66 8t-64.5 27t-55 51.5t-37.5 80.5l79 42q14 -58 49 -88.5t94 -30.5q54 0 86 26t32 75q0 28 -10.5 46.5t-28 31.5t-39.5 21t-46 16q-34 11 -71 25.5t-67.5 37.5t-50 57.5t-19.5 84.5zM389 928l47 -52l-176 -151l-176 151l47 52l129 -112z"/>
<glyph glyph-name="scaron" horiz-adv-x="463" unicode="š" d="M53 364q0 66 49.5 107t137.5 41q75 0 122.5 -29t75.5 -79l-71 -45q-16 31 -46.5 52t-82.5 21q-42 0 -70.5 -16.5t-28.5 -46.5q0 -18 9 -29.5t25 -20t37.5 -14t47.5 -11.5q31 -7 63 -15t58 -24t42.5 -42.5t16.5 -69.5q0 -40 -14.5 -69.5t-40.5 -48.5t-61 -28t-76 -9 q-35 0 -68 6.5t-62 21t-52.5 36.5t-38.5 53l71 45q23 -47 64.5 -64.5t87.5 -17.5q49 0 76.5 17t27.5 52q0 19 -8 31t-22.5 20t-35 13.5t-45.5 10.5q-31 6 -64 15.5t-60.5 26t-45.5 43t-18 67.5zM370 758l47 -52l-176 -151l-176 151l47 52l129 -112z"/>
<glyph glyph-name="Ydieresis" horiz-adv-x="662" unicode="Ÿ" d="M286 0v295l-281 405h110l216 -312l216 312h110l-281 -405v-295h-90zM364 801q0 29 19.5 48.5t48.5 19.5t48.5 -19.5t19.5 -48.5t-19.5 -48.5t-48.5 -19.5t-48.5 19.5t-19.5 48.5zM162 801q0 29 19.5 48.5t48.5 19.5t48.5 -19.5t19.5 -48.5t-19.5 -48.5t-48.5 -19.5 t-48.5 19.5t-19.5 48.5z"/>
<glyph glyph-name="circumflex" horiz-adv-x="452" unicode="ˆ" d="M226 768l176 -151l-47 -52l-129 112l-129 -112l-47 52z"/>
<glyph glyph-name="tilde" horiz-adv-x="426" unicode="˜" d="M270 577q-18 0 -34.5 7.5t-31 16t-27 16t-23.5 7.5q-14 0 -28 -12t-28 -27l-48 46q10 12 22.5 24.5t26 22t28 16t29.5 6.5q18 0 34.5 -7.5t31 -16t27 -16t23.5 -7.5q14 0 28 12t28 27l48 -46q-10 -12 -22.5 -24.5t-26 -22t-28 -16t-29.5 -6.5z"/>
<glyph glyph-name="Delta" horiz-adv-x="708" unicode="Δ" d="M355 582l-208 -517h416zM379 745l309 -745h-668l309 745h50z"/>
<glyph glyph-name="mu" d="M292 -12q-62 0 -102 23v-211h-85v700h88v-296q0 -30 5 -55t18 -43t35 -28t56 -10q43 0 70.5 16.5t43.5 44t22 63.5t6 75v233h86v-500h-83v72q-29 -42 -66 -63t-94 -21z" unicode="μ"/>
<glyph glyph-name="pi" d="M596 500v-90h-89v-410h-88v410h-149l-87 -410h-92l87 410q-52 0 -84 -4.5t-51 -9.5v74q19 10 54.5 20t85.5 10h413z" unicode="π"/>
<glyph glyph-name="endash" horiz-adv-x="928" unicode="–" d="M858 354v-90h-788v90h788z"/>
<glyph glyph-name="emdash" horiz-adv-x="1378" unicode="—" d="M1308 354v-90h-1238v90h1238z"/>
<glyph glyph-name="quoteleft" horiz-adv-x="243" unicode="‘" d="M114 416q-32 0 -53 22.5t-21 51.5q0 20 9 35l104 187l50 -28l-71 -122q25 -7 40.5 -27t15.5 -45q0 -29 -21 -51.5t-53 -22.5z"/>
<glyph glyph-name="quotesinglbase" horiz-adv-x="243" unicode="‚" d="M40 -120l71 122q-25 7 -40.5 27t-15.5 45q0 29 21 51.5t53 22.5t53 -22.5t21 -51.5q0 -20 -9 -35l-104 -187z"/>
<glyph glyph-name="quotedblleft" horiz-adv-x="430" unicode="“" d="M114 416q-32 0 -53 22.5t-21 51.5q0 20 9 35l104 187l50 -28l-71 -122q25 -7 40.5 -27t15.5 -45q0 -29 -21 -51.5t-53 -22.5zM301 416q-32 0 -53 22.5t-21 51.5q0 20 9 35l104 187l50 -28l-71 -122q25 -7 40.5 -27t15.5 -45q0 -29 -21 -51.5t-53 -22.5z"/>
<glyph glyph-name="quotedblright" horiz-adv-x="430" unicode="”" d="M227 444l71 122q-25 7 -40.5 27t-15.5 45q0 29 21 51.5t53 22.5t53 -22.5t21 -51.5q0 -20 -9 -35l-104 -187zM40 444l71 122q-25 7 -40.5 27t-15.5 45q0 29 21 51.5t53 22.5t53 -22.5t21 -51.5q0 -20 -9 -35l-104 -187z"/>
<glyph glyph-name="dagger" horiz-adv-x="487" unicode="†" d="M282 420v-514h-77v514h-190v80h190v241h77v-241h190v-80h-190z"/>
<glyph glyph-name="daggerdbl" horiz-adv-x="487" unicode="‡" d="M282 147v-241h-77v241h-190v80h190v223h-190v80h190v211h77v-211h190v-80h-190v-223h190v-80h-190z"/>
<glyph glyph-name="ellipsis" horiz-adv-x="969" unicode="…" d="M790 157q33 0 56 -23t23 -56t-23 -55.5t-56 -22.5t-55.5 22.5t-22.5 55.5t22.5 56t55.5 23zM178 157q33 0 56 -23t23 -56t-23 -55.5t-56 -22.5t-55.5 22.5t-22.5 55.5t22.5 56t55.5 23zM484 157q33 0 56 -23t23 -56t-23 -55.5t-56 -22.5t-55.5 22.5t-22.5 55.5t22.5 56 t55.5 23z"/>
<glyph glyph-name="perthousand" horiz-adv-x="1093" unicode="‰" d="M615 154q0 39 -24.5 63.5t-63.5 24.5t-63.5 -24.5t-24.5 -63.5t24.5 -63.5t63.5 -24.5t63.5 24.5t24.5 63.5zM992 154q0 39 -24.5 63.5t-63.5 24.5t-63.5 -24.5t-24.5 -63.5t24.5 -63.5t63.5 -24.5t63.5 24.5t24.5 63.5zM750 154q0 33 11.5 61t32.5 49t49 32.5t61 11.5 t61 -11.5t49 -32.5t32.5 -49t11.5 -61t-11.5 -61t-32.5 -49t-49 -32.5t-61 -11.5t-61 11.5t-49 32.5t-32.5 49t-11.5 61zM373 154q0 33 11.5 61t32.5 49t49 32.5t61 11.5t61 -11.5t49 -32.5t32.5 -49t11.5 -61t-11.5 -61t-32.5 -49t-49 -32.5t-61 -11.5t-61 11.5t-49 32.5 t-32.5 49t-11.5 61zM277 546q0 39 -24.5 63.5t-63.5 24.5t-63.5 -24.5t-24.5 -63.5t24.5 -63.5t63.5 -24.5t63.5 24.5t24.5 63.5zM35 546q0 33 11.5 61t32.5 49t49 32.5t61 11.5t61 -11.5t49 -32.5t32.5 -49t11.5 -61t-11.5 -61t-32.5 -49t-49 -32.5t-61 -11.5t-61 11.5 t-49 32.5t-32.5 49t-11.5 61zM596 700l50 -40l-523 -660l-50 41z"/>
<glyph glyph-name="guilsinglleft" horiz-adv-x="372" unicode="‹" d="M225 470l57 -52l-143 -158l143 -159l-57 -51l-185 210z"/>
<glyph glyph-name="guilsinglright" horiz-adv-x="372" unicode="›" d="M147 50l-57 51l143 159l-143 158l57 52l185 -210z"/>
<glyph glyph-name="fraction" horiz-adv-x="133" unicode="⁄" d="M303 700l50 -40l-523 -660l-50 41z"/>
<glyph glyph-name="Euro" horiz-adv-x="674" unicode="€" d="M571 29q-41 -16 -69.5 -22.5t-60.5 -6.5q-54 0 -103 16t-89 47t-69.5 76t-44.5 103h-105l32 70h61q-1 9 -1 18.5v19.5v16t1 16h-83l32 70h61q14 60 44 106t71 77.5t91 48t104 16.5q62 0 116 -19.5t105 -60.5l-38 -85q-37 36 -84.5 55.5t-101.5 19.5q-78 0 -133 -43.5 t-79 -114.5h361l-32 -70h-344q0 -8 -0.5 -16t-0.5 -16q0 -10 0.5 -19.5t1.5 -18.5h309l-32 -70h-261q24 -69 78 -110.5t130 -41.5q28 0 55.5 7t62.5 24z"/>
<glyph glyph-name="trademark" horiz-adv-x="971" unicode="™" d="M921 700v-389h-70v243l-138 -243h-54l-138 243v-243h-70v389h67l169 -295l166 295h68zM408 700v-70h-144v-319h-70v319h-144v70h358z"/>
<glyph glyph-name="arrowleft" horiz-adv-x="938" unicode="←" d="M427 636l54 -59l-207 -182h564v-84h-564l207 -182l-54 -59l-327 283z"/>
<glyph glyph-name="arrowup" horiz-adv-x="766" unicode="↑" d="M383 718l283 -327l-59 -54l-182 207v-544h-84v544l-182 -207l-59 54z"/>
<glyph glyph-name="arrowright" horiz-adv-x="938" unicode="→" d="M511 636l327 -283l-327 -283l-54 59l207 182h-564v84h564l-207 182z"/>
<glyph glyph-name="arrowdown" horiz-adv-x="766" unicode="↓" d="M425 697v-544l182 207l59 -54l-283 -327l-283 327l59 54l182 -207v544h84z"/>
<glyph glyph-name="partialdiff" d="M300 73q35 0 62.5 16t47.5 44.5t33 67.5t19 86q-11 15 -26.5 29.5t-34.5 26t-41 19t-46 7.5q-30 0 -55.5 -12.5t-44.5 -33.5t-30 -49.5t-11 -61.5q0 -30 9.5 -55.5t26 -44t40 -29t51.5 -10.5zM294 -12q-53 0 -93 18.5t-67 50t-40.5 72t-13.5 85.5q0 54 18.5 98t50 75.5 t73 49t86.5 17.5q53 0 93 -20t66 -42q-3 67 -18 115t-40 79t-57 45t-69 14q-46 0 -83.5 -17t-62.5 -34l-41 76q31 23 80 41.5t108 18.5q57 0 107 -22t87.5 -66.5t59.5 -112.5t22 -161q0 -79 -17 -148.5t-50.5 -121t-83 -81t-115.5 -29.5z" unicode="∂"/>
<glyph glyph-name="product" horiz-adv-x="683" unicode="∏" d="M663 712v-85h-111v-716h-90v716h-241v-716h-90v716h-111v85h643z"/>
<glyph glyph-name="summation" d="M549 700v-88h-324l209 -302l-223 -322h352v-88h-487v60l246 350l-234 333v57h461z" unicode="∑"/>
<glyph glyph-name="minus" d="M549 363v-90h-458v90h458z" unicode="−"/>
<glyph glyph-name="radical" d="M526 920l73 -9l-184 -967h-72l-198 479l-76 -33l-28 64l152 64l176 -439z" unicode="√"/>
<glyph glyph-name="infinity" horiz-adv-x="734" unicode="∞" d="M321 299q-32 39 -63.5 67.5t-69.5 28.5q-18 0 -35 -7t-29.5 -20t-20 -30.5t-7.5 -38.5q0 -42 27.5 -68.5t64.5 -26.5q19 0 36.5 7.5t33.5 20.5t31.5 30.5t31.5 36.5zM638 299q0 21 -7.5 38.5t-20 30.5t-29.5 20t-35 7q-38 0 -69.5 -28.5t-63.5 -67.5q31 -38 63 -66.5 t70 -28.5q37 0 64.5 26.5t27.5 68.5zM367 356q18 21 37.5 40.5t41.5 34.5t46.5 23.5t53.5 8.5q34 0 64.5 -12.5t53.5 -34t36.5 -51.5t13.5 -66q0 -35 -13.5 -65t-36.5 -52t-53.5 -34t-64.5 -12q-29 0 -53.5 8.5t-46.5 23.5t-41.5 34t-37.5 40q-18 -21 -37.5 -40t-41.5 -34 t-47 -23.5t-53 -8.5q-34 0 -64.5 12t-53.5 34t-36.5 52t-13.5 65q0 36 13.5 66t36.5 51.5t53.5 34t64.5 12.5q28 0 53 -8.5t47 -23.5t41.5 -34.5t37.5 -40.5z"/>
<glyph glyph-name="approxequal" d="M51 194q32 32 72.5 55.5t85.5 23.5q34 0 63.5 -12t56.5 -27t52 -27t50 -12q28 0 56 17t54 41l48 -69q-17 -16 -35 -31t-38 -27t-41.5 -19t-43.5 -7q-35 0 -65.5 12.5t-57.5 27t-51 27t-48 12.5q-29 0 -57 -17.5t-54 -41.5zM51 407q32 32 72.5 55.5t85.5 23.5 q34 0 63.5 -12t56.5 -27t52 -27t50 -12q28 0 56 17t54 41l48 -69q-17 -16 -35 -31t-38 -27t-41.5 -19t-43.5 -7q-35 0 -65.5 12.5t-57.5 27t-51 27t-48 12.5q-29 0 -57 -17.5t-54 -41.5z" unicode="≈"/>
<glyph glyph-name="notequal" d="M262 138l-59 -110l-67 33l41 77h-100v90h148l66 125h-214v90h262l59 110l67 -35l-40 -75h138v-90h-186l-67 -125h253v-90h-301z" unicode="≠"/>
<glyph glyph-name="lessequal" d="M552 142v-88h-457v88h457zM521 539l24 -83l-298 -90l298 -90l-24 -83l-433 138v70z" unicode="≤"/>
<glyph glyph-name="greaterequal" d="M545 142v-88h-457v88h457zM552 401v-70l-433 -138l-24 83l298 90l-298 90l24 83z" unicode="≥"/>
<glyph glyph-name="lozenge" d="M320 664l-157 -333l157 -332l157 332zM355 753l207 -422l-207 -421h-70l-207 421l207 422h70z" unicode="◊"/>
</font>
</defs>
</svg>
